<svg width="375" height="812" viewBox="0 0 375 812" fill="none" xmlns="http://www.w3.org/2000/svg">
<rect width="375" height="812" fill="#F3F8FF"/>
<rect y="46" width="375" height="54" fill="#F3F8FF"/>
<path fill-rule="evenodd" clip-rule="evenodd" d="M345 65.875C343.641 65.875 342.337 66.415 341.376 67.3761C340.415 68.3372 339.875 69.6408 339.875 71C339.875 74.6289 339.096 77.0259 338.268 78.544C338.153 78.755 338.037 78.9483 337.923 79.125H352.077C351.963 78.9483 351.847 78.755 351.732 78.544C350.904 77.0259 350.125 74.6289 350.125 71C350.125 69.6408 349.585 68.3372 348.624 67.3761C347.663 66.415 346.359 65.875 345 65.875ZM354.486 79.2727L354.488 79.2734L354.489 79.2747L354.492 79.2767L354.494 79.2778C354.493 79.277 354.491 79.2757 354.489 79.274C354.479 79.2669 354.46 79.2519 354.431 79.2282C354.374 79.1808 354.282 79.0988 354.166 78.9763C353.935 78.732 353.605 78.3242 353.268 77.706C352.596 76.4741 351.875 74.3711 351.875 71C351.875 69.1766 351.151 67.428 349.861 66.1386C348.572 64.8493 346.823 64.125 345 64.125C343.177 64.125 341.428 64.8493 340.139 66.1386C338.849 67.428 338.125 69.1766 338.125 71C338.125 74.3711 337.404 76.4741 336.732 77.706C336.395 78.3242 336.065 78.732 335.834 78.9763C335.718 79.0988 335.626 79.1808 335.569 79.2282C335.54 79.2519 335.521 79.2669 335.511 79.274C335.509 79.2759 335.507 79.2772 335.506 79.2779C335.191 79.4932 335.052 79.8879 335.163 80.2536C335.274 80.6226 335.614 80.875 336 80.875H354C354.386 80.875 354.726 80.6226 354.837 80.2536C354.948 79.8879 354.809 79.4932 354.494 79.2779C354.492 79.2762 354.489 79.2744 354.486 79.2727ZM342.878 83.2332C343.302 83.0004 343.834 83.155 344.067 83.5784C344.159 83.7456 344.294 83.885 344.458 83.982C344.622 84.0791 344.809 84.1303 345 84.1303C345.191 84.1303 345.378 84.0791 345.542 83.982C345.706 83.885 345.841 83.7456 345.933 83.5784C346.166 83.155 346.698 83.0004 347.122 83.2332C347.545 83.4661 347.7 83.9981 347.467 84.4216C347.224 84.8633 346.867 85.2317 346.433 85.4883C345.999 85.745 345.504 85.8803 345 85.8803C344.496 85.8803 344.001 85.745 343.567 85.4883C343.133 85.2317 342.776 84.8633 342.533 84.4216C342.3 83.9981 342.455 83.4661 342.878 83.2332Z" fill="#87A6DD"/>
<text fill="#0F295C" xml:space="preserve" style="white-space: pre" font-family="Ubuntu" font-size="17" font-weight="500" letter-spacing="0em"><tspan x="121.025" y="80.3155">Emploi du temps</tspan></text>
<path fill-rule="evenodd" clip-rule="evenodd" d="M33.7471 62.9671C34.2862 62.4279 35.0175 62.125 35.78 62.125H36.22C36.9825 62.125 37.7138 62.4279 38.2529 62.9671C38.7921 63.5062 39.095 64.2375 39.095 65V65.1791C39.0952 65.3764 39.1473 65.5701 39.246 65.7409C39.3447 65.9117 39.4867 66.0536 39.6575 66.1522L39.6598 66.1536L40.0875 66.4022C40.0878 66.4024 40.0882 66.4026 40.0885 66.4028C40.2593 66.5012 40.4529 66.5529 40.65 66.5529C40.8475 66.5529 41.0415 66.501 41.2125 66.4022C41.221 66.3973 41.2296 66.3926 41.2382 66.3879L41.3765 66.3142C42.0334 65.9401 42.8114 65.8396 43.542 66.035C44.2778 66.2317 44.9054 66.7124 45.2872 67.3714L45.5079 67.7528C45.8885 68.4125 45.9917 69.1963 45.795 69.932C45.5989 70.6654 45.1207 71.2914 44.465 71.6734L44.3202 71.7603L44.3075 71.7678C44.1358 71.8669 43.9934 72.0096 43.8946 72.1815C43.7958 72.3534 43.7442 72.5483 43.745 72.7465L43.745 72.75L43.745 73.25L43.745 73.2535C43.7442 73.4517 43.7958 73.6466 43.8946 73.8185C43.9913 73.9867 44.1298 74.127 44.2966 74.2258L44.4318 74.2979C44.4408 74.3028 44.4497 74.3077 44.4586 74.3128C45.1176 74.6946 45.5983 75.3222 45.795 76.058C45.9913 76.7923 45.8889 77.5744 45.5102 78.2333L45.2921 78.6199L45.2872 78.6286C44.9054 79.2876 44.2778 79.7683 43.542 79.965C42.8114 80.1604 42.0334 80.0599 41.3765 79.6858L41.2382 79.6121C41.2296 79.6074 41.221 79.6027 41.2125 79.5978C41.0415 79.499 40.8475 79.4471 40.65 79.4471C40.4529 79.4471 40.2592 79.4989 40.0884 79.5973C40.0881 79.5974 40.0878 79.5976 40.0875 79.5978L39.6598 79.8464L39.6575 79.8478C39.4867 79.9464 39.3447 80.0883 39.246 80.2591C39.1473 80.4299 39.0952 80.6236 39.095 80.8209V81C39.095 81.7625 38.7921 82.4938 38.2529 83.0329C37.7138 83.5721 36.9825 83.875 36.22 83.875H35.78C35.0175 83.875 34.2862 83.5721 33.7471 83.0329C33.2079 82.4938 32.905 81.7625 32.905 81L32.905 80.8209C32.905 80.8208 32.905 80.821 32.905 80.8209C32.9047 80.6238 32.8527 80.4297 32.754 80.2591C32.6553 80.0883 32.5134 79.9464 32.3425 79.8478L32.3402 79.8464L31.9125 79.5978C31.9122 79.5976 31.9119 79.5974 31.9116 79.5973C31.7408 79.4989 31.5471 79.4471 31.35 79.4471C31.1525 79.4471 30.9585 79.499 30.7875 79.5978C30.779 79.6027 30.7704 79.6074 30.7618 79.6121L30.6235 79.6858C29.9666 80.0599 29.1886 80.1604 28.458 79.965C27.7222 79.7683 27.0946 79.2876 26.7128 78.6286L26.4921 78.2472C26.1115 77.5875 26.0083 76.8037 26.205 76.068C26.4011 75.3346 26.8793 74.7086 27.5351 74.3266L27.6798 74.2397L27.6925 74.2322C27.8642 74.1331 28.0066 73.9904 28.1054 73.8185C28.2042 73.6466 28.2558 73.4517 28.255 73.2535L28.255 73.25V72.743C28.2534 72.5475 28.2009 72.3557 28.1026 72.1866C28.0039 72.0169 27.8626 71.8759 27.6925 71.7778C27.6762 71.7684 27.6603 71.7585 27.6446 71.748L27.5155 71.662C26.8698 71.2789 26.3992 70.6581 26.205 69.932C26.0083 69.1963 26.1115 68.4125 26.4921 67.7528L26.7128 67.3716C27.0945 66.7126 27.7222 66.2317 28.458 66.035C29.1886 65.8396 29.9666 65.9401 30.6235 66.3142L30.7618 66.3879C30.7704 66.3926 30.779 66.3973 30.7875 66.4022C30.9585 66.501 31.1525 66.5529 31.35 66.5529C31.5471 66.5529 31.7407 66.5012 31.9115 66.4028C31.9118 66.4026 31.9122 66.4024 31.9125 66.4022L32.3425 66.1522C32.5134 66.0536 32.6553 65.9117 32.754 65.7409C32.8527 65.5703 32.9047 65.3766 32.905 65.1795C32.905 65.1794 32.905 65.1796 32.905 65.1795V65C32.905 64.2375 33.2079 63.5062 33.7471 62.9671ZM35.78 63.875C35.4816 63.875 35.1955 63.9935 34.9845 64.2045C34.7735 64.4155 34.655 64.7016 34.655 65V65.1809C34.6545 65.6851 34.5214 66.1802 34.2691 66.6167C34.017 67.0528 33.6548 67.415 33.2188 67.667C33.2184 67.6673 33.2179 67.6675 33.2175 67.6678L32.7875 67.9178C32.3505 68.1701 31.8547 68.3029 31.35 68.3029C30.8507 68.3029 30.3601 68.1729 29.9264 67.9258L29.7882 67.8521C29.7797 67.8475 29.7712 67.8428 29.7628 67.8379C29.5046 67.689 29.1979 67.6486 28.91 67.7256C28.6222 67.8026 28.3766 67.9906 28.2273 68.2484C28.2272 68.2485 28.2273 68.2484 28.2273 68.2484L28.0079 68.6272C28.0079 68.6274 28.0078 68.6275 28.0077 68.6277C27.859 68.8857 27.8187 69.1922 27.8956 69.48C27.9726 69.7679 28.1607 70.0135 28.4186 70.1628C28.4345 70.1721 28.4501 70.1818 28.4654 70.192L28.594 70.2777C29.0167 70.5278 29.3685 70.8821 29.6155 71.307C29.8677 71.7408 30.002 72.233 30.005 72.7347L30.005 72.74L30.005 73.2484C30.0067 73.7544 29.8748 74.2518 29.6227 74.6905C29.3716 75.1274 29.0101 75.4906 28.5744 75.7438L28.4302 75.8303L28.4186 75.8372C28.1607 75.9865 27.9726 76.2321 27.8956 76.52C27.8187 76.8078 27.859 77.1143 28.0077 77.3724C28.0076 77.3722 28.0078 77.3725 28.0077 77.3724L28.2272 77.7514C28.2271 77.7514 28.2272 77.7515 28.2272 77.7514C28.3765 78.0092 28.6222 78.1974 28.91 78.2744C29.1979 78.3514 29.5046 78.311 29.7628 78.1621C29.7712 78.1572 29.7797 78.1525 29.7882 78.1479L29.9264 78.0742C30.3601 77.8271 30.8507 77.6971 31.35 77.6971C31.8547 77.6971 32.3505 77.8299 32.7875 78.0822L32.7898 78.0836L33.2175 78.3322C33.2179 78.3325 33.2183 78.3327 33.2187 78.3329C33.6548 78.585 34.017 78.9472 34.2691 79.3833C34.5214 79.8198 34.6545 80.3149 34.655 80.8191L34.655 80.82L34.655 81C34.655 81.2984 34.7735 81.5845 34.9845 81.7955C35.1955 82.0065 35.4816 82.125 35.78 82.125H36.22C36.5184 82.125 36.8045 82.0065 37.0155 81.7955C37.2265 81.5845 37.345 81.2984 37.345 81V80.8191C37.3455 80.3149 37.4786 79.8198 37.7309 79.3833C37.983 78.9471 38.3453 78.5849 38.7814 78.3329C38.7818 78.3326 38.7821 78.3324 38.7825 78.3322L39.2102 78.0836L39.2125 78.0822C39.6496 77.8299 40.1453 77.6971 40.65 77.6971C41.1493 77.6971 41.6399 77.8271 42.0736 78.0742L42.2118 78.1479C42.2203 78.1525 42.2288 78.1572 42.2372 78.1621C42.4954 78.311 42.8021 78.3514 43.09 78.2744C43.3765 78.1978 43.6211 78.0112 43.7707 77.7552L43.9879 77.3701L43.9921 77.3628C44.141 77.1046 44.1814 76.7979 44.1044 76.51C44.0285 76.2264 43.8448 75.9838 43.5928 75.8338L43.4582 75.7621C43.4496 75.7574 43.441 75.7527 43.4325 75.7478C42.9938 75.4945 42.6298 75.1297 42.3773 74.6905C42.1252 74.2518 41.9933 73.7543 41.995 73.2484V72.7516C41.9933 72.2457 42.1252 71.7482 42.3773 71.3095C42.6284 70.8726 42.9899 70.5094 43.4255 70.2563L43.5698 70.1697L43.5814 70.1628C43.8393 70.0135 44.0274 69.7679 44.1044 69.48C44.1814 69.1921 44.141 68.8854 43.9921 68.6272L43.7728 68.2486C43.6235 67.9907 43.3779 67.8026 43.09 67.7256C42.8021 67.6486 42.4954 67.689 42.2372 67.8379C42.2288 67.8428 42.2203 67.8475 42.2118 67.8521L42.0736 67.9258C41.6399 68.1729 41.1493 68.3029 40.65 68.3029C40.1453 68.3029 39.6496 68.1701 39.2125 67.9178L39.2102 67.9164L38.7825 67.6678C38.7821 67.6675 38.7817 67.6673 38.7813 67.6671C38.3452 67.415 37.983 67.0528 37.7309 66.6167C37.4786 66.1802 37.3455 65.6851 37.345 65.1809V65C37.345 64.7016 37.2265 64.4155 37.0155 64.2045C36.8045 63.9935 36.5184 63.875 36.22 63.875H35.78ZM36 70.875C34.8264 70.875 33.875 71.8264 33.875 73C33.875 74.1736 34.8264 75.125 36 75.125C37.1736 75.125 38.125 74.1736 38.125 73C38.125 71.8264 37.1736 70.875 36 70.875ZM32.125 73C32.125 70.8599 33.8599 69.125 36 69.125C38.1401 69.125 39.875 70.8599 39.875 73C39.875 75.1401 38.1401 76.875 36 76.875C33.8599 76.875 32.125 75.1401 32.125 73Z" fill="#87A6DD"/>
<text fill="#0760FB" xml:space="preserve" style="white-space: pre" font-family="Ubuntu" font-size="13" font-weight="500" letter-spacing="-0.04em"><tspan x="27.9677" y="123.83">Vue journ&#xe9;e</tspan></text>
<path fill-rule="evenodd" clip-rule="evenodd" d="M113.434 117.16C113.647 117.374 113.647 117.72 113.434 117.934L109.684 121.684C109.47 121.897 109.124 121.897 108.91 121.684L105.16 117.934C104.947 117.72 104.947 117.374 105.16 117.16C105.374 116.947 105.72 116.947 105.934 117.16L109.297 120.523L112.66 117.16C112.874 116.947 113.22 116.947 113.434 117.16Z" fill="#0760FB"/>
<rect x="15.25" y="104.25" width="113.5" height="29.5" rx="14.75" stroke="#0760FB" stroke-width="0.5"/>
<line x1="47" y1="194.75" x2="370" y2="194.75" stroke="#87A6DD" stroke-width="0.5"/>
<line x1="47" y1="244.05" x2="370" y2="244.05" stroke="#87A6DD" stroke-width="0.5"/>
<line x1="47" y1="293.35" x2="370" y2="293.35" stroke="#87A6DD" stroke-width="0.5"/>
<line x1="47" y1="342.65" x2="370" y2="342.65" stroke="#87A6DD" stroke-width="0.5"/>
<line x1="47" y1="391.95" x2="370" y2="391.95" stroke="#87A6DD" stroke-width="0.5"/>
<line x1="47" y1="441.25" x2="370" y2="441.25" stroke="#87A6DD" stroke-width="0.5"/>
<line x1="47" y1="490.55" x2="370" y2="490.55" stroke="#87A6DD" stroke-width="0.5"/>
<line x1="47" y1="539.85" x2="370" y2="539.85" stroke="#87A6DD" stroke-width="0.5"/>
<line x1="47" y1="589.15" x2="370" y2="589.15" stroke="#87A6DD" stroke-width="0.5"/>
<line x1="47" y1="638.45" x2="370" y2="638.45" stroke="#87A6DD" stroke-width="0.5"/>
<line x1="47" y1="687.75" x2="370" y2="687.75" stroke="#87A6DD" stroke-width="0.5"/>
<text fill="#87A6DD" xml:space="preserve" style="white-space: pre" font-family="Ubuntu" font-size="11" letter-spacing="0em"><tspan x="10" y="198.587">08:00</tspan></text>
<text fill="#87A6DD" xml:space="preserve" style="white-space: pre" font-family="Ubuntu" font-size="11" letter-spacing="0em"><tspan x="10" y="247.587">09:00</tspan></text>
<text fill="#87A6DD" xml:space="preserve" style="white-space: pre" font-family="Ubuntu" font-size="11" letter-spacing="0em"><tspan x="10" y="296.587">10:00</tspan></text>
<text fill="#87A6DD" xml:space="preserve" style="white-space: pre" font-family="Ubuntu" font-size="11" letter-spacing="0em"><tspan x="10" y="345.587">11:00</tspan></text>
<text fill="#87A6DD" xml:space="preserve" style="white-space: pre" font-family="Ubuntu" font-size="11" letter-spacing="0em"><tspan x="10" y="394.587">12:00</tspan></text>
<text fill="#87A6DD" xml:space="preserve" style="white-space: pre" font-family="Ubuntu" font-size="11" letter-spacing="0em"><tspan x="10" y="443.587">13:00</tspan></text>
<text fill="#87A6DD" xml:space="preserve" style="white-space: pre" font-family="Ubuntu" font-size="11" letter-spacing="0em"><tspan x="10" y="492.587">14:00</tspan></text>
<text fill="#87A6DD" xml:space="preserve" style="white-space: pre" font-family="Ubuntu" font-size="11" letter-spacing="0em"><tspan x="10" y="541.587">15:00</tspan></text>
<text fill="#87A6DD" xml:space="preserve" style="white-space: pre" font-family="Ubuntu" font-size="11" letter-spacing="0em"><tspan x="10" y="590.587">16:00</tspan></text>
<text fill="#87A6DD" xml:space="preserve" style="white-space: pre" font-family="Ubuntu" font-size="11" letter-spacing="0em"><tspan x="10" y="639.587">17:00</tspan></text>
<text fill="#87A6DD" xml:space="preserve" style="white-space: pre" font-family="Ubuntu" font-size="11" letter-spacing="0em"><tspan x="10" y="688.587">18:00</tspan></text>
<rect x="56" y="199" width="292" height="65" rx="10" fill="#0A72FF"/>
<path fill-rule="evenodd" clip-rule="evenodd" d="M77.5 236.797C76.319 236.797 75.1863 237.266 74.3512 238.101C73.516 238.936 73.0469 240.069 73.0469 241.25C73.0469 242.626 73.8204 244.098 74.8114 245.4C75.7781 246.67 76.8875 247.696 77.4612 248.193C77.473 248.199 77.4863 248.203 77.5 248.203C77.5137 248.203 77.527 248.199 77.5388 248.193C78.1125 247.696 79.2219 246.67 80.1886 245.4C81.1796 244.098 81.9531 242.626 81.9531 241.25C81.9531 240.069 81.484 238.936 80.6488 238.101C79.8137 237.266 78.681 236.797 77.5 236.797ZM73.5778 237.328C74.618 236.288 76.0289 235.703 77.5 235.703C78.9711 235.703 80.382 236.288 81.4222 237.328C82.4625 238.368 83.0469 239.779 83.0469 241.25C83.0469 242.995 82.0895 244.708 81.0589 246.062C80.0157 247.433 78.828 248.525 78.233 249.038C78.2237 249.046 78.2141 249.054 78.2043 249.061C78.0012 249.214 77.7541 249.297 77.5 249.297C77.2459 249.297 76.9988 249.214 76.7957 249.061C76.7859 249.054 76.7763 249.046 76.767 249.038C76.1719 248.525 74.9843 247.433 73.9411 246.062C72.9105 244.708 71.9531 242.995 71.9531 241.25C71.9531 239.779 72.5375 238.368 73.5778 237.328ZM77.5 239.922C76.7665 239.922 76.1719 240.516 76.1719 241.25C76.1719 241.984 76.7665 242.578 77.5 242.578C78.2335 242.578 78.8281 241.984 78.8281 241.25C78.8281 240.516 78.2335 239.922 77.5 239.922ZM75.0781 241.25C75.0781 239.912 76.1624 238.828 77.5 238.828C78.8376 238.828 79.9219 239.912 79.9219 241.25C79.9219 242.588 78.8376 243.672 77.5 243.672C76.1624 243.672 75.0781 242.588 75.0781 241.25Z" fill="#EDF8FF"/>
<text fill="#EDF8FF" xml:space="preserve" style="white-space: pre" font-family="Ubuntu" font-size="13" letter-spacing="0em"><tspan x="92" y="247.33">MMI300</tspan></text>
<path fill-rule="evenodd" clip-rule="evenodd" d="M174.5 237.422C173.076 237.422 171.922 238.576 171.922 240C171.922 241.424 173.076 242.578 174.5 242.578C175.924 242.578 177.078 241.424 177.078 240C177.078 238.576 175.924 237.422 174.5 237.422ZM176.619 242.999C177.559 242.334 178.172 241.239 178.172 240C178.172 237.972 176.528 236.328 174.5 236.328C172.472 236.328 170.828 237.972 170.828 240C170.828 241.239 171.441 242.334 172.381 242.999C171.713 243.275 171.099 243.682 170.578 244.203C169.538 245.243 168.953 246.654 168.953 248.125C168.953 248.427 169.198 248.672 169.5 248.672C169.802 248.672 170.047 248.427 170.047 248.125C170.047 246.944 170.516 245.811 171.351 244.976C172.186 244.141 173.319 243.672 174.5 243.672C175.681 243.672 176.814 244.141 177.649 244.976C178.484 245.811 178.953 246.944 178.953 248.125C178.953 248.427 179.198 248.672 179.5 248.672C179.802 248.672 180.047 248.427 180.047 248.125C180.047 246.654 179.462 245.243 178.422 244.203C177.901 243.682 177.287 243.275 176.619 242.999Z" fill="#EDF8FF"/>
<text fill="#EDF8FF" xml:space="preserve" style="white-space: pre" font-family="Ubuntu" font-size="13" letter-spacing="0em"><tspan x="189" y="247.33">G. Durand</tspan></text>
<text fill="#EDF8FF" xml:space="preserve" style="white-space: pre" font-family="Ubuntu" font-size="15" font-weight="500" letter-spacing="0em"><tspan x="70" y="225.073">Cr&#xe9;a 3D</tspan></text>
<rect x="56" y="274" width="292" height="65" rx="10" fill="#0A72FF"/>
<path fill-rule="evenodd" clip-rule="evenodd" d="M77.5 311.797C76.319 311.797 75.1863 312.266 74.3512 313.101C73.516 313.936 73.0469 315.069 73.0469 316.25C73.0469 317.626 73.8204 319.098 74.8114 320.4C75.7781 321.67 76.8875 322.696 77.4612 323.193C77.473 323.199 77.4863 323.203 77.5 323.203C77.5137 323.203 77.527 323.199 77.5388 323.193C78.1125 322.696 79.2219 321.67 80.1886 320.4C81.1796 319.098 81.9531 317.626 81.9531 316.25C81.9531 315.069 81.484 313.936 80.6488 313.101C79.8137 312.266 78.681 311.797 77.5 311.797ZM73.5778 312.328C74.618 311.288 76.0289 310.703 77.5 310.703C78.9711 310.703 80.382 311.288 81.4222 312.328C82.4625 313.368 83.0469 314.779 83.0469 316.25C83.0469 317.995 82.0895 319.708 81.0589 321.062C80.0157 322.433 78.828 323.525 78.233 324.038C78.2237 324.046 78.2141 324.054 78.2043 324.061C78.0012 324.214 77.7541 324.297 77.5 324.297C77.2459 324.297 76.9988 324.214 76.7957 324.061C76.7859 324.054 76.7763 324.046 76.767 324.038C76.1719 323.525 74.9843 322.433 73.9411 321.062C72.9105 319.708 71.9531 317.995 71.9531 316.25C71.9531 314.779 72.5375 313.368 73.5778 312.328ZM77.5 314.922C76.7665 314.922 76.1719 315.516 76.1719 316.25C76.1719 316.984 76.7665 317.578 77.5 317.578C78.2335 317.578 78.8281 316.984 78.8281 316.25C78.8281 315.516 78.2335 314.922 77.5 314.922ZM75.0781 316.25C75.0781 314.912 76.1624 313.828 77.5 313.828C78.8376 313.828 79.9219 314.912 79.9219 316.25C79.9219 317.588 78.8376 318.672 77.5 318.672C76.1624 318.672 75.0781 317.588 75.0781 316.25Z" fill="#EDF8FF"/>
<text fill="#EDF8FF" xml:space="preserve" style="white-space: pre" font-family="Ubuntu" font-size="13" letter-spacing="0em"><tspan x="92" y="322.33">MMI204</tspan></text>
<path fill-rule="evenodd" clip-rule="evenodd" d="M174.5 312.422C173.076 312.422 171.922 313.576 171.922 315C171.922 316.424 173.076 317.578 174.5 317.578C175.924 317.578 177.078 316.424 177.078 315C177.078 313.576 175.924 312.422 174.5 312.422ZM176.619 317.999C177.559 317.334 178.172 316.239 178.172 315C178.172 312.972 176.528 311.328 174.5 311.328C172.472 311.328 170.828 312.972 170.828 315C170.828 316.239 171.441 317.334 172.381 317.999C171.713 318.275 171.099 318.682 170.578 319.203C169.538 320.243 168.953 321.654 168.953 323.125C168.953 323.427 169.198 323.672 169.5 323.672C169.802 323.672 170.047 323.427 170.047 323.125C170.047 321.944 170.516 320.811 171.351 319.976C172.186 319.141 173.319 318.672 174.5 318.672C175.681 318.672 176.814 319.141 177.649 319.976C178.484 320.811 178.953 321.944 178.953 323.125C178.953 323.427 179.198 323.672 179.5 323.672C179.802 323.672 180.047 323.427 180.047 323.125C180.047 321.654 179.462 320.243 178.422 319.203C177.901 318.682 177.287 318.275 176.619 317.999Z" fill="#EDF8FF"/>
<text fill="#EDF8FF" xml:space="preserve" style="white-space: pre" font-family="Ubuntu" font-size="13" letter-spacing="0em"><tspan x="189" y="322.33">L. Simon</tspan></text>
<text fill="#EDF8FF" xml:space="preserve" style="white-space: pre" font-family="Ubuntu" font-size="15" font-weight="500" letter-spacing="0em"><tspan x="70" y="300.073">Cr&#xe9;a Gest Contenu</tspan></text>
<rect x="56" y="349" width="292" height="65" rx="10" fill="#0A72FF"/>
<path fill-rule="evenodd" clip-rule="evenodd" d="M77.5 386.797C76.319 386.797 75.1863 387.266 74.3512 388.101C73.516 388.936 73.0469 390.069 73.0469 391.25C73.0469 392.626 73.8204 394.098 74.8114 395.4C75.7781 396.67 76.8875 397.696 77.4612 398.193C77.473 398.199 77.4863 398.203 77.5 398.203C77.5137 398.203 77.527 398.199 77.5388 398.193C78.1125 397.696 79.2219 396.67 80.1886 395.4C81.1796 394.098 81.9531 392.626 81.9531 391.25C81.9531 390.069 81.484 388.936 80.6488 388.101C79.8137 387.266 78.681 386.797 77.5 386.797ZM73.5778 387.328C74.618 386.288 76.0289 385.703 77.5 385.703C78.9711 385.703 80.382 386.288 81.4222 387.328C82.4625 388.368 83.0469 389.779 83.0469 391.25C83.0469 392.995 82.0895 394.708 81.0589 396.062C80.0157 397.433 78.828 398.525 78.233 399.038C78.2237 399.046 78.2141 399.054 78.2043 399.061C78.0012 399.214 77.7541 399.297 77.5 399.297C77.2459 399.297 76.9988 399.214 76.7957 399.061C76.7859 399.054 76.7763 399.046 76.767 399.038C76.1719 398.525 74.9843 397.433 73.9411 396.062C72.9105 394.708 71.9531 392.995 71.9531 391.25C71.9531 389.779 72.5375 388.368 73.5778 387.328ZM77.5 389.922C76.7665 389.922 76.1719 390.516 76.1719 391.25C76.1719 391.984 76.7665 392.578 77.5 392.578C78.2335 392.578 78.8281 391.984 78.8281 391.25C78.8281 390.516 78.2335 389.922 77.5 389.922ZM75.0781 391.25C75.0781 389.912 76.1624 388.828 77.5 388.828C78.8376 388.828 79.9219 389.912 79.9219 391.25C79.9219 392.588 78.8376 393.672 77.5 393.672C76.1624 393.672 75.0781 392.588 75.0781 391.25Z" fill="#EDF8FF"/>
<text fill="#EDF8FF" xml:space="preserve" style="white-space: pre" font-family="Ubuntu" font-size="13" letter-spacing="0em"><tspan x="92" y="397.33">MMI204</tspan></text>
<path fill-rule="evenodd" clip-rule="evenodd" d="M174.5 387.422C173.076 387.422 171.922 388.576 171.922 390C171.922 391.424 173.076 392.578 174.5 392.578C175.924 392.578 177.078 391.424 177.078 390C177.078 388.576 175.924 387.422 174.5 387.422ZM176.619 392.999C177.559 392.334 178.172 391.239 178.172 390C178.172 387.972 176.528 386.328 174.5 386.328C172.472 386.328 170.828 387.972 170.828 390C170.828 391.239 171.441 392.334 172.381 392.999C171.713 393.275 171.099 393.682 170.578 394.203C169.538 395.243 168.953 396.654 168.953 398.125C168.953 398.427 169.198 398.672 169.5 398.672C169.802 398.672 170.047 398.427 170.047 398.125C170.047 396.944 170.516 395.811 171.351 394.976C172.186 394.141 173.319 393.672 174.5 393.672C175.681 393.672 176.814 394.141 177.649 394.976C178.484 395.811 178.953 396.944 178.953 398.125C178.953 398.427 179.198 398.672 179.5 398.672C179.802 398.672 180.047 398.427 180.047 398.125C180.047 396.654 179.462 395.243 178.422 394.203C177.901 393.682 177.287 393.275 176.619 392.999Z" fill="#EDF8FF"/>
<text fill="#EDF8FF" xml:space="preserve" style="white-space: pre" font-family="Ubuntu" font-size="13" letter-spacing="0em"><tspan x="189" y="397.33">A. Dubois</tspan></text>
<text fill="#EDF8FF" xml:space="preserve" style="white-space: pre" font-family="Ubuntu" font-size="15" font-weight="500" letter-spacing="0em"><tspan x="70" y="375.073">Design d&#x2019;exp&#xe9;rience</tspan></text>
<rect x="56" y="470" width="292" height="65" rx="10" fill="#0A72FF"/>
<path fill-rule="evenodd" clip-rule="evenodd" d="M77.5 507.797C76.319 507.797 75.1863 508.266 74.3512 509.101C73.516 509.936 73.0469 511.069 73.0469 512.25C73.0469 513.626 73.8204 515.098 74.8114 516.4C75.7781 517.67 76.8875 518.696 77.4612 519.193C77.473 519.199 77.4863 519.203 77.5 519.203C77.5137 519.203 77.527 519.199 77.5388 519.193C78.1125 518.696 79.2219 517.67 80.1886 516.4C81.1796 515.098 81.9531 513.626 81.9531 512.25C81.9531 511.069 81.484 509.936 80.6488 509.101C79.8137 508.266 78.681 507.797 77.5 507.797ZM73.5778 508.328C74.618 507.288 76.0289 506.703 77.5 506.703C78.9711 506.703 80.382 507.288 81.4222 508.328C82.4625 509.368 83.0469 510.779 83.0469 512.25C83.0469 513.995 82.0895 515.708 81.0589 517.062C80.0157 518.433 78.828 519.525 78.233 520.038C78.2237 520.046 78.2141 520.054 78.2043 520.061C78.0012 520.214 77.7541 520.297 77.5 520.297C77.2459 520.297 76.9988 520.214 76.7957 520.061C76.7859 520.054 76.7763 520.046 76.767 520.038C76.1719 519.525 74.9843 518.433 73.9411 517.062C72.9105 515.708 71.9531 513.995 71.9531 512.25C71.9531 510.779 72.5375 509.368 73.5778 508.328ZM77.5 510.922C76.7665 510.922 76.1719 511.516 76.1719 512.25C76.1719 512.984 76.7665 513.578 77.5 513.578C78.2335 513.578 78.8281 512.984 78.8281 512.25C78.8281 511.516 78.2335 510.922 77.5 510.922ZM75.0781 512.25C75.0781 510.912 76.1624 509.828 77.5 509.828C78.8376 509.828 79.9219 510.912 79.9219 512.25C79.9219 513.588 78.8376 514.672 77.5 514.672C76.1624 514.672 75.0781 513.588 75.0781 512.25Z" fill="#EDF8FF"/>
<text fill="#EDF8FF" xml:space="preserve" style="white-space: pre" font-family="Ubuntu" font-size="13" letter-spacing="0em"><tspan x="92" y="518.33">MMIBOX</tspan></text>
<path fill-rule="evenodd" clip-rule="evenodd" d="M178.5 508.422C177.076 508.422 175.922 509.576 175.922 511C175.922 512.424 177.076 513.578 178.5 513.578C179.924 513.578 181.078 512.424 181.078 511C181.078 509.576 179.924 508.422 178.5 508.422ZM180.619 513.999C181.559 513.334 182.172 512.239 182.172 511C182.172 508.972 180.528 507.328 178.5 507.328C176.472 507.328 174.828 508.972 174.828 511C174.828 512.239 175.441 513.334 176.381 513.999C175.713 514.275 175.099 514.682 174.578 515.203C173.538 516.243 172.953 517.654 172.953 519.125C172.953 519.427 173.198 519.672 173.5 519.672C173.802 519.672 174.047 519.427 174.047 519.125C174.047 517.944 174.516 516.811 175.351 515.976C176.186 515.141 177.319 514.672 178.5 514.672C179.681 514.672 180.814 515.141 181.649 515.976C182.484 516.811 182.953 517.944 182.953 519.125C182.953 519.427 183.198 519.672 183.5 519.672C183.802 519.672 184.047 519.427 184.047 519.125C184.047 517.654 183.462 516.243 182.422 515.203C181.901 514.682 181.287 514.275 180.619 513.999Z" fill="#EDF8FF"/>
<text fill="#EDF8FF" xml:space="preserve" style="white-space: pre" font-family="Ubuntu" font-size="13" letter-spacing="0em"><tspan x="193" y="518.33">M. Andre</tspan></text>
<text fill="#EDF8FF" xml:space="preserve" style="white-space: pre" font-family="Ubuntu" font-size="15" font-weight="500" letter-spacing="0em"><tspan x="70" y="496.073">Audiovisuel</tspan></text>
<rect x="56" y="545" width="292" height="65" rx="10" fill="#0A72FF"/>
<path fill-rule="evenodd" clip-rule="evenodd" d="M77.5 582.797C76.319 582.797 75.1863 583.266 74.3512 584.101C73.516 584.936 73.0469 586.069 73.0469 587.25C73.0469 588.626 73.8204 590.098 74.8114 591.4C75.7781 592.67 76.8875 593.696 77.4612 594.193C77.473 594.199 77.4863 594.203 77.5 594.203C77.5137 594.203 77.527 594.199 77.5388 594.193C78.1125 593.696 79.2219 592.67 80.1886 591.4C81.1796 590.098 81.9531 588.626 81.9531 587.25C81.9531 586.069 81.484 584.936 80.6488 584.101C79.8137 583.266 78.681 582.797 77.5 582.797ZM73.5778 583.328C74.618 582.288 76.0289 581.703 77.5 581.703C78.9711 581.703 80.382 582.288 81.4222 583.328C82.4625 584.368 83.0469 585.779 83.0469 587.25C83.0469 588.995 82.0895 590.708 81.0589 592.062C80.0157 593.433 78.828 594.525 78.233 595.038C78.2237 595.046 78.2141 595.054 78.2043 595.061C78.0012 595.214 77.7541 595.297 77.5 595.297C77.2459 595.297 76.9988 595.214 76.7957 595.061C76.7859 595.054 76.7763 595.046 76.767 595.038C76.1719 594.525 74.9843 593.433 73.9411 592.062C72.9105 590.708 71.9531 588.995 71.9531 587.25C71.9531 585.779 72.5375 584.368 73.5778 583.328ZM77.5 585.922C76.7665 585.922 76.1719 586.516 76.1719 587.25C76.1719 587.984 76.7665 588.578 77.5 588.578C78.2335 588.578 78.8281 587.984 78.8281 587.25C78.8281 586.516 78.2335 585.922 77.5 585.922ZM75.0781 587.25C75.0781 585.912 76.1624 584.828 77.5 584.828C78.8376 584.828 79.9219 585.912 79.9219 587.25C79.9219 588.588 78.8376 589.672 77.5 589.672C76.1624 589.672 75.0781 588.588 75.0781 587.25Z" fill="#EDF8FF"/>
<text fill="#EDF8FF" xml:space="preserve" style="white-space: pre" font-family="Ubuntu" font-size="13" letter-spacing="0em"><tspan x="92" y="593.33">MMI311</tspan></text>
<path fill-rule="evenodd" clip-rule="evenodd" d="M174.5 583.422C173.076 583.422 171.922 584.576 171.922 586C171.922 587.424 173.076 588.578 174.5 588.578C175.924 588.578 177.078 587.424 177.078 586C177.078 584.576 175.924 583.422 174.5 583.422ZM176.619 588.999C177.559 588.334 178.172 587.239 178.172 586C178.172 583.972 176.528 582.328 174.5 582.328C172.472 582.328 170.828 583.972 170.828 586C170.828 587.239 171.441 588.334 172.381 588.999C171.713 589.275 171.099 589.682 170.578 590.203C169.538 591.243 168.953 592.654 168.953 594.125C168.953 594.427 169.198 594.672 169.5 594.672C169.802 594.672 170.047 594.427 170.047 594.125C170.047 592.944 170.516 591.811 171.351 590.976C172.186 590.141 173.319 589.672 174.5 589.672C175.681 589.672 176.814 590.141 177.649 590.976C178.484 591.811 178.953 592.944 178.953 594.125C178.953 594.427 179.198 594.672 179.5 594.672C179.802 594.672 180.047 594.427 180.047 594.125C180.047 592.654 179.462 591.243 178.422 590.203C177.901 589.682 177.287 589.275 176.619 588.999Z" fill="#EDF8FF"/>
<text fill="#EDF8FF" xml:space="preserve" style="white-space: pre" font-family="Ubuntu" font-size="13" letter-spacing="0em"><tspan x="189" y="593.33">C. Mercier</tspan></text>
<text fill="#EDF8FF" xml:space="preserve" style="white-space: pre" font-family="Ubuntu" font-size="15" font-weight="500" letter-spacing="0em"><tspan x="70" y="571.073">Anglais</tspan></text>
<rect x="56" y="620" width="292" height="65" rx="10" fill="#0A72FF"/>
<path fill-rule="evenodd" clip-rule="evenodd" d="M77.5 657.797C76.319 657.797 75.1863 658.266 74.3512 659.101C73.516 659.936 73.0469 661.069 73.0469 662.25C73.0469 663.626 73.8204 665.098 74.8114 666.4C75.7781 667.67 76.8875 668.696 77.4612 669.193C77.473 669.199 77.4863 669.203 77.5 669.203C77.5137 669.203 77.527 669.199 77.5388 669.193C78.1125 668.696 79.2219 667.67 80.1886 666.4C81.1796 665.098 81.9531 663.626 81.9531 662.25C81.9531 661.069 81.484 659.936 80.6488 659.101C79.8137 658.266 78.681 657.797 77.5 657.797ZM73.5778 658.328C74.618 657.288 76.0289 656.703 77.5 656.703C78.9711 656.703 80.382 657.288 81.4222 658.328C82.4625 659.368 83.0469 660.779 83.0469 662.25C83.0469 663.995 82.0895 665.708 81.0589 667.062C80.0157 668.433 78.828 669.525 78.233 670.038C78.2237 670.046 78.2141 670.054 78.2043 670.061C78.0012 670.214 77.7541 670.297 77.5 670.297C77.2459 670.297 76.9988 670.214 76.7957 670.061C76.7859 670.054 76.7763 670.046 76.767 670.038C76.1719 669.525 74.9843 668.433 73.9411 667.062C72.9105 665.708 71.9531 663.995 71.9531 662.25C71.9531 660.779 72.5375 659.368 73.5778 658.328ZM77.5 660.922C76.7665 660.922 76.1719 661.516 76.1719 662.25C76.1719 662.984 76.7665 663.578 77.5 663.578C78.2335 663.578 78.8281 662.984 78.8281 662.25C78.8281 661.516 78.2335 660.922 77.5 660.922ZM75.0781 662.25C75.0781 660.912 76.1624 659.828 77.5 659.828C78.8376 659.828 79.9219 660.912 79.9219 662.25C79.9219 663.588 78.8376 664.672 77.5 664.672C76.1624 664.672 75.0781 663.588 75.0781 662.25Z" fill="#EDF8FF"/>
<text fill="#EDF8FF" xml:space="preserve" style="white-space: pre" font-family="Ubuntu" font-size="13" letter-spacing="0em"><tspan x="92" y="668.33">AMPHIMMI</tspan></text>
<path fill-rule="evenodd" clip-rule="evenodd" d="M192.5 658.422C191.076 658.422 189.922 659.576 189.922 661C189.922 662.424 191.076 663.578 192.5 663.578C193.924 663.578 195.078 662.424 195.078 661C195.078 659.576 193.924 658.422 192.5 658.422ZM194.619 663.999C195.559 663.334 196.172 662.239 196.172 661C196.172 658.972 194.528 657.328 192.5 657.328C190.472 657.328 188.828 658.972 188.828 661C188.828 662.239 189.441 663.334 190.381 663.999C189.713 664.275 189.099 664.682 188.578 665.203C187.538 666.243 186.953 667.654 186.953 669.125C186.953 669.427 187.198 669.672 187.5 669.672C187.802 669.672 188.047 669.427 188.047 669.125C188.047 667.944 188.516 666.811 189.351 665.976C190.186 665.141 191.319 664.672 192.5 664.672C193.681 664.672 194.814 665.141 195.649 665.976C196.484 666.811 196.953 667.944 196.953 669.125C196.953 669.427 197.198 669.672 197.5 669.672C197.802 669.672 198.047 669.427 198.047 669.125C198.047 667.654 197.462 666.243 196.422 665.203C195.901 664.682 195.287 664.275 194.619 663.999Z" fill="#EDF8FF"/>
<text fill="#EDF8FF" xml:space="preserve" style="white-space: pre" font-family="Ubuntu" font-size="13" letter-spacing="0em"><tspan x="207" y="668.33">M. Robert</tspan></text>
<text fill="#EDF8FF" xml:space="preserve" style="white-space: pre" font-family="Ubuntu" font-size="15" font-weight="500" letter-spacing="0em"><tspan x="70" y="646.073">Expression</tspan></text>
<text fill="#0B49C2" xml:space="preserve" style="white-space: pre" font-family="Ubuntu" font-size="11" letter-spacing="0em"><tspan x="12.4087" y="164.087">Nov.&#10;</tspan></text>
<text fill="#0B49C2" xml:space="preserve" style="white-space: pre" font-family="Ubuntu" font-size="11" font-weight="500" letter-spacing="0em"><tspan x="5.09326" y="180.087">Sem 45</tspan></text>
<text fill="#87A6DD" xml:space="preserve" style="white-space: pre" font-family="Ubuntu" font-size="11" letter-spacing="0em"><tspan x="193.832" y="165.087">Lun&#10;</tspan><tspan x="196.791" y="178.087">04</tspan></text>
<path fill-rule="evenodd" clip-rule="evenodd" d="M148.948 114.5C148.948 114.057 149.307 113.698 149.75 113.698H166.25C166.693 113.698 167.052 114.057 167.052 114.5C167.052 114.943 166.693 115.302 166.25 115.302H149.75C149.307 115.302 148.948 114.943 148.948 114.5ZM157.083 117.365C157.526 117.365 157.885 117.724 157.885 118.167V119.897L158.432 119.35C159.374 118.408 160.685 117.823 162.125 117.823C163.432 117.823 164.685 118.342 165.609 119.266C166.533 120.19 167.052 121.443 167.052 122.75C167.052 123.88 166.696 124.982 166.036 125.899C165.375 126.816 164.442 127.502 163.37 127.859C162.297 128.216 161.14 128.227 160.061 127.89C158.982 127.553 158.037 126.885 157.358 125.981C157.093 125.627 157.164 125.124 157.519 124.858C157.873 124.593 158.376 124.664 158.642 125.019C159.118 125.654 159.782 126.123 160.539 126.359C161.297 126.596 162.109 126.588 162.862 126.337C163.615 126.086 164.27 125.605 164.734 124.961C165.198 124.317 165.448 123.544 165.448 122.75C165.448 121.869 165.098 121.023 164.475 120.4C163.851 119.777 163.006 119.427 162.125 119.427C161.126 119.427 160.219 119.832 159.566 120.485L159.02 121.031H160.75C161.193 121.031 161.552 121.39 161.552 121.833C161.552 122.276 161.193 122.635 160.75 122.635H157.083C156.64 122.635 156.281 122.276 156.281 121.833V118.167C156.281 117.724 156.64 117.365 157.083 117.365ZM148.948 120C148.948 119.557 149.307 119.198 149.75 119.198H153.417C153.86 119.198 154.219 119.557 154.219 120C154.219 120.443 153.86 120.802 153.417 120.802H149.75C149.307 120.802 148.948 120.443 148.948 120ZM148.948 125.5C148.948 125.057 149.307 124.698 149.75 124.698H153.417C153.86 124.698 154.219 125.057 154.219 125.5C154.219 125.943 153.86 126.302 153.417 126.302H149.75C149.307 126.302 148.948 125.943 148.948 125.5Z" fill="#0B49C2"/>
<rect width="375" height="105" transform="translate(0 707)" fill="white"/>
<g clip-path="url(#clip0_4060_26884)">
<path d="M59.125 748.875V740.542C59.125 740.265 59.0153 740 58.8199 739.805C58.6246 739.61 58.3596 739.5 58.0833 739.5H53.9167C53.6404 739.5 53.3754 739.61 53.1801 739.805C52.9847 740 52.875 740.265 52.875 740.542V748.875" stroke="#87A6DD" stroke-width="1.5" stroke-linecap="round" stroke-linejoin="round"/>
<path d="M46.625 737.417C46.6249 737.114 46.691 736.814 46.8185 736.539C46.9461 736.264 47.1321 736.021 47.3635 735.825L54.6552 729.576C55.0312 729.258 55.5077 729.084 56 729.084C56.4923 729.084 56.9688 729.258 57.3448 729.576L64.6365 735.825C64.8679 736.021 65.0539 736.264 65.1815 736.539C65.309 736.814 65.3751 737.114 65.375 737.417V746.792C65.375 747.344 65.1555 747.874 64.7648 748.265C64.3741 748.656 63.8442 748.875 63.2917 748.875H48.7083C48.1558 748.875 47.6259 748.656 47.2352 748.265C46.8445 747.874 46.625 747.344 46.625 746.792V737.417Z" stroke="#87A6DD" stroke-width="1.5" stroke-linecap="round" stroke-linejoin="round"/>
<text fill="#87A6DD" xml:space="preserve" style="white-space: pre" font-family="Ubuntu" font-size="12" font-weight="500" letter-spacing="-0.04em"><tspan x="37.3951" y="767.458">Accueil</tspan></text>
</g>
<path d="M138.333 729.083V733.25" stroke="#0760FB" stroke-width="1.5" stroke-linecap="round" stroke-linejoin="round"/>
<path d="M146.667 729.083V733.25" stroke="#0760FB" stroke-width="1.5" stroke-linecap="round" stroke-linejoin="round"/>
<path d="M149.792 731.167H135.208C134.058 731.167 133.125 732.099 133.125 733.25V747.833C133.125 748.984 134.058 749.917 135.208 749.917H149.792C150.942 749.917 151.875 748.984 151.875 747.833V733.25C151.875 732.099 150.942 731.167 149.792 731.167Z" stroke="#0760FB" stroke-width="1.5" stroke-linecap="round" stroke-linejoin="round"/>
<path d="M133.125 737.417H151.875" stroke="#0760FB" stroke-width="1.5" stroke-linecap="round" stroke-linejoin="round"/>
<text fill="#0760FB" xml:space="preserve" style="white-space: pre" font-family="Ubuntu" font-size="12" font-weight="500" letter-spacing="-0.04em"><tspan x="131.783" y="767.458">EDT</tspan></text>
<g clip-path="url(#clip1_4060_26884)">
<path d="M230 749.917C235.753 749.917 240.417 745.253 240.417 739.5C240.417 733.747 235.753 729.083 230 729.083C224.247 729.083 219.583 733.747 219.583 739.5C219.583 745.253 224.247 749.917 230 749.917Z" stroke="#87A6DD" stroke-width="1.5" stroke-linecap="round" stroke-linejoin="round"/>
<path d="M226.875 739.5L228.958 741.583L233.125 737.417" stroke="#87A6DD" stroke-width="1.5" stroke-linecap="round" stroke-linejoin="round"/>
<text fill="#87A6DD" xml:space="preserve" style="white-space: pre" font-family="Ubuntu" font-size="12" font-weight="500" letter-spacing="-0.04em"><tspan x="210.165" y="767.458">Devoirs</tspan></text>
</g>
<path d="M328.333 731.167H311.667C310.516 731.167 309.583 732.099 309.583 733.25V745.75C309.583 746.901 310.516 747.833 311.667 747.833H328.333C329.484 747.833 330.417 746.901 330.417 745.75V733.25C330.417 732.099 329.484 731.167 328.333 731.167Z" stroke="#87A6DD" stroke-width="1.5" stroke-linecap="round" stroke-linejoin="round"/>
<path d="M330.417 734.292L321.073 740.229C320.751 740.431 320.379 740.538 320 740.538C319.62 740.538 319.249 740.431 318.927 740.229L309.583 734.292" stroke="#87A6DD" stroke-width="1.5" stroke-linecap="round" stroke-linejoin="round"/>
<text fill="#87A6DD" xml:space="preserve" style="white-space: pre" font-family="Ubuntu" font-size="12" font-weight="500" letter-spacing="-0.04em"><tspan x="306.271" y="767.458">Mails</tspan></text>
<path d="M0 790H375V812H0V790Z" fill="white"/>
<rect width="139" height="5" rx="2.5" transform="matrix(-1 0 0 1 257 799)" fill="#0F295C"/>
<text fill="#0F295C" xml:space="preserve" style="white-space: pre" font-family="Ubuntu" font-size="15.0682" font-weight="500" letter-spacing="-0.04em"><tspan x="28" y="28.2796">14:16</tspan></text>
<g clip-path="url(#clip2_4060_26884)">
<rect x="309.083" y="16.9772" width="2.83636" height="10.6364" rx="0.886364" fill="#0F295C"/>
<rect x="304.385" y="19.1045" width="2.83636" height="8.50909" rx="0.886364" fill="#0F295C"/>
<rect x="299.688" y="21.4091" width="2.83636" height="6.20455" rx="0.886364" fill="#0F295C"/>
<rect x="294.99" y="23.5364" width="2.83636" height="4.07727" rx="0.886364" fill="#0F295C"/>
</g>
<g clip-path="url(#clip3_4060_26884)">
<path d="M323.848 24.0729C324.472 24.0729 325.078 24.2367 325.612 24.5491L325.828 24.6757C325.992 24.7717 326.021 24.9963 325.886 25.1303L324.039 26.9719C323.926 27.0851 323.742 27.0851 323.629 26.9719L321.794 25.1422C321.66 25.0087 321.688 24.7852 321.85 24.6886L322.064 24.5614C322.603 24.2411 323.217 24.0729 323.848 24.0729Z" fill="#0F295C"/>
<path d="M323.848 20.6898C325.399 20.6898 326.889 21.2044 328.102 22.1573L328.273 22.2919C328.41 22.3993 328.422 22.6016 328.299 22.7243L327.196 23.8237C327.094 23.9254 326.933 23.9371 326.817 23.8512L326.683 23.7513C325.864 23.1423 324.876 22.8157 323.848 22.8157C322.815 22.8157 321.821 23.1464 320.999 23.7623L320.864 23.8631C320.749 23.9498 320.587 23.9384 320.484 23.8364L319.382 22.7373C319.259 22.6149 319.271 22.4131 319.407 22.3055L319.578 22.1708C320.794 21.2094 322.29 20.6898 323.848 20.6898Z" fill="#0F295C"/>
<path d="M323.848 17.3068C326.31 17.3068 328.664 18.1751 330.527 19.7666L330.686 19.9025C330.815 20.0123 330.822 20.208 330.703 20.3273L329.604 21.4232C329.497 21.5293 329.327 21.5368 329.212 21.4403L329.076 21.3265C327.609 20.0999 325.77 19.4326 323.848 19.4326C321.92 19.4326 320.076 20.1045 318.606 21.3388L318.47 21.4532C318.355 21.5501 318.184 21.5428 318.078 21.4365L316.979 20.3407C316.86 20.2216 316.867 20.0262 316.995 19.9163L317.153 19.7804C319.019 18.1803 321.38 17.3068 323.848 17.3068Z" fill="#0F295C"/>
</g>
<rect x="337" y="18.5114" width="18.6136" height="7.97727" rx="1.17886" fill="#0F295C"/>
<path opacity="0.4" fill-rule="evenodd" clip-rule="evenodd" d="M340.191 17.625H352.423C353.306 17.625 353.915 17.6257 354.388 17.6643C354.851 17.7021 355.104 17.7717 355.29 17.8665C355.707 18.079 356.046 18.418 356.259 18.8349C356.353 19.0209 356.423 19.2744 356.461 19.7369C356.499 20.2097 356.5 20.8189 356.5 21.7023V23.2977C356.5 24.1811 356.499 24.7903 356.461 25.2631C356.423 25.7256 356.353 25.9791 356.259 26.1651C356.046 26.5821 355.707 26.921 355.29 27.1335C355.104 27.2283 354.851 27.2979 354.388 27.3357C353.915 27.3743 353.306 27.375 352.423 27.375H340.191C339.308 27.375 338.698 27.3743 338.226 27.3357C337.763 27.2979 337.51 27.2283 337.324 27.1335C336.907 26.921 336.568 26.5821 336.355 26.1651C336.26 25.9791 336.191 25.7256 336.153 25.2631C336.114 24.7903 336.114 24.1811 336.114 23.2977V21.7023C336.114 20.8189 336.114 20.2097 336.153 19.7369C336.191 19.2744 336.26 19.0209 336.355 18.8349C336.568 18.418 336.907 18.079 337.324 17.8665C337.51 17.7717 337.763 17.7021 338.226 17.6643C338.698 17.6257 339.308 17.625 340.191 17.625ZM335.227 21.7023C335.227 19.9648 335.227 19.0961 335.565 18.4325C335.863 17.8488 336.337 17.3742 336.921 17.0768C337.585 16.7386 338.453 16.7386 340.191 16.7386H352.423C354.16 16.7386 355.029 16.7386 355.693 17.0768C356.276 17.3742 356.751 17.8488 357.048 18.4325C357.386 19.0961 357.386 19.9648 357.386 21.7023V23.2977C357.386 25.0352 357.386 25.9039 357.048 26.5675C356.751 27.1512 356.276 27.6258 355.693 27.9232C355.029 28.2614 354.16 28.2614 352.423 28.2614H340.191C338.453 28.2614 337.585 28.2614 336.921 27.9232C336.337 27.6258 335.863 27.1512 335.565 26.5675C335.227 25.9039 335.227 25.0352 335.227 23.2977V21.7023ZM358.273 24.2727C359.007 24.0955 359.602 23.4791 359.602 22.5C359.602 21.521 359.007 20.9046 358.273 20.7273L358.273 22.5L358.273 24.2727Z" fill="#0F295C"/>
<defs>
<clipPath id="clip0_4060_26884">
<rect width="38" height="43" fill="white" transform="translate(37 727)"/>
</clipPath>
<clipPath id="clip1_4060_26884">
<rect width="40" height="43" fill="white" transform="translate(210 727)"/>
</clipPath>
<clipPath id="clip2_4060_26884">
<rect width="17.7273" height="12.4091" fill="white" transform="translate(294.455 16.2954)"/>
</clipPath>
<clipPath id="clip3_4060_26884">
<rect width="17.7273" height="10.6364" fill="white" transform="translate(314.841 17.1818)"/>
</clipPath>
</defs>
</svg>
