<svg width="375" height="812" viewBox="0 0 375 812" fill="none" xmlns="http://www.w3.org/2000/svg">
<g clip-path="url(#clip0_4196_6442)">
<rect width="375" height="812" fill="#F3F8FF"/>
<g clip-path="url(#clip1_4196_6442)">
<rect x="15.25" y="139.25" width="344.5" height="43.5" rx="9.75" fill="#FFF1F1" stroke="#FF9B9B" stroke-width="0.5"/>
<path fill-rule="evenodd" clip-rule="evenodd" d="M340.881 155.812C341.124 155.57 341.518 155.57 341.76 155.812L346.023 160.062C346.266 160.304 346.266 160.696 346.023 160.938L341.76 165.188C341.518 165.43 341.124 165.43 340.881 165.188C340.639 164.946 340.639 164.554 340.881 164.312L344.704 160.5L340.881 156.688C340.639 156.446 340.639 156.054 340.881 155.812Z" fill="#FF3030"/>
<g clip-path="url(#clip2_4196_6442)">
<path fill-rule="evenodd" clip-rule="evenodd" d="M38.5 155.036C34.9303 155.036 32.0365 157.93 32.0365 161.5C32.0365 165.07 34.9303 167.964 38.5 167.964C42.0697 167.964 44.9635 165.07 44.9635 161.5C44.9635 157.93 42.0697 155.036 38.5 155.036ZM30.7969 161.5C30.7969 157.246 34.2457 153.797 38.5 153.797C42.7543 153.797 46.2031 157.246 46.2031 161.5C46.2031 165.754 42.7543 169.203 38.5 169.203C34.2457 169.203 30.7969 165.754 30.7969 161.5ZM38.5 158.047C38.8423 158.047 39.1198 158.324 39.1198 158.667V161.5C39.1198 161.842 38.8423 162.12 38.5 162.12C38.1577 162.12 37.8802 161.842 37.8802 161.5V158.667C37.8802 158.324 38.1577 158.047 38.5 158.047ZM37.8802 164.333C37.8802 163.991 38.1577 163.714 38.5 163.714H38.5071C38.8494 163.714 39.1269 163.991 39.1269 164.333C39.1269 164.676 38.8494 164.953 38.5071 164.953H38.5C38.1577 164.953 37.8802 164.676 37.8802 164.333Z" fill="#FF3030"/>
</g>
<text fill="#FF3030" xml:space="preserve" style="white-space: pre" font-family="Ubuntu" font-size="14" letter-spacing="0em"><tspan x="137.494" y="166.201">Ergonomie</tspan></text>
<text fill="#FF3030" xml:space="preserve" style="white-space: pre" font-family="Ubuntu" font-size="14" font-weight="500" letter-spacing="0em"><tspan x="56.1192" y="166.201">[&#xc9;valuation] </tspan></text>
<rect x="15" y="193" width="345" height="67" rx="10" fill="white"/>
<path fill-rule="evenodd" clip-rule="evenodd" d="M343.937 221.812C344.179 221.57 344.571 221.57 344.813 221.812L349.063 226.062C349.305 226.304 349.305 226.696 349.063 226.938L344.813 231.188C344.571 231.43 344.179 231.43 343.937 231.188C343.695 230.946 343.695 230.554 343.937 230.312L347.748 226.5L343.937 222.688C343.695 222.446 343.695 222.054 343.937 221.812Z" fill="#0760FB"/>
<text fill="#0B49C2" xml:space="preserve" style="white-space: pre" font-family="Ubuntu" font-size="13" letter-spacing="0em"><tspan x="65.4386" y="241.33">Finir le sous-titrage</tspan></text>
<text fill="#0F295C" xml:space="preserve" style="white-space: pre" font-family="Ubuntu" font-size="15" font-weight="500" letter-spacing="0em"><tspan x="65.4386" y="221.073">Accessibilit&#xe9;</tspan></text>
<circle cx="43" cy="227" r="11.5" stroke="#0760FB"/>
<rect x="15" y="270" width="345" height="67" rx="10" fill="white"/>
<path fill-rule="evenodd" clip-rule="evenodd" d="M342.937 299.812C343.179 299.57 343.571 299.57 343.813 299.812L348.063 304.062C348.305 304.304 348.305 304.696 348.063 304.938L343.813 309.188C343.571 309.43 343.179 309.43 342.937 309.188C342.695 308.946 342.695 308.554 342.937 308.312L346.748 304.5L342.937 300.688C342.695 300.446 342.695 300.054 342.937 299.812Z" fill="#0760FB"/>
<text fill="#0B49C2" xml:space="preserve" style="white-space: pre" font-family="Ubuntu" font-size="13" letter-spacing="0em" text-decoration="line-through"><tspan x="65.4386" y="318.33">Finir le d&#xe9;coupage technique</tspan></text>
<text fill="#0F295C" xml:space="preserve" style="white-space: pre" font-family="Ubuntu" font-size="15" font-weight="500" letter-spacing="0em" text-decoration="line-through"><tspan x="65.4386" y="298.073">Audiovisuel</tspan></text>
<circle cx="43" cy="304" r="12" fill="#0760FB"/>
<g clip-path="url(#clip3_4196_6442)">
<path d="M49.643 300.073L41.4773 308.238C41.4224 308.293 41.3571 308.337 41.2853 308.367C41.2134 308.397 41.1364 308.412 41.0586 308.412C40.9808 308.412 40.9038 308.397 40.8319 308.367C40.7601 308.337 40.6949 308.293 40.64 308.238L37.4821 305.077C37.4272 305.022 37.362 304.978 37.2901 304.949C37.2183 304.919 37.1413 304.903 37.0635 304.903C36.9857 304.903 36.9086 304.919 36.8368 304.949C36.765 304.978 36.6997 305.022 36.6448 305.077C36.5897 305.132 36.546 305.197 36.5161 305.269C36.4863 305.341 36.4709 305.418 36.4709 305.496C36.4709 305.574 36.4863 305.651 36.5161 305.723C36.546 305.794 36.5897 305.86 36.6448 305.915L39.8038 309.073C40.1371 309.406 40.5887 309.592 41.0595 309.592C41.5303 309.592 41.9819 309.406 42.3152 309.073L50.4804 300.91C50.5354 300.855 50.579 300.789 50.6088 300.718C50.6386 300.646 50.654 300.569 50.654 300.491C50.654 300.413 50.6386 300.337 50.6088 300.265C50.579 300.193 50.5354 300.128 50.4804 300.073C50.4255 300.018 50.3602 299.974 50.2884 299.944C50.2165 299.914 50.1395 299.899 50.0617 299.899C49.9839 299.899 49.9069 299.914 49.835 299.944C49.7632 299.974 49.6979 300.018 49.643 300.073Z" fill="white"/>
</g>
<text fill="#0F295C" xml:space="preserve" style="white-space: pre" font-family="Ubuntu" font-size="15" font-weight="500" letter-spacing="0em"><tspan x="15" y="106.073">Pour demain</tspan></text>
<text fill="#0B49C2" xml:space="preserve" style="white-space: pre" font-family="Ubuntu" font-size="13" letter-spacing="0em"><tspan x="15" y="122.33">Jeu. 07 nov.</tspan></text>
<rect x="287.25" y="94.25" width="71.5" height="25.5" rx="12.75" stroke="#0760FB" stroke-width="0.5"/>
<text fill="#0760FB" xml:space="preserve" style="white-space: pre" font-family="Ubuntu" font-size="12" font-weight="500" letter-spacing="-0.04em"><tspan x="300.404" y="111.458">Voir plus</tspan></text>
<rect x="288.25" y="361.25" width="71.5" height="25.5" rx="12.75" stroke="#0760FB" stroke-width="0.5"/>
<text fill="#0760FB" xml:space="preserve" style="white-space: pre" font-family="Ubuntu" font-size="12" font-weight="500" letter-spacing="-0.04em"><tspan x="301.404" y="378.458">Voir plus</tspan></text>
<text fill="#0B49C2" xml:space="preserve" style="white-space: pre" font-family="Ubuntu" font-size="13" letter-spacing="0em"><tspan x="15" y="387.33">Ouvert de 11h45 &#xe0; 13h30</tspan></text>
<text fill="#0F295C" xml:space="preserve" style="white-space: pre" font-family="Ubuntu" font-size="15" font-weight="500" letter-spacing="0em"><tspan x="15" y="371.073">Menu du Crousty</tspan></text>
<rect x="15" y="404" width="345" height="280" rx="10" fill="white"/>
<text fill="#0F295C" xml:space="preserve" style="white-space: pre" font-family="Ubuntu" font-size="15" letter-spacing="0em"><tspan x="59.5" y="456.073">Panini raclette 4&#x20ac;10&#10;</tspan><tspan x="59.5" y="473.073">Croque monsieur 2&#x20ac;70&#10;</tspan><tspan x="59.5" y="490.073">Omelette aux fines herbes&#10;</tspan><tspan x="59.5" y="507.073">Frites 1&#x20ac;00&#10;</tspan><tspan x="59.5" y="558.073">Curry de l&#xe9;gumes&#10;</tspan><tspan x="59.5" y="609.073">Cuisse de poulet sauce tajine aux fruits </tspan><tspan x="59.5" y="626.073">secs&#10;</tspan><tspan x="59.5" y="643.073">Riz cr&#xe9;ole&#10;</tspan><tspan x="59.5" y="660.073">Haricots verts persill&#xe9;s</tspan></text>
<text fill="#0F295C" xml:space="preserve" style="white-space: pre" font-family="Ubuntu" font-size="15" font-weight="500" letter-spacing="0em"><tspan x="37" y="439.073">Plat&#10;</tspan><tspan x="37" y="524.073">&#10;</tspan><tspan x="37" y="541.073">Plat v&#xe9;g&#xe9;tarien&#10;</tspan><tspan x="37" y="592.073">Plat du jour&#10;</tspan></text>
<text fill="#18313F" xml:space="preserve" style="white-space: pre" font-family="Ubuntu" font-size="15" font-weight="bold" letter-spacing="0em"><tspan x="37" y="575.073">&#10;</tspan></text>
</g>
<path fill-rule="evenodd" clip-rule="evenodd" d="M345 65.9744C343.641 65.9744 342.337 66.5143 341.376 67.4754C340.415 68.4366 339.875 69.7401 339.875 71.0994C339.875 74.7283 339.096 77.1253 338.268 78.6434C338.153 78.8543 338.037 79.0477 337.923 79.2244H352.077C351.963 79.0477 351.847 78.8543 351.732 78.6434C350.904 77.1253 350.125 74.7283 350.125 71.0994C350.125 69.7401 349.585 68.4366 348.624 67.4754C347.663 66.5143 346.359 65.9744 345 65.9744ZM354.486 79.3721L354.488 79.3728L354.489 79.374L354.492 79.3761L354.494 79.3772C354.493 79.3764 354.491 79.3751 354.489 79.3733C354.479 79.3663 354.46 79.3512 354.431 79.3276C354.374 79.2802 354.282 79.1982 354.166 79.0757C353.935 78.8313 353.605 78.4236 353.268 77.8054C352.596 76.5734 351.875 74.4704 351.875 71.0994C351.875 69.276 351.151 67.5273 349.861 66.238C348.572 64.9487 346.823 64.2244 345 64.2244C343.177 64.2244 341.428 64.9487 340.139 66.238C338.849 67.5273 338.125 69.276 338.125 71.0994C338.125 74.4704 337.404 76.5734 336.732 77.8054C336.395 78.4236 336.065 78.8313 335.834 79.0757C335.718 79.1982 335.626 79.2802 335.569 79.3276C335.54 79.3512 335.521 79.3663 335.511 79.3733C335.509 79.3752 335.507 79.3765 335.506 79.3773C335.191 79.5926 335.052 79.9873 335.163 80.3529C335.274 80.722 335.614 80.9744 336 80.9744H354C354.386 80.9744 354.726 80.722 354.837 80.3529C354.948 79.9873 354.809 79.5926 354.494 79.3773C354.492 79.3756 354.489 79.3738 354.486 79.3721ZM342.878 83.3326C343.302 83.0998 343.834 83.2543 344.067 83.6778C344.159 83.8449 344.294 83.9843 344.458 84.0814C344.622 84.1785 344.809 84.2297 345 84.2297C345.191 84.2297 345.378 84.1785 345.542 84.0814C345.706 83.9843 345.841 83.8449 345.933 83.6778C346.166 83.2543 346.698 83.0998 347.122 83.3326C347.545 83.5654 347.7 84.0975 347.467 84.5209C347.224 84.9627 346.867 85.3311 346.433 85.5877C345.999 85.8443 345.504 85.9797 345 85.9797C344.496 85.9797 344.001 85.8443 343.567 85.5877C343.133 85.3311 342.776 84.9627 342.533 84.5209C342.3 84.0975 342.455 83.5654 342.878 83.3326Z" fill="#87A6DD"/>
<text fill="#0F295C" xml:space="preserve" style="white-space: pre" font-family="Ubuntu" font-size="17" font-weight="500" letter-spacing="0em"><tspan x="124.014" y="80.4149">Vue d&#x2019;ensemble</tspan></text>
<path fill-rule="evenodd" clip-rule="evenodd" d="M33.7471 63.0664C34.2862 62.5273 35.0175 62.2244 35.78 62.2244H36.22C36.9825 62.2244 37.7138 62.5273 38.2529 63.0664C38.7921 63.6056 39.095 64.3369 39.095 65.0994V65.2785C39.0952 65.4758 39.1473 65.6695 39.246 65.8403C39.3447 66.0111 39.4867 66.153 39.6575 66.2516L39.6598 66.2529L40.0875 66.5016C40.0878 66.5018 40.0882 66.502 40.0885 66.5022C40.2593 66.6005 40.4529 66.6523 40.65 66.6523C40.8475 66.6523 41.0415 66.6003 41.2125 66.5016C41.221 66.4967 41.2296 66.4919 41.2382 66.4873L41.3765 66.4135C42.0334 66.0395 42.8114 65.939 43.542 66.1344C44.2778 66.3311 44.9054 66.8118 45.2872 67.4708L45.5079 67.8521C45.8885 68.5119 45.9917 69.2956 45.795 70.0314C45.5989 70.7648 45.1207 71.3907 44.465 71.7728L44.3202 71.8597L44.3075 71.8671C44.1358 71.9663 43.9934 72.109 43.8946 72.2809C43.7958 72.4527 43.7442 72.6477 43.745 72.8459L43.745 72.8494L43.745 73.3494L43.745 73.3528C43.7442 73.5511 43.7958 73.746 43.8946 73.9179C43.9913 74.0861 44.1298 74.2264 44.2966 74.3252L44.4318 74.3973C44.4408 74.4021 44.4497 74.4071 44.4586 74.4122C45.1176 74.7939 45.5983 75.4216 45.795 76.1573C45.9913 76.8916 45.8889 77.6737 45.5102 78.3326L45.2921 78.7193L45.2872 78.7279C44.9054 79.387 44.2778 79.8676 43.542 80.0644C42.8114 80.2597 42.0334 80.1593 41.3765 79.7852L41.2382 79.7114C41.2296 79.7068 41.221 79.702 41.2125 79.6971C41.0415 79.5984 40.8475 79.5464 40.65 79.5464C40.4529 79.5464 40.2592 79.5982 40.0884 79.6966C40.0881 79.6968 40.0878 79.697 40.0875 79.6971L39.6598 79.9458L39.6575 79.9471C39.4867 80.0458 39.3447 80.1876 39.246 80.3584C39.1473 80.5292 39.0952 80.723 39.095 80.9203V81.0994C39.095 81.8619 38.7921 82.5931 38.2529 83.1323C37.7138 83.6715 36.9825 83.9744 36.22 83.9744H35.78C35.0175 83.9744 34.2862 83.6715 33.7471 83.1323C33.2079 82.5931 32.905 81.8619 32.905 81.0994L32.905 80.9203C32.905 80.9201 32.905 80.9204 32.905 80.9203C32.9047 80.7231 32.8527 80.5291 32.754 80.3584C32.6553 80.1876 32.5134 80.0458 32.3425 79.9471L32.3402 79.9458L31.9125 79.6971C31.9122 79.697 31.9119 79.6968 31.9116 79.6966C31.7408 79.5982 31.5471 79.5464 31.35 79.5464C31.1525 79.5464 30.9585 79.5984 30.7875 79.6971C30.779 79.702 30.7704 79.7068 30.7618 79.7114L30.6235 79.7852C29.9666 80.1593 29.1886 80.2597 28.458 80.0644C27.7222 79.8676 27.0946 79.387 26.7128 78.7279L26.4921 78.3466C26.1115 77.6869 26.0083 76.9031 26.205 76.1673C26.4011 75.4339 26.8793 74.808 27.5351 74.4259L27.6798 74.3391L27.6925 74.3316C27.8642 74.2325 28.0066 74.0897 28.1054 73.9179C28.2042 73.746 28.2558 73.5511 28.255 73.3528L28.255 73.3494V72.8424C28.2534 72.6468 28.2009 72.4551 28.1026 72.286C28.0039 72.1163 27.8626 71.9753 27.6925 71.8771C27.6762 71.8678 27.6603 71.8578 27.6446 71.8474L27.5155 71.7613C26.8698 71.3782 26.3992 70.7575 26.205 70.0314C26.0083 69.2956 26.1115 68.5119 26.4921 67.8521L26.7128 67.471C27.0945 66.8119 27.7222 66.3311 28.458 66.1344C29.1886 65.939 29.9666 66.0394 30.6235 66.4135L30.7618 66.4873C30.7704 66.4919 30.779 66.4967 30.7875 66.5016C30.9585 66.6003 31.1525 66.6523 31.35 66.6523C31.5471 66.6523 31.7407 66.6005 31.9115 66.5022C31.9118 66.502 31.9122 66.5018 31.9125 66.5016L32.3425 66.2516C32.5134 66.1529 32.6553 66.0111 32.754 65.8403C32.8527 65.6696 32.9047 65.476 32.905 65.2789C32.905 65.2787 32.905 65.279 32.905 65.2789V65.0994C32.905 64.3369 33.2079 63.6056 33.7471 63.0664ZM35.78 63.9744C35.4816 63.9744 35.1955 64.0929 34.9845 64.3039C34.7735 64.5148 34.655 64.801 34.655 65.0994V65.2803C34.6545 65.7844 34.5214 66.2796 34.2691 66.7161C34.017 67.1522 33.6548 67.5143 33.2188 67.7664C33.2184 67.7666 33.2179 67.7669 33.2175 67.7671L32.7875 68.0171C32.3505 68.2695 31.8547 68.4023 31.35 68.4023C30.8507 68.4023 30.3601 68.2723 29.9264 68.0251L29.7882 67.9514C29.7797 67.9469 29.7712 67.9421 29.7628 67.9373C29.5046 67.7884 29.1979 67.748 28.91 67.825C28.6222 67.9019 28.3766 68.09 28.2273 68.3478C28.2272 68.3478 28.2273 68.3477 28.2273 68.3478L28.0079 68.7266C28.0079 68.7267 28.0078 68.7269 28.0077 68.727C27.859 68.9851 27.8187 69.2916 27.8956 69.5793C27.9726 69.8672 28.1607 70.1128 28.4186 70.2622C28.4345 70.2714 28.4501 70.2811 28.4654 70.2913L28.594 70.3771C29.0167 70.6272 29.3685 70.9815 29.6155 71.4064C29.8677 71.8402 30.002 72.3324 30.005 72.8341L30.005 72.8394L30.005 73.3478C30.0067 73.8537 29.8748 74.3512 29.6227 74.7899C29.3716 75.2268 29.0101 75.59 28.5744 75.8431L28.4302 75.9297L28.4186 75.9365C28.1607 76.0859 27.9726 76.3315 27.8956 76.6194C27.8187 76.9071 27.859 77.2137 28.0077 77.4717C28.0076 77.4716 28.0078 77.4719 28.0077 77.4717L28.2272 77.8508C28.2271 77.8508 28.2272 77.8509 28.2272 77.8508C28.3765 78.1086 28.6222 78.2968 28.91 78.3738C29.1979 78.4507 29.5046 78.4103 29.7628 78.2614C29.7712 78.2566 29.7797 78.2519 29.7882 78.2473L29.9264 78.1736C30.3601 77.9265 30.8507 77.7964 31.35 77.7964C31.8547 77.7964 32.3505 77.9293 32.7875 78.1816L32.7898 78.1829L33.2175 78.4316C33.2179 78.4318 33.2183 78.432 33.2187 78.4323C33.6548 78.6843 34.017 79.0465 34.2691 79.4826C34.5214 79.9191 34.6545 80.4143 34.655 80.9185L34.655 80.9194L34.655 81.0994C34.655 81.3977 34.7735 81.6839 34.9845 81.8949C35.1955 82.1058 35.4816 82.2244 35.78 82.2244H36.22C36.5184 82.2244 36.8045 82.1058 37.0155 81.8949C37.2265 81.6839 37.345 81.3977 37.345 81.0994V80.9185C37.3455 80.4143 37.4786 79.9191 37.7309 79.4826C37.983 79.0465 38.3453 78.6843 38.7814 78.4322C38.7818 78.432 38.7821 78.4318 38.7825 78.4316L39.2102 78.1829L39.2125 78.1816C39.6496 77.9293 40.1453 77.7964 40.65 77.7964C41.1493 77.7964 41.6399 77.9265 42.0736 78.1736L42.2118 78.2473C42.2203 78.2519 42.2288 78.2566 42.2372 78.2614C42.4954 78.4103 42.8021 78.4507 43.09 78.3738C43.3765 78.2971 43.6211 78.1105 43.7707 77.8546L43.9879 77.4695L43.9921 77.4621C44.141 77.204 44.1814 76.8973 44.1044 76.6094C44.0285 76.3257 43.8448 76.0831 43.5928 75.9332L43.4582 75.8614C43.4496 75.8568 43.441 75.852 43.4325 75.8471C42.9938 75.5938 42.6298 75.2291 42.3773 74.7899C42.1252 74.3512 41.9933 73.8537 41.995 73.3477V72.851C41.9933 72.345 42.1252 71.8476 42.3773 71.4089C42.6284 70.972 42.9899 70.6088 43.4255 70.3556L43.5698 70.2691L43.5814 70.2622C43.8393 70.1128 44.0274 69.8672 44.1044 69.5793C44.1814 69.2914 44.141 68.9847 43.9921 68.7266L43.7728 68.3479C43.6235 68.09 43.3779 67.902 43.09 67.825C42.8021 67.748 42.4954 67.7884 42.2372 67.9373C42.2288 67.9421 42.2203 67.9469 42.2118 67.9514L42.0736 68.0251C41.6399 68.2723 41.1493 68.4023 40.65 68.4023C40.1453 68.4023 39.6496 68.2695 39.2125 68.0171L39.2102 68.0158L38.7825 67.7671C38.7821 67.7669 38.7817 67.7667 38.7813 67.7664C38.3452 67.5144 37.983 67.1522 37.7309 66.7161C37.4786 66.2796 37.3455 65.7844 37.345 65.2803V65.0994C37.345 64.801 37.2265 64.5148 37.0155 64.3039C36.8045 64.0929 36.5184 63.9744 36.22 63.9744H35.78ZM36 70.9744C34.8264 70.9744 33.875 71.9258 33.875 73.0994C33.875 74.273 34.8264 75.2244 36 75.2244C37.1736 75.2244 38.125 74.273 38.125 73.0994C38.125 71.9258 37.1736 70.9744 36 70.9744ZM32.125 73.0994C32.125 70.9593 33.8599 69.2244 36 69.2244C38.1401 69.2244 39.875 70.9593 39.875 73.0994C39.875 75.2395 38.1401 76.9744 36 76.9744C33.8599 76.9744 32.125 75.2395 32.125 73.0994Z" fill="#87A6DD"/>
<rect width="375" height="105" transform="translate(0 707)" fill="white"/>
<g clip-path="url(#clip4_4196_6442)">
<path d="M59.125 748.875V740.542C59.125 740.265 59.0153 740 58.8199 739.805C58.6246 739.61 58.3596 739.5 58.0833 739.5H53.9167C53.6404 739.5 53.3754 739.61 53.1801 739.805C52.9847 740 52.875 740.265 52.875 740.542V748.875" stroke="#0760FB" stroke-width="1.5" stroke-linecap="round" stroke-linejoin="round"/>
<path d="M46.625 737.417C46.6249 737.114 46.691 736.814 46.8185 736.539C46.9461 736.264 47.1321 736.021 47.3635 735.825L54.6552 729.576C55.0312 729.258 55.5077 729.084 56 729.084C56.4923 729.084 56.9688 729.258 57.3448 729.576L64.6365 735.825C64.8679 736.021 65.0539 736.264 65.1815 736.539C65.309 736.814 65.3751 737.114 65.375 737.417V746.792C65.375 747.344 65.1555 747.874 64.7648 748.265C64.3741 748.655 63.8442 748.875 63.2917 748.875H48.7083C48.1558 748.875 47.6259 748.655 47.2352 748.265C46.8445 747.874 46.625 747.344 46.625 746.792V737.417Z" stroke="#0760FB" stroke-width="1.5" stroke-linecap="round" stroke-linejoin="round"/>
<text fill="#0760FB" xml:space="preserve" style="white-space: pre" font-family="Ubuntu" font-size="12" font-weight="500" letter-spacing="-0.04em"><tspan x="37.3951" y="767.458">Accueil</tspan></text>
</g>
<path d="M138.333 729.083V733.25" stroke="#87A6DD" stroke-width="1.5" stroke-linecap="round" stroke-linejoin="round"/>
<path d="M146.667 729.083V733.25" stroke="#87A6DD" stroke-width="1.5" stroke-linecap="round" stroke-linejoin="round"/>
<path d="M149.792 731.167H135.208C134.058 731.167 133.125 732.099 133.125 733.25V747.833C133.125 748.984 134.058 749.917 135.208 749.917H149.792C150.942 749.917 151.875 748.984 151.875 747.833V733.25C151.875 732.099 150.942 731.167 149.792 731.167Z" stroke="#87A6DD" stroke-width="1.5" stroke-linecap="round" stroke-linejoin="round"/>
<path d="M133.125 737.417H151.875" stroke="#87A6DD" stroke-width="1.5" stroke-linecap="round" stroke-linejoin="round"/>
<text fill="#87A6DD" xml:space="preserve" style="white-space: pre" font-family="Ubuntu" font-size="12" font-weight="500" letter-spacing="-0.04em"><tspan x="131.783" y="767.458">EDT</tspan></text>
<g clip-path="url(#clip5_4196_6442)">
<path d="M230 749.917C235.753 749.917 240.417 745.253 240.417 739.5C240.417 733.747 235.753 729.083 230 729.083C224.247 729.083 219.583 733.747 219.583 739.5C219.583 745.253 224.247 749.917 230 749.917Z" stroke="#87A6DD" stroke-width="1.5" stroke-linecap="round" stroke-linejoin="round"/>
<path d="M226.875 739.5L228.958 741.583L233.125 737.417" stroke="#87A6DD" stroke-width="1.5" stroke-linecap="round" stroke-linejoin="round"/>
<text fill="#87A6DD" xml:space="preserve" style="white-space: pre" font-family="Ubuntu" font-size="12" font-weight="500" letter-spacing="-0.04em"><tspan x="210.165" y="767.458">Devoirs</tspan></text>
</g>
<path d="M328.333 731.167H311.667C310.516 731.167 309.583 732.099 309.583 733.25V745.75C309.583 746.901 310.516 747.833 311.667 747.833H328.333C329.484 747.833 330.417 746.901 330.417 745.75V733.25C330.417 732.099 329.484 731.167 328.333 731.167Z" stroke="#87A6DD" stroke-width="1.5" stroke-linecap="round" stroke-linejoin="round"/>
<path d="M330.417 734.292L321.073 740.229C320.751 740.431 320.379 740.537 320 740.537C319.62 740.537 319.249 740.431 318.927 740.229L309.583 734.292" stroke="#87A6DD" stroke-width="1.5" stroke-linecap="round" stroke-linejoin="round"/>
<text fill="#87A6DD" xml:space="preserve" style="white-space: pre" font-family="Ubuntu" font-size="12" font-weight="500" letter-spacing="-0.04em"><tspan x="306.271" y="767.458">Mails</tspan></text>
<path d="M0 790H375V812H0V790Z" fill="white"/>
<rect width="139" height="5" rx="2.5" transform="matrix(-1 0 0 1 257 799)" fill="#0F295C"/>
<text fill="#0F295C" xml:space="preserve" style="white-space: pre" font-family="Ubuntu" font-size="15.0682" font-weight="500" letter-spacing="-0.04em"><tspan x="28" y="28.2797">14:16</tspan></text>
<g clip-path="url(#clip6_4196_6442)">
<rect x="309.083" y="16.9773" width="2.83636" height="10.6364" rx="0.886364" fill="#0F295C"/>
<rect x="304.385" y="19.1045" width="2.83636" height="8.50909" rx="0.886364" fill="#0F295C"/>
<rect x="299.688" y="21.4089" width="2.83636" height="6.20455" rx="0.886364" fill="#0F295C"/>
<rect x="294.99" y="23.5364" width="2.83636" height="4.07727" rx="0.886364" fill="#0F295C"/>
</g>
<g clip-path="url(#clip7_4196_6442)">
<path d="M323.848 24.073C324.472 24.073 325.078 24.2368 325.612 24.5493L325.828 24.6758C325.992 24.7718 326.021 24.9964 325.886 25.1305L324.039 26.9721C323.926 27.0852 323.742 27.0852 323.629 26.9721L321.794 25.1423C321.66 25.0088 321.688 24.7854 321.85 24.6887L322.064 24.5615C322.603 24.2412 323.217 24.073 323.848 24.073Z" fill="#0F295C"/>
<path d="M323.848 20.6899C325.399 20.6899 326.889 21.2045 328.102 22.1574L328.273 22.292C328.41 22.3994 328.422 22.6017 328.299 22.7244L327.196 23.8239C327.094 23.9256 326.933 23.9372 326.817 23.8513L326.683 23.7514C325.864 23.1424 324.876 22.8158 323.848 22.8158C322.815 22.8158 321.821 23.1465 320.999 23.7625L320.864 23.8633C320.749 23.9499 320.587 23.9385 320.484 23.8365L319.382 22.7375C319.259 22.615 319.271 22.4132 319.407 22.3057L319.578 22.1709C320.794 21.2095 322.29 20.6899 323.848 20.6899Z" fill="#0F295C"/>
<path d="M323.848 17.3069C326.31 17.3069 328.664 18.1752 330.527 19.7668L330.686 19.9026C330.815 20.0124 330.822 20.2081 330.703 20.3274L329.604 21.4233C329.497 21.5295 329.327 21.5369 329.212 21.4404L329.076 21.3266C327.609 20.1 325.77 19.4327 323.848 19.4327C321.92 19.4327 320.076 20.1046 318.606 21.3389L318.47 21.4533C318.355 21.5502 318.184 21.5429 318.078 21.4366L316.979 20.3409C316.86 20.2217 316.867 20.0263 316.995 19.9164L317.153 19.7805C319.019 18.1804 321.38 17.3069 323.848 17.3069Z" fill="#0F295C"/>
</g>
<rect x="337" y="18.5112" width="18.6136" height="7.97727" rx="1.17886" fill="#0F295C"/>
<path opacity="0.4" fill-rule="evenodd" clip-rule="evenodd" d="M340.191 17.6249H352.423C353.306 17.6249 353.915 17.6256 354.388 17.6642C354.851 17.702 355.104 17.7716 355.29 17.8664C355.707 18.0789 356.046 18.4178 356.259 18.8348C356.353 19.0208 356.423 19.2743 356.461 19.7368C356.499 20.2096 356.5 20.8188 356.5 21.7022V23.2976C356.5 24.181 356.499 24.7902 356.461 25.263C356.423 25.7255 356.353 25.979 356.259 26.165C356.046 26.5819 355.707 26.9209 355.29 27.1334C355.104 27.2282 354.851 27.2978 354.388 27.3356C353.915 27.3742 353.306 27.3749 352.423 27.3749H340.191C339.308 27.3749 338.698 27.3742 338.226 27.3356C337.763 27.2978 337.51 27.2282 337.324 27.1334C336.907 26.9209 336.568 26.5819 336.355 26.165C336.26 25.979 336.191 25.7255 336.153 25.263C336.114 24.7902 336.114 24.181 336.114 23.2976V21.7022C336.114 20.8188 336.114 20.2096 336.153 19.7368C336.191 19.2743 336.26 19.0208 336.355 18.8348C336.568 18.4178 336.907 18.0789 337.324 17.8664C337.51 17.7716 337.763 17.702 338.226 17.6642C338.698 17.6256 339.308 17.6249 340.191 17.6249ZM335.227 21.7022C335.227 19.9647 335.227 19.096 335.565 18.4324C335.863 17.8487 336.337 17.3741 336.921 17.0767C337.585 16.7385 338.453 16.7385 340.191 16.7385H352.423C354.16 16.7385 355.029 16.7385 355.693 17.0767C356.276 17.3741 356.751 17.8487 357.048 18.4324C357.386 19.096 357.386 19.9647 357.386 21.7022V23.2976C357.386 25.0351 357.386 25.9038 357.048 26.5674C356.751 27.1511 356.276 27.6257 355.693 27.9231C355.029 28.2613 354.16 28.2613 352.423 28.2613H340.191C338.453 28.2613 337.585 28.2613 336.921 27.9231C336.337 27.6257 335.863 27.1511 335.565 26.5674C335.227 25.9038 335.227 25.0351 335.227 23.2976V21.7022ZM358.273 24.2726C359.007 24.0953 359.602 23.4789 359.602 22.4999C359.602 21.5208 359.007 20.9044 358.273 20.7272L358.273 22.4999L358.273 24.2726Z" fill="#0F295C"/>
</g>
<defs>
<clipPath id="clip0_4196_6442">
<rect width="375" height="812" fill="white"/>
</clipPath>
<clipPath id="clip1_4196_6442">
<rect width="345" height="584" fill="white" transform="translate(15 100)"/>
</clipPath>
<clipPath id="clip2_4196_6442">
<rect width="17" height="17" fill="white" transform="translate(30 153)"/>
</clipPath>
<clipPath id="clip3_4196_6442">
<rect width="14.1818" height="14.1818" fill="white" transform="translate(36.4545 297.455)"/>
</clipPath>
<clipPath id="clip4_4196_6442">
<rect width="38" height="43" fill="white" transform="translate(37 727)"/>
</clipPath>
<clipPath id="clip5_4196_6442">
<rect width="40" height="43" fill="white" transform="translate(210 727)"/>
</clipPath>
<clipPath id="clip6_4196_6442">
<rect width="17.7273" height="12.4091" fill="white" transform="translate(294.455 16.2954)"/>
</clipPath>
<clipPath id="clip7_4196_6442">
<rect width="17.7273" height="10.6364" fill="white" transform="translate(314.841 17.1819)"/>
</clipPath>
</defs>
</svg>
