<svg width="31" height="31" viewBox="0 0 31 31" fill="none" xmlns="http://www.w3.org/2000/svg">
<path d="M1.81626 28.1999C5.16662 31.4235 12.608 31.048 16.5437 30.1892C17.3849 30.0057 18.0336 29.0767 17.8257 28.2326C17.2495 25.9002 15.2312 24.5227 14.098 22.514C13.7032 21.8136 13.3455 21.0919 12.996 20.3648C14.8635 18.6336 16.7027 16.8703 18.5323 15.1011C20.8149 12.8934 23.0184 10.604 25.0687 8.17924C27.0183 5.87416 28.3656 3.22068 30.1888 0.843876C30.5545 0.366572 29.8581 -0.114428 29.4366 0.222538C28.3317 1.10607 27.5726 2.16067 26.6991 3.25821C25.6223 4.61174 24.4108 5.87357 23.2275 7.13516C21.1351 9.36597 18.9033 11.4613 16.6108 13.4847C14.9877 14.9175 13.359 16.3476 11.7124 17.7548C11.1766 16.737 10.584 15.7535 9.84544 14.8566C8.79902 13.5851 7.21542 12.5308 5.51029 13.3497C3.95185 14.098 3.26544 15.9871 2.58673 17.4352C1.61065 19.517 0.142146 21.4796 0.106349 23.8416C0.0780093 25.7403 0.733453 27.158 1.81626 28.1999Z" fill="#87A6DD"/>
</svg>
