<svg width="36" height="25" viewBox="0 0 36 25" fill="none" xmlns="http://www.w3.org/2000/svg">
<path d="M34.0376 21.2183C36.3585 17.1896 34.2 10.0582 32.4177 6.44562C32.0368 5.67356 30.9789 5.26793 30.2098 5.67321C28.0851 6.79473 27.2348 9.08558 25.5585 10.6696C24.974 11.2216 24.3598 11.7427 23.7384 12.2572C21.608 10.8622 19.4534 9.50237 17.2952 8.15323C14.6024 6.47024 11.8493 4.8836 9.00171 3.47839C6.2946 2.14203 3.39457 1.47417 0.648325 0.277746C0.0969362 0.0379098 -0.201974 0.829772 0.226655 1.15754C1.35051 2.01686 2.55702 2.49934 3.83277 3.08246C5.40599 3.80125 6.92266 4.67274 8.43232 5.517C11.1018 7.00992 13.6733 8.67066 16.1898 10.4078C17.9716 11.6376 19.7522 12.8734 21.5148 14.1322C20.6563 14.8976 19.8446 15.7098 19.1522 16.6428C18.1705 17.9649 17.5291 19.756 18.7349 21.2134C19.8369 22.5454 21.8357 22.7562 23.4048 23.0658C25.6605 23.5112 27.9192 24.4632 30.2201 23.9285C32.0697 23.4982 33.2875 22.5204 34.0376 21.2183Z" fill="#87A6DD"/>
</svg>
