<svg width="1280" height="831" viewBox="0 0 1280 831" fill="none" xmlns="http://www.w3.org/2000/svg">
<g opacity="0.07">
<line x1="-1" y1="30.5015" x2="1279" y2="30.5014" stroke="#0F4199"/>
<line x1="-1" y1="80.5015" x2="1279" y2="80.5014" stroke="#0F4199"/>
<line x1="-1" y1="130.502" x2="1279" y2="130.502" stroke="#0F4199"/>
<line x1="-1" y1="180.502" x2="1279" y2="180.502" stroke="#0F4199"/>
<line x1="-1" y1="230.502" x2="1279" y2="230.502" stroke="#0F4199"/>
<line x1="-1" y1="280.502" x2="1279" y2="280.502" stroke="#0F4199"/>
<line x1="-1" y1="330.502" x2="1279" y2="330.502" stroke="#0F4199"/>
<line x1="-1" y1="380.502" x2="1279" y2="380.502" stroke="#0F4199"/>
<line x1="-1" y1="430.502" x2="1279" y2="430.502" stroke="#0F4199"/>
<line x1="-1" y1="480.502" x2="1279" y2="480.502" stroke="#0F4199"/>
<line x1="-1" y1="530.503" x2="1279" y2="530.503" stroke="#0F4199"/>
<line x1="-1" y1="580.503" x2="1279" y2="580.503" stroke="#0F4199"/>
<line x1="-1" y1="630.503" x2="1279" y2="630.503" stroke="#0F4199"/>
<line x1="-1" y1="680.503" x2="1279" y2="680.503" stroke="#0F4199"/>
<line x1="-1" y1="730.503" x2="1279" y2="730.503" stroke="#0F4199"/>
<line x1="-1" y1="780.503" x2="1279" y2="780.503" stroke="#0F4199"/>
<line x1="-1" y1="830.503" x2="1279" y2="830.503" stroke="#0F4199"/>
<line x1="38.499" y1="831" x2="38.4989" y2="-449" stroke="#0F4199"/>
<line x1="88.499" y1="831" x2="88.4989" y2="-449" stroke="#0F4199"/>
<line x1="138.499" y1="831" x2="138.499" y2="-449" stroke="#0F4199"/>
<line x1="188.499" y1="831" x2="188.499" y2="-449" stroke="#0F4199"/>
<line x1="238.5" y1="831" x2="238.499" y2="-449" stroke="#0F4199"/>
<line x1="288.5" y1="831" x2="288.499" y2="-449" stroke="#0F4199"/>
<line x1="338.5" y1="831" x2="338.499" y2="-449" stroke="#0F4199"/>
<line x1="388.5" y1="831" x2="388.499" y2="-449" stroke="#0F4199"/>
<line x1="438.5" y1="831" x2="438.5" y2="-449" stroke="#0F4199"/>
<line x1="488.5" y1="831" x2="488.5" y2="-449" stroke="#0F4199"/>
<line x1="538.5" y1="831" x2="538.5" y2="-449" stroke="#0F4199"/>
<line x1="588.5" y1="831" x2="588.5" y2="-449" stroke="#0F4199"/>
<line x1="638.5" y1="831" x2="638.5" y2="-449" stroke="#0F4199"/>
<line x1="688.5" y1="831" x2="688.5" y2="-449" stroke="#0F4199"/>
<line x1="738.5" y1="831" x2="738.5" y2="-449" stroke="#0F4199"/>
<line x1="788.5" y1="831" x2="788.5" y2="-449" stroke="#0F4199"/>
<line x1="838.501" y1="831" x2="838.501" y2="-449" stroke="#0F4199"/>
<line x1="888.501" y1="831" x2="888.501" y2="-449" stroke="#0F4199"/>
<line x1="938.501" y1="831" x2="938.501" y2="-449" stroke="#0F4199"/>
<line x1="988.501" y1="831" x2="988.501" y2="-449" stroke="#0F4199"/>
<line x1="1038.5" y1="831" x2="1038.5" y2="-449" stroke="#0F4199"/>
<line x1="1088.5" y1="831" x2="1088.5" y2="-449" stroke="#0F4199"/>
<line x1="1138.5" y1="831" x2="1138.5" y2="-449" stroke="#0F4199"/>
<line x1="1188.5" y1="831" x2="1188.5" y2="-449" stroke="#0F4199"/>
<line x1="1238.5" y1="831" x2="1238.5" y2="-449" stroke="#0F4199"/>
</g>
</svg>
