<?xml version="1.0" encoding="UTF-8"?>
<svg xmlns="http://www.w3.org/2000/svg" version="1.1" viewBox="0 0 322 417">
  <defs>
    <style>
      .cls-1, .cls-2 {
        fill: #87a6dd;
      }

      .cls-2 {
        fill-rule: evenodd;
        isolation: isolate;
        opacity: .3;
      }
    </style>
  </defs>
  <!-- Generator: Adobe Illustrator 28.7.3, SVG Export Plug-In . SVG Version: 1.2.0 Build 164)  -->
  <g>
    <g id="Calque_1">
      <path className="cls-2" d="M143,106.2c7.1-4.6,13.6-6.2,18.8-3.6,5.2,2.6,7.9,8.7,8.5,17.1.7,8.4-.6,19.4-3.5,31.8-5.7,24.9-17.5,55.9-31.9,85.7-14.4,29.7-31.5,58.2-47.7,77.9-8.1,9.8-16,17.5-23.3,22.1-7.3,4.5-14,6-19.7,3.2-5.7-2.8-8.6-9-9.5-17.5-.8-8.5.5-19.5,3.3-31.9,5.8-24.8,18.1-55.7,33-85.2,14.9-29.6,32.4-57.8,48.8-77.5,8.2-9.8,16.1-17.5,23.2-22.1ZM35.5,322.8c.8,8.4,3.7,14.3,9,16.9,5.3,2.6,11.8,1.3,19-3.2,7.2-4.5,15-12.1,23.1-21.9,16.2-19.6,33.2-48,47.6-77.8,14.4-29.7,26.2-60.7,31.8-85.5,2.8-12.4,4.1-23.2,3.5-31.6-.7-8.4-3.3-14.1-8.1-16.5-4.8-2.4-11-1-18,3.6-7,4.5-14.9,12.2-23,21.9-16.3,19.6-33.8,47.8-48.7,77.3-14.9,29.5-27.1,60.3-32.9,85.1-2.9,12.4-4.2,23.2-3.3,31.6Z"/>
      <path className="cls-1" d="M196.3,36.7c-30.5-14.8-163.7,261.6-135.8,275.3,27.9,13.7,166.3-260.6,135.8-275.3Z"/>
      <path className="cls-2" d="M268.9,295.1c5.7,3.1,9.6,7.6,11,13.8,1.4,6.1-.2,12.1-3.9,17.8-3.7,5.7-9.6,11.2-17,16.2-14.8,10.1-35.6,18.5-57,24.2-21.4,5.6-43.5,8.3-60.8,6.9-8.7-.7-16.2-2.5-21.8-5.4-5.7-3-9.5-7.2-10.7-12.8-1.2-5.6.4-11.3,4.2-16.9,3.8-5.5,9.7-11,17.1-16,14.8-10.2,35.4-19.2,56.7-25.3,21.3-6.1,43.2-9.3,60.5-8,8.6.6,16.2,2.4,21.9,5.5ZM113.4,339.4c-3.7,5.4-5.3,10.9-4.1,16.3,1.2,5.3,4.8,9.4,10.3,12.3,5.5,2.9,12.9,4.6,21.5,5.3,17.2,1.4,39.2-1.3,60.5-6.9,21.4-5.6,42-14,56.7-24,7.4-5,13.2-10.4,16.8-16,3.6-5.6,5.1-11.4,3.8-17.2-1.3-5.8-5-10.2-10.6-13.3-5.6-3.1-12.9-4.8-21.5-5.5-17.2-1.3-39,2-60.2,8-21.2,6.1-41.8,15-56.5,25.1-7.3,5.1-13.2,10.4-16.9,15.9Z"/>
      <path className="cls-1" d="M60.5,367.3c7.4,33,204.5-24.3,197.9-54.6-6.7-30.3-205.3,21.6-197.9,54.6Z"/>
      <path className="cls-2" d="M215.6,183.8c-19.5,0-35.2,15.8-35.2,35.2s15.8,35.2,35.2,35.2,35.2-15.8,35.2-35.2-15.8-35.2-35.2-35.2ZM179.8,219c0-19.8,16-35.9,35.9-35.9s35.8,16,35.8,35.9-16,35.8-35.8,35.8-35.9-16-35.9-35.8Z"/>
      <path className="cls-1" d="M223.1,240.8c17,0,30.7-13.7,30.7-30.7s-13.7-30.7-30.7-30.7-30.7,13.7-30.7,30.7,13.7,30.7,30.7,30.7Z"/>
    </g>
  </g>
</svg>