<?xml version="1.0" encoding="UTF-8"?>
<svg id="Calque_1" xmlns="http://www.w3.org/2000/svg" version="1.1" viewBox="0 0 208.3 299">
  <!-- Generator: Adobe Illustrator 29.1.0, SVG Export Plug-In . SVG Version: 2.1.0 Build 142)  -->
  <defs>
    <style>
      .st0, .st1 {
        fill: #0760fb;
      }

      .st1 {
        fill-rule: evenodd;
        isolation: isolate;
        opacity: .3;
      }
    </style>
  </defs>
  <path className="st1" d="M93.1,65.2c5.8-3.9,11-5.2,15.3-3,4.2,2.2,6.4,7.3,6.9,14.3.5,7.1-.5,16.2-2.8,26.7-4.6,20.9-14.2,46.9-25.9,71.9-11.7,25-25.6,48.8-38.8,65.3-6.6,8.3-13,14.7-18.9,18.5-5.9,3.8-11.4,5-16,2.7-4.6-2.3-7-7.5-7.7-14.7-.7-7.1.4-16.3,2.7-26.7,4.7-20.8,14.7-46.7,26.8-71.5,12.1-24.8,26.4-48.5,39.6-65,6.6-8.2,13-14.7,18.8-18.5ZM5.8,246.9c.7,7.1,3,12,7.3,14.2,4.3,2.2,9.6,1.1,15.4-2.7,5.8-3.8,12.2-10.1,18.8-18.4,13.1-16.5,27-40.3,38.7-65.2,11.7-24.9,21.3-50.9,25.9-71.7,2.3-10.4,3.4-19.5,2.8-26.5-.5-7-2.7-11.8-6.6-13.8-3.9-2-8.9-.8-14.6,3-5.7,3.8-12.1,10.2-18.7,18.4-13.2,16.4-27.5,40.1-39.5,64.8-12.1,24.8-22,50.6-26.7,71.3-2.3,10.4-3.4,19.5-2.7,26.5Z"/>
  <path className="st0" d="M136.4,7C111.6-5.4,3.4,226.4,26,237.9,48.7,249.4,161.1,19.3,136.4,7Z"/>
  <path className="st1" d="M195.4,223.7c4.6,2.6,7.8,6.4,8.9,11.5,1.1,5.1-.2,10.1-3.2,14.9-3,4.8-7.8,9.4-13.8,13.6-12,8.5-28.9,15.6-46.3,20.3-17.4,4.7-35.3,7-49.4,5.8-7-.6-13.1-2.1-17.7-4.5-4.6-2.5-7.7-6-8.7-10.7-1-4.7.3-9.5,3.4-14.1,3.1-4.6,7.9-9.2,13.9-13.5,12-8.6,28.8-16.1,46-21.2,17.3-5.1,35.1-7.8,49.1-6.7,7,.5,13.1,2,17.8,4.7ZM69.1,260.8c-3,4.6-4.3,9.1-3.3,13.6,1,4.5,3.9,7.9,8.4,10.3,4.5,2.4,10.5,3.9,17.5,4.5,14,1.2,31.8-1.1,49.2-5.8,17.3-4.7,34.2-11.8,46.1-20.2,6-4.2,10.7-8.7,13.7-13.4,3-4.7,4.2-9.5,3.1-14.4-1.1-4.9-4.1-8.5-8.6-11.1-4.5-2.6-10.5-4-17.5-4.6-13.9-1.1-31.7,1.6-48.9,6.7-17.2,5.1-34,12.6-45.9,21.1-6,4.3-10.7,8.7-13.7,13.3Z"/>
  <path className="st0" d="M26.1,284.2c6,27.7,166.1-20.4,160.7-45.8-5.4-25.4-166.7,18.1-160.7,45.8Z"/>
  <path className="st1" d="M152.1,130.3c-15.8,0-28.6,13.2-28.6,29.5s12.8,29.5,28.6,29.5,28.6-13.2,28.6-29.5-12.8-29.5-28.6-29.5ZM123,159.8c0-16.6,13-30.1,29.1-30.1s29.1,13.5,29.1,30.1-13,30.1-29.1,30.1-29.1-13.5-29.1-30.1Z"/>
  <path className="st0" d="M158.2,178.1c13.8,0,24.9-11.5,24.9-25.7s-11.2-25.7-24.9-25.7-24.9,11.5-24.9,25.7,11.2,25.7,24.9,25.7Z"/>
</svg>