<svg width="25" height="15" viewBox="0 0 25 15" fill="none" xmlns="http://www.w3.org/2000/svg">
<g clip-path="url(#clip0_4368_13793)">
<path d="M12.7856 4.09864C12.3879 3.05283 12.7191 1.85075 13.6064 1.20619C14.3945 0.633653 15.5451 0.104492 17.1066 0.104492C20.5094 0.104492 21.8533 2.33709 22.0951 2.77671C22.3372 3.21633 22.8533 4.14007 22.8533 6.57371V12.8625C22.8533 13.3079 22.7424 13.7487 22.5148 14.1265C22.2595 14.5506 21.8324 14.9744 21.1441 14.9744C19.7678 14.9744 19.0571 13.6866 19.0571 12.9172V6.35598C19.0571 5.74868 18.8621 5.15307 18.4821 4.6912C18.1889 4.33499 17.6219 4.03357 17.0485 4.03357C15.6723 4.03357 14.8228 4.85804 14.8228 6.68327C14.8228 7.71934 13.3688 5.6319 12.7853 4.09808L12.7856 4.09864Z" fill="#BBCBE9"/>
<path d="M4.62988 2.09873C4.62988 2.09873 6.23298 0.0888672 8.89446 0.0888672C11.5559 0.0888672 13.3256 2.05174 13.5372 2.33425C13.749 2.61677 14.8227 3.99876 14.8227 5.72583V12.8466C14.8227 13.4269 14.6151 13.9933 14.2212 14.4048C13.9461 14.6921 13.565 14.9273 13.0532 14.9273C11.7375 14.9273 10.9512 13.8754 10.9512 12.6347V6.3918C10.9512 5.87181 10.8149 5.35795 10.5388 4.92416C10.2525 4.47397 9.78545 4.04547 9.04577 4.04547C7.4882 4.04547 6.77904 5.11325 6.78306 6.20077C6.78708 7.28828 4.62988 2.09818 4.62988 2.09818V2.09873Z" fill="#A7BFEB"/>
<path d="M3.59849 0.722174C2.20214 -0.026659 0.513345 1.07004 0.601453 2.69923C0.61779 3.00287 0.697596 3.29345 0.886669 3.51591C1.56717 4.31674 2.75811 4.63457 2.87166 6.13029C2.96566 7.36963 2.95843 11.4719 2.95308 12.8411C2.95147 13.268 3.0685 13.6879 3.30176 14.0396C3.59073 14.4753 4.08483 14.9394 4.87915 14.9394C6.37646 14.9394 6.77336 13.7029 6.7846 12.3957C6.79505 11.1869 6.78621 6.92806 6.7846 6.2924C6.7846 6.22928 6.78193 6.16727 6.7763 6.10443C6.72381 5.51993 6.3703 2.71007 4.3347 1.19572C4.07198 1.00024 3.82693 0.844523 3.59849 0.721896V0.722174Z" fill="#87A6DD"/>
</g>
<defs>
<clipPath id="clip0_4368_13793">
<rect width="24" height="15" fill="white" transform="translate(0.5)"/>
</clipPath>
</defs>
</svg>
