<svg width="137" height="41" viewBox="0 0 137 41" fill="none" xmlns="http://www.w3.org/2000/svg">
<g clip-path="url(#clip0_4364_15027)">
<mask id="mask0_4364_15027" style="mask-type:luminance" maskUnits="userSpaceOnUse" x="0" y="0" width="137" height="41">
<path d="M0.97998 8.01086e-05H136.715V40.4678H0.97998V8.01086e-05Z" fill="white"/>
</mask>
<g mask="url(#mask0_4364_15027)">
<path d="M131.688 40.4673H6.00727C3.24226 40.4673 0.97998 38.1911 0.97998 35.4088V5.05804C0.97998 2.27572 3.24226 -0.000450134 6.00727 -0.000450134H131.688C134.453 -0.000450134 136.715 2.27572 136.715 5.05804V35.4088C136.715 38.1911 134.453 40.4673 131.688 40.4673Z" fill="#100F0D"/>
<path d="M131.688 8.01086e-05H6.00727C3.24226 8.01086e-05 0.97998 2.27646 0.97998 5.05857V35.4093C0.97998 38.1916 3.24226 40.4678 6.00727 40.4678H131.688C134.453 40.4678 136.715 38.1916 136.715 35.4093V5.05857C136.715 2.27646 134.453 8.01086e-05 131.688 8.01086e-05ZM131.688 0.809402C134.017 0.809402 135.911 2.71537 135.911 5.05857V35.4093C135.911 37.7525 134.017 39.6585 131.688 39.6585H6.00727C3.67859 39.6585 1.78442 37.7525 1.78442 35.4093V5.05857C1.78442 2.71537 3.67859 0.809402 6.00727 0.809402H131.688Z" fill="#A2A2A1"/>
<path d="M108.499 30.3508H110.375V17.7037H108.499V30.3508ZM125.397 22.2593L123.246 27.7427H123.182L120.95 22.2593H118.929L122.276 29.9229L120.368 34.1862H122.324L127.483 22.2593H125.397ZM114.758 28.9142C114.142 28.9142 113.285 28.6047 113.285 27.84C113.285 26.8636 114.352 26.4902 115.274 26.4902C116.099 26.4902 116.487 26.6693 116.989 26.913C116.843 28.0848 115.84 28.9142 114.758 28.9142ZM114.984 21.9831C113.625 21.9831 112.218 22.5851 111.636 23.9185L113.301 24.6187C113.657 23.9185 114.32 23.6908 115.016 23.6908C115.986 23.6908 116.972 24.2767 116.989 25.3177V25.4481C116.649 25.253 115.921 24.9606 115.032 24.9606C113.237 24.9606 111.409 25.9531 111.409 27.8074C111.409 29.5001 112.881 30.5897 114.53 30.5897C115.792 30.5897 116.487 30.021 116.924 29.3533H116.989V30.3297H118.799V25.4805C118.799 23.2356 117.134 21.9831 114.984 21.9831ZM103.389 23.7991H100.72V19.463H103.389C104.791 19.463 105.588 20.6326 105.588 21.6311C105.588 22.6115 104.791 23.7991 103.389 23.7991ZM103.341 17.7037H98.8452V30.3508H100.72V25.5595H103.341C105.42 25.5595 107.464 24.0439 107.464 21.6311C107.464 19.2182 105.42 17.7037 103.341 17.7037ZM78.8267 28.9164C77.5307 28.9164 76.4459 27.8247 76.4459 26.3254C76.4459 24.8099 77.5307 23.7009 78.8267 23.7009C80.1065 23.7009 81.1101 24.8099 81.1101 26.3254C81.1101 27.8247 80.1065 28.9164 78.8267 28.9164ZM80.9804 22.9675H80.9161C80.4948 22.4627 79.6855 22.0053 78.6649 22.0053C76.5261 22.0053 74.5666 23.8963 74.5666 26.3254C74.5666 28.7372 76.5261 30.6119 78.6649 30.6119C79.6855 30.6119 80.4948 30.1557 80.9161 29.6337H80.9804V30.2527C80.9804 31.8997 80.1065 32.779 78.6971 32.779C77.5467 32.779 76.834 31.9483 76.5423 31.2472L74.9064 31.9323C75.376 33.0733 76.6238 34.4746 78.6971 34.4746C80.8999 34.4746 82.763 33.1706 82.763 29.9926V22.2664H80.9804V22.9675ZM84.058 30.3508H85.9373V17.7027H84.058V30.3508ZM88.7072 26.1786C88.6591 24.5153 89.9871 23.6686 90.9423 23.6686C91.6884 23.6686 92.3198 24.043 92.5299 24.5811L88.7072 26.1786ZM94.5388 24.7441C94.1818 23.7819 93.097 22.0053 90.878 22.0053C88.6751 22.0053 86.8452 23.7496 86.8452 26.3092C86.8452 28.721 88.6591 30.6119 91.0883 30.6119C93.0489 30.6119 94.1818 29.4059 94.6525 28.7049L93.1947 27.7266C92.7079 28.4438 92.0443 28.9164 91.0883 28.9164C90.1329 28.9164 89.4523 28.4762 89.0149 27.6133L94.733 25.2327L94.5388 24.7441ZM48.984 23.3267V25.1517H53.3246C53.1948 26.1786 52.855 26.9283 52.3373 27.4493C51.7048 28.0856 50.7165 28.7859 48.984 28.7859C46.3105 28.7859 44.2213 26.6188 44.2213 23.9287C44.2213 21.2396 46.3105 19.0725 48.984 19.0725C50.4259 19.0725 51.4786 19.6421 52.2558 20.3755L53.5356 19.0888C52.4499 18.0456 51.0089 17.2464 48.984 17.2464C45.3232 17.2464 42.2456 20.2461 42.2456 23.9287C42.2456 27.6133 45.3232 30.6119 48.984 30.6119C50.9598 30.6119 52.4499 29.9593 53.6161 28.7372C54.8146 27.5313 55.1877 25.8368 55.1877 24.4669C55.1877 24.043 55.1554 23.6525 55.09 23.3267H48.984ZM60.1223 28.9164C58.8274 28.9164 57.7094 27.8408 57.7094 26.3092C57.7094 24.7602 58.8274 23.7009 60.1223 23.7009C61.4183 23.7009 62.5364 24.7602 62.5364 26.3092C62.5364 27.8408 61.4183 28.9164 60.1223 28.9164ZM60.1223 22.0053C57.7575 22.0053 55.8301 23.8153 55.8301 26.3092C55.8301 28.7859 57.7575 30.6119 60.1223 30.6119C62.4872 30.6119 64.4157 28.7859 64.4157 26.3092C64.4157 23.8153 62.4872 22.0053 60.1223 22.0053ZM69.487 28.9164C68.1912 28.9164 67.073 27.8408 67.073 26.3092C67.073 24.7602 68.1912 23.7009 69.487 23.7009C70.7832 23.7009 71.9002 24.7602 71.9002 26.3092C71.9002 27.8408 70.7832 28.9164 69.487 28.9164ZM69.487 22.0053C67.1224 22.0053 65.1948 23.8153 65.1948 26.3092C65.1948 28.7859 67.1224 30.6119 69.487 30.6119C71.8519 30.6119 73.7793 28.7859 73.7793 26.3092C73.7793 23.8153 71.8519 22.0053 69.487 22.0053Z" fill="white"/>
<path d="M21.8099 19.6514L11.105 31.0836C11.106 31.0855 11.106 31.0887 11.107 31.0906C11.4357 32.332 12.5618 33.2456 13.8991 33.2456C14.434 33.2456 14.9357 33.0999 15.3661 32.845L15.4002 32.8247L27.4496 25.8289L21.8099 19.6514Z" fill="#EB3131"/>
<path d="M32.6395 17.7048L32.6294 17.6976L27.4271 14.6635L21.5664 19.9112L27.4481 25.8276L32.6223 22.824C33.5291 22.3301 34.1456 21.3681 34.1456 20.2592C34.1456 19.1564 33.5382 18.1995 32.6395 17.7048Z" fill="#F6B60B"/>
<path d="M11.1049 9.3856C11.0405 9.6243 11.0063 9.87526 11.0063 10.1343V30.3358C11.0063 30.5948 11.0405 30.8456 11.1059 31.0835L22.1778 19.9436L11.1049 9.3856Z" fill="#5778C5"/>
<path d="M21.889 20.2349L27.4289 14.6613L15.3938 7.64022C14.9564 7.37615 14.4456 7.22435 13.8996 7.22435C12.5624 7.22435 11.4343 8.14002 11.1055 9.38234C11.1055 9.3834 11.1045 9.38446 11.1045 9.38551L21.889 20.2349Z" fill="#3BAD49"/>
</g>
<mask id="mask1_4364_15027" style="mask-type:luminance" maskUnits="userSpaceOnUse" x="0" y="0" width="137" height="41">
<path d="M0.97998 -0.000125885H136.715V40.4678H0.97998V-0.000125885Z" fill="white"/>
</mask>
<g mask="url(#mask1_4364_15027)">
<path d="M44.9692 12.3716C45.6806 12.3716 46.2332 12.1738 46.6268 11.7778C47.0203 11.3816 47.2172 10.8346 47.2172 10.1363C47.2172 9.43795 47.0203 8.89058 46.6268 8.49459C46.2332 8.09859 45.6806 7.90049 44.9692 7.90049H43.9543V12.3716H44.9692ZM42.9922 6.98503H44.9954C45.6428 6.98503 46.207 7.11717 46.6879 7.38124C47.1691 7.6453 47.5393 8.01635 47.7988 8.49459C48.0585 8.97304 48.1882 9.51999 48.1882 10.1363C48.1882 10.7524 48.0585 11.2995 47.7988 11.7778C47.5393 12.256 47.1691 12.627 46.6879 12.8911C46.207 13.1552 45.6428 13.2871 44.9954 13.2871H42.9922V6.98503Z" fill="white"/>
<path d="M49.439 6.98503H50.4011V13.2871H49.439V6.98503Z" fill="white"/>
<path d="M52.4128 12.9702C51.9988 12.6651 51.7101 12.2368 51.5469 11.6852L52.4565 11.3154C52.55 11.6674 52.7162 11.9552 52.9551 12.178C53.1942 12.4011 53.4829 12.5125 53.8212 12.5125C54.1359 12.5125 54.403 12.4305 54.6215 12.266C54.8402 12.1017 54.9495 11.8759 54.9495 11.5884C54.9495 11.3243 54.8533 11.1057 54.6608 10.9325C54.4683 10.7594 54.1359 10.5907 53.6636 10.4264L53.27 10.2856C52.8443 10.1331 52.4901 9.92024 52.2073 9.6475C51.9245 9.37456 51.783 9.01239 51.783 8.56037C51.783 8.24958 51.8662 7.96183 52.0325 7.69798C52.1987 7.43391 52.4317 7.22566 52.7321 7.07301C53.0324 6.92037 53.3722 6.84405 53.7512 6.84405C54.2935 6.84405 54.728 6.97766 55.0546 7.24448C55.3811 7.51172 55.6028 7.81236 55.7196 8.14683L54.8533 8.51661C54.7951 8.30518 54.6726 8.12336 54.486 7.97071C54.2994 7.81828 54.0573 7.74196 53.7598 7.74196C53.4743 7.74196 53.2322 7.81828 53.0339 7.97071C52.8357 8.12336 52.7366 8.31702 52.7366 8.5517C52.7366 8.76883 52.8254 8.94918 53.0034 9.09294C53.1809 9.23692 53.4566 9.37308 53.8298 9.50226L54.2322 9.64306C54.7688 9.83102 55.1827 10.0744 55.4746 10.3735C55.766 10.6729 55.9118 11.0721 55.9118 11.5706C55.9118 11.9814 55.8083 12.3262 55.6013 12.6049C55.3943 12.8837 55.1289 13.0903 54.8054 13.2254C54.4816 13.3603 54.1506 13.4277 53.8123 13.4277C53.2934 13.4277 52.8269 13.2753 52.4128 12.9702Z" fill="white"/>
<path d="M59.3499 9.92486C59.6706 9.92486 59.9286 9.8238 60.124 9.62126C60.3194 9.41871 60.4171 9.18277 60.4171 8.91278C60.4171 8.64279 60.3194 8.40664 60.124 8.20409C59.9286 8.00176 59.6706 7.90049 59.3499 7.90049H58.134V9.92486H59.3499ZM57.1719 6.98503H59.3237C59.6968 6.98503 60.0393 7.06728 60.3516 7.23155C60.6634 7.39604 60.9113 7.62479 61.0952 7.91804C61.2788 8.2117 61.3706 8.54321 61.3706 8.91278C61.3706 9.28235 61.2788 9.61386 61.0952 9.90731C60.9113 10.2008 60.6634 10.4297 60.3516 10.5938C60.0393 10.7581 59.6968 10.8403 59.3237 10.8403H58.134V13.2871H57.1719V6.98503Z" fill="white"/>
<path d="M66.5792 12.2089C66.9263 12.0063 67.2003 11.7247 67.4014 11.3638C67.6027 11.0029 67.7034 10.5936 67.7034 10.1361C67.7034 9.67816 67.6027 9.26906 67.4014 8.90816C67.2003 8.54726 66.9263 8.26565 66.5792 8.0631C66.2323 7.86077 65.8489 7.7595 65.4291 7.7595C65.009 7.7595 64.6256 7.86077 64.2787 8.0631C63.9318 8.26565 63.6578 8.54726 63.4565 8.90816C63.2554 9.26906 63.1545 9.67816 63.1545 10.1361C63.1545 10.5936 63.2554 11.0029 63.4565 11.3638C63.6578 11.7247 63.9318 12.0063 64.2787 12.2089C64.6256 12.4112 65.009 12.5125 65.4291 12.5125C65.8489 12.5125 66.2323 12.4112 66.5792 12.2089ZM63.7756 12.9878C63.28 12.6943 62.8906 12.2968 62.608 11.7951C62.325 11.2932 62.1836 10.7403 62.1836 10.1361C62.1836 9.53164 62.325 8.97856 62.608 8.47686C62.8906 7.97515 63.28 7.57768 63.7756 7.28422C64.2713 6.99077 64.8224 6.84405 65.4291 6.84405C66.0355 6.84405 66.5849 6.99077 67.0778 7.28422C67.5706 7.57768 67.9584 7.97515 68.2413 8.47686C68.5241 8.97856 68.6655 9.53164 68.6655 10.1361C68.6655 10.7403 68.5241 11.2932 68.2413 11.7951C67.9584 12.2968 67.5706 12.6943 67.0778 12.9878C66.5849 13.2812 66.0355 13.4277 65.4291 13.4277C64.8224 13.4277 64.2713 13.2812 63.7756 12.9878Z" fill="white"/>
<path d="M69.9077 6.98503H71.0449L73.8789 11.615H73.9314L73.8789 10.4001V6.98503H74.8324V13.2871H73.8352L70.8612 8.41974H70.8087L70.8612 9.63458V13.2871H69.9077V6.98503Z" fill="white"/>
<path d="M76.4155 6.98503H77.3777V13.2871H76.4155V6.98503Z" fill="white"/>
<path d="M81.402 12.3894C81.705 12.3894 81.9487 12.297 82.1323 12.1122C82.316 11.9272 82.4078 11.7059 82.4078 11.4477C82.4078 11.1894 82.313 10.9665 82.1237 10.7788C81.934 10.5908 81.6818 10.497 81.3669 10.497H79.9148V12.3894H81.402ZM81.2532 9.63458C81.5448 9.63458 81.7781 9.54514 81.9529 9.36586C82.1279 9.18699 82.2153 8.98022 82.2153 8.74554C82.2153 8.51087 82.1292 8.30684 81.9575 8.13369C81.7852 7.96075 81.5623 7.87406 81.2881 7.87406H79.9148V9.63458H81.2532ZM78.9526 6.98503H81.2969C81.6293 6.98503 81.9384 7.05861 82.2242 7.20512C82.5099 7.35185 82.736 7.55291 82.9022 7.8081C83.0684 8.06329 83.1514 8.34659 83.1514 8.65759C83.1514 8.9686 83.0741 9.23985 82.9196 9.47157C82.765 9.7035 82.5595 9.88088 82.3027 10.0041V10.0481C82.6295 10.1597 82.889 10.3445 83.0814 10.6027C83.2737 10.8608 83.3699 11.1659 83.3699 11.5181C83.3699 11.8642 83.281 12.1708 83.1033 12.4378C82.9253 12.7049 82.6862 12.9131 82.3859 13.0628C82.0855 13.2123 81.7575 13.2871 81.402 13.2871H78.9526V6.98503Z" fill="white"/>
<path d="M84.6382 6.98503H85.6005V12.3716H88.2946V13.2871H84.6382V6.98503Z" fill="white"/>
<path d="M89.3091 6.98503H93.1055V7.90049H90.2712V9.67834H92.8254V10.5938H90.2712V12.3716H93.1055V13.2871H89.3091V6.98503Z" fill="white"/>
<path d="M96.7707 12.9702C96.3565 12.6651 96.0678 12.2368 95.9048 11.6852L96.8144 11.3154C96.9077 11.6674 97.0739 11.9552 97.313 12.178C97.5519 12.4011 97.8406 12.5125 98.1791 12.5125C98.4938 12.5125 98.7607 12.4305 98.9792 12.266C99.1979 12.1017 99.3074 11.8759 99.3074 11.5884C99.3074 11.3243 99.2112 11.1057 99.0187 10.9325C98.8262 10.7594 98.4938 10.5907 98.0215 10.4264L97.6279 10.2856C97.202 10.1331 96.848 9.92024 96.565 9.6475C96.2822 9.37456 96.141 9.01239 96.141 8.56037C96.141 8.24958 96.2239 7.96183 96.3901 7.69798C96.5563 7.43391 96.7894 7.22566 97.0898 7.07301C97.3903 6.92037 97.7299 6.84405 98.1091 6.84405C98.6514 6.84405 99.0857 6.97766 99.4125 7.24448C99.739 7.51172 99.9604 7.81236 100.077 8.14683L99.2112 8.51661C99.153 8.30518 99.0305 8.12336 98.8439 7.97071C98.6571 7.81828 98.4153 7.74196 98.1177 7.74196C97.832 7.74196 97.5899 7.81828 97.3918 7.97071C97.1934 8.12336 97.0945 8.31702 97.0945 8.5517C97.0945 8.76883 97.1833 8.94918 97.3611 9.09294C97.5389 9.23692 97.8143 9.37308 98.1877 9.50226L98.5901 9.64306C99.1267 9.83102 99.5404 10.0744 99.8323 10.3735C100.124 10.6729 100.27 11.0721 100.27 11.5706C100.27 11.9814 100.166 12.3262 99.959 12.6049C99.752 12.8837 99.4866 13.0903 99.1631 13.2254C98.8393 13.3603 98.5083 13.4277 98.1703 13.4277C97.6511 13.4277 97.1846 13.2753 96.7707 12.9702Z" fill="white"/>
<path d="M102.513 13.111C102.155 12.8998 101.877 12.6004 101.682 12.2131C101.487 11.826 101.389 11.3769 101.389 10.8666V6.98485H102.342V10.9194C102.342 11.3947 102.465 11.7789 102.71 12.0723C102.955 12.366 103.302 12.5125 103.751 12.5125C104.206 12.5125 104.556 12.366 104.8 12.0723C105.045 11.7789 105.168 11.3947 105.168 10.9194V6.98485H106.122V10.8666C106.122 11.3712 106.025 11.8171 105.833 12.2044C105.64 12.5916 105.366 12.8924 105.011 13.1066C104.655 13.3208 104.235 13.4277 103.751 13.4277C103.284 13.4277 102.872 13.3222 102.513 13.111Z" fill="white"/>
<path d="M109.786 9.92486C110.09 9.92486 110.345 9.82824 110.552 9.63458C110.759 9.44091 110.862 9.19735 110.862 8.9039C110.862 8.63413 110.768 8.39775 110.578 8.19542C110.389 7.99288 110.136 7.89161 109.822 7.89161H108.579V9.92486H109.786ZM107.617 6.98503H109.813C110.192 6.98503 110.534 7.06728 110.841 7.23155C111.147 7.39604 111.389 7.62479 111.567 7.91804C111.744 8.2117 111.833 8.54321 111.833 8.91278C111.833 9.3352 111.698 9.70942 111.427 10.0348C111.156 10.3606 110.816 10.5792 110.408 10.6906L110.399 10.7346L112.122 13.2343V13.2871H111.011L109.34 10.8139H108.579V13.2871H107.617V6.98503Z" fill="white"/>
</g>
</g>
<defs>
<clipPath id="clip0_4364_15027">
<rect width="135.735" height="40.4677" fill="white" transform="translate(0.97998)"/>
</clipPath>
</defs>
</svg>
