<svg width="375" height="812" viewBox="0 0 375 812" fill="none" xmlns="http://www.w3.org/2000/svg">
<g clip-path="url(#clip0_307_3671)">
<rect width="375" height="812" fill="#F3F8FF"/>
<rect x="15" y="150" width="345" height="92" rx="10" fill="white"/>
<path fill-rule="evenodd" clip-rule="evenodd" d="M341.937 216.812C342.179 216.57 342.571 216.57 342.813 216.812L347.063 221.062C347.305 221.304 347.305 221.696 347.063 221.938L342.813 226.188C342.571 226.43 342.179 226.43 341.937 226.188C341.695 225.946 341.695 225.554 341.937 225.312L345.748 221.5L341.937 217.688C341.695 217.446 341.695 217.054 341.937 216.812Z" fill="#0A72FF"/>
<text fill="#0A72FF" xml:space="preserve" style="white-space: pre" font-family="Ubuntu" font-size="13" font-weight="500" letter-spacing="0em"><tspan x="292.33" y="226.33">Ouvrir</tspan></text>
<path fill-rule="evenodd" clip-rule="evenodd" d="M36.6667 214.656C36.9486 214.656 37.1771 214.885 37.1771 215.167V215.823H40.8229V215.167C40.8229 214.885 41.0514 214.656 41.3333 214.656C41.6152 214.656 41.8438 214.885 41.8438 215.167V215.823H43.0833C44.0096 215.823 44.7604 216.574 44.7604 217.5V225.667C44.7604 226.593 44.0096 227.344 43.0833 227.344H34.9167C33.9904 227.344 33.2396 226.593 33.2396 225.667V217.5C33.2396 216.574 33.9904 215.823 34.9167 215.823H36.1563V215.167C36.1563 214.885 36.3848 214.656 36.6667 214.656ZM36.1563 216.844H34.9167C34.5542 216.844 34.2604 217.138 34.2604 217.5V219.323H43.7396V217.5C43.7396 217.138 43.4458 216.844 43.0833 216.844H41.8438V217.5C41.8438 217.782 41.6152 218.01 41.3333 218.01C41.0514 218.01 40.8229 217.782 40.8229 217.5V216.844H37.1771V217.5C37.1771 217.782 36.9486 218.01 36.6667 218.01C36.3848 218.01 36.1563 217.782 36.1563 217.5V216.844ZM43.7396 220.344H34.2604V225.667C34.2604 226.029 34.5542 226.323 34.9167 226.323H43.0833C43.4458 226.323 43.7396 226.029 43.7396 225.667V220.344Z" fill="#0B49C2"/>
<text fill="#0B49C2" xml:space="preserve" style="white-space: pre" font-family="Ubuntu" font-size="13" letter-spacing="0em"><tspan x="53" y="226.33">lundi 2 septembre</tspan></text>
<text fill="#0F295C" xml:space="preserve" style="white-space: pre" font-family="Ubuntu" font-size="15" font-weight="500" letter-spacing="-0.04em"><tspan x="29" y="197.073">Bienvenue &#xe0; l&#x2019;IUT d&#x2019;Angoul&#xea;me</tspan></text>
<text fill="#0B49C2" xml:space="preserve" style="white-space: pre" font-family="Ubuntu" font-size="13" letter-spacing="-0.04em"><tspan x="29" y="175.33">Julien Laroche</tspan></text>
<rect x="15" y="253" width="345" height="92" rx="10" fill="white"/>
<path fill-rule="evenodd" clip-rule="evenodd" d="M341.937 319.812C342.179 319.57 342.571 319.57 342.813 319.812L347.063 324.062C347.305 324.304 347.305 324.696 347.063 324.938L342.813 329.188C342.571 329.43 342.179 329.43 341.937 329.188C341.695 328.946 341.695 328.554 341.937 328.312L345.748 324.5L341.937 320.688C341.695 320.446 341.695 320.054 341.937 319.812Z" fill="#0A72FF"/>
<text fill="#0A72FF" xml:space="preserve" style="white-space: pre" font-family="Ubuntu" font-size="13" font-weight="500" letter-spacing="0em"><tspan x="292.33" y="329.33">Ouvrir</tspan></text>
<path fill-rule="evenodd" clip-rule="evenodd" d="M36.6667 317.656C36.9486 317.656 37.1771 317.885 37.1771 318.167V318.823H40.8229V318.167C40.8229 317.885 41.0514 317.656 41.3333 317.656C41.6152 317.656 41.8438 317.885 41.8438 318.167V318.823H43.0833C44.0096 318.823 44.7604 319.574 44.7604 320.5V328.667C44.7604 329.593 44.0096 330.344 43.0833 330.344H34.9167C33.9904 330.344 33.2396 329.593 33.2396 328.667V320.5C33.2396 319.574 33.9904 318.823 34.9167 318.823H36.1563V318.167C36.1563 317.885 36.3848 317.656 36.6667 317.656ZM36.1563 319.844H34.9167C34.5542 319.844 34.2604 320.138 34.2604 320.5V322.323H43.7396V320.5C43.7396 320.138 43.4458 319.844 43.0833 319.844H41.8438V320.5C41.8438 320.782 41.6152 321.01 41.3333 321.01C41.0514 321.01 40.8229 320.782 40.8229 320.5V319.844H37.1771V320.5C37.1771 320.782 36.9486 321.01 36.6667 321.01C36.3848 321.01 36.1563 320.782 36.1563 320.5V319.844ZM43.7396 323.344H34.2604V328.667C34.2604 329.029 34.5542 329.323 34.9167 329.323H43.0833C43.4458 329.323 43.7396 329.029 43.7396 328.667V323.344Z" fill="#0B49C2"/>
<text fill="#0B49C2" xml:space="preserve" style="white-space: pre" font-family="Ubuntu" font-size="13" letter-spacing="0em"><tspan x="53" y="329.33">lundi 2 septembre</tspan></text>
<text fill="#0F295C" xml:space="preserve" style="white-space: pre" font-family="Ubuntu" font-size="15" font-weight="500" letter-spacing="-0.04em"><tspan x="29" y="300.073">Journ&#xe9;e portes ouvertes - Samedi 28 septem...</tspan></text>
<text fill="#0B49C2" xml:space="preserve" style="white-space: pre" font-family="Ubuntu" font-size="13" letter-spacing="-0.04em"><tspan x="29" y="278.33">Pierre Martin</tspan></text>
<rect x="15" y="356" width="345" height="92" rx="10" fill="white"/>
<path fill-rule="evenodd" clip-rule="evenodd" d="M341.937 422.812C342.179 422.57 342.571 422.57 342.813 422.812L347.063 427.062C347.305 427.304 347.305 427.696 347.063 427.938L342.813 432.188C342.571 432.43 342.179 432.43 341.937 432.188C341.695 431.946 341.695 431.554 341.937 431.312L345.748 427.5L341.937 423.688C341.695 423.446 341.695 423.054 341.937 422.812Z" fill="#0A72FF"/>
<text fill="#0A72FF" xml:space="preserve" style="white-space: pre" font-family="Ubuntu" font-size="13" font-weight="500" letter-spacing="0em"><tspan x="292.33" y="432.33">Ouvrir</tspan></text>
<path fill-rule="evenodd" clip-rule="evenodd" d="M36.6667 420.656C36.9486 420.656 37.1771 420.885 37.1771 421.167V421.823H40.8229V421.167C40.8229 420.885 41.0514 420.656 41.3333 420.656C41.6152 420.656 41.8438 420.885 41.8438 421.167V421.823H43.0833C44.0096 421.823 44.7604 422.574 44.7604 423.5V431.667C44.7604 432.593 44.0096 433.344 43.0833 433.344H34.9167C33.9904 433.344 33.2396 432.593 33.2396 431.667V423.5C33.2396 422.574 33.9904 421.823 34.9167 421.823H36.1563V421.167C36.1563 420.885 36.3848 420.656 36.6667 420.656ZM36.1563 422.844H34.9167C34.5542 422.844 34.2604 423.138 34.2604 423.5V425.323H43.7396V423.5C43.7396 423.138 43.4458 422.844 43.0833 422.844H41.8438V423.5C41.8438 423.782 41.6152 424.01 41.3333 424.01C41.0514 424.01 40.8229 423.782 40.8229 423.5V422.844H37.1771V423.5C37.1771 423.782 36.9486 424.01 36.6667 424.01C36.3848 424.01 36.1563 423.782 36.1563 423.5V422.844ZM43.7396 426.344H34.2604V431.667C34.2604 432.029 34.5542 432.323 34.9167 432.323H43.0833C43.4458 432.323 43.7396 432.029 43.7396 431.667V426.344Z" fill="#0B49C2"/>
<text fill="#0B49C2" xml:space="preserve" style="white-space: pre" font-family="Ubuntu" font-size="13" letter-spacing="0em"><tspan x="53" y="432.33">lundi 2 septembre</tspan></text>
<text fill="#0F295C" xml:space="preserve" style="white-space: pre" font-family="Ubuntu" font-size="15" font-weight="500" letter-spacing="-0.04em"><tspan x="29" y="403.073">Compte rendu &#xe0; votre tuteur IUT</tspan></text>
<text fill="#0B49C2" xml:space="preserve" style="white-space: pre" font-family="Ubuntu" font-size="13" letter-spacing="-0.04em"><tspan x="29" y="381.33">Nicolas Roussel</tspan></text>
<rect x="15" y="459" width="345" height="92" rx="10" fill="white"/>
<path fill-rule="evenodd" clip-rule="evenodd" d="M341.937 525.812C342.179 525.57 342.571 525.57 342.813 525.812L347.063 530.062C347.305 530.304 347.305 530.696 347.063 530.938L342.813 535.188C342.571 535.43 342.179 535.43 341.937 535.188C341.695 534.946 341.695 534.554 341.937 534.312L345.748 530.5L341.937 526.688C341.695 526.446 341.695 526.054 341.937 525.812Z" fill="#0A72FF"/>
<text fill="#0A72FF" xml:space="preserve" style="white-space: pre" font-family="Ubuntu" font-size="13" font-weight="500" letter-spacing="0em"><tspan x="292.33" y="535.33">Ouvrir</tspan></text>
<path fill-rule="evenodd" clip-rule="evenodd" d="M36.6667 523.656C36.9486 523.656 37.1771 523.885 37.1771 524.167V524.823H40.8229V524.167C40.8229 523.885 41.0514 523.656 41.3333 523.656C41.6152 523.656 41.8438 523.885 41.8438 524.167V524.823H43.0833C44.0096 524.823 44.7604 525.574 44.7604 526.5V534.667C44.7604 535.593 44.0096 536.344 43.0833 536.344H34.9167C33.9904 536.344 33.2396 535.593 33.2396 534.667V526.5C33.2396 525.574 33.9904 524.823 34.9167 524.823H36.1563V524.167C36.1563 523.885 36.3848 523.656 36.6667 523.656ZM36.1563 525.844H34.9167C34.5542 525.844 34.2604 526.138 34.2604 526.5V528.323H43.7396V526.5C43.7396 526.138 43.4458 525.844 43.0833 525.844H41.8438V526.5C41.8438 526.782 41.6152 527.01 41.3333 527.01C41.0514 527.01 40.8229 526.782 40.8229 526.5V525.844H37.1771V526.5C37.1771 526.782 36.9486 527.01 36.6667 527.01C36.3848 527.01 36.1563 526.782 36.1563 526.5V525.844ZM43.7396 529.344H34.2604V534.667C34.2604 535.029 34.5542 535.323 34.9167 535.323H43.0833C43.4458 535.323 43.7396 535.029 43.7396 534.667V529.344Z" fill="#0B49C2"/>
<text fill="#0B49C2" xml:space="preserve" style="white-space: pre" font-family="Ubuntu" font-size="13" letter-spacing="0em"><tspan x="53" y="535.33">lundi 2 septembre</tspan></text>
<text fill="#0F295C" xml:space="preserve" style="white-space: pre" font-family="Ubuntu" font-size="15" font-weight="500" letter-spacing="-0.04em"><tspan x="29" y="506.073">Les notes de la SAE301</tspan></text>
<text fill="#0B49C2" xml:space="preserve" style="white-space: pre" font-family="Ubuntu" font-size="13" letter-spacing="-0.04em"><tspan x="29" y="484.33">Sophie Lefevre</tspan></text>
<rect x="15" y="562" width="345" height="92" rx="10" fill="white"/>
<path fill-rule="evenodd" clip-rule="evenodd" d="M341.937 628.812C342.179 628.57 342.571 628.57 342.813 628.812L347.063 633.062C347.305 633.304 347.305 633.696 347.063 633.938L342.813 638.188C342.571 638.43 342.179 638.43 341.937 638.188C341.695 637.946 341.695 637.554 341.937 637.312L345.748 633.5L341.937 629.688C341.695 629.446 341.695 629.054 341.937 628.812Z" fill="#0A72FF"/>
<text fill="#0A72FF" xml:space="preserve" style="white-space: pre" font-family="Ubuntu" font-size="13" font-weight="500" letter-spacing="0em"><tspan x="292.33" y="638.33">Ouvrir</tspan></text>
<path fill-rule="evenodd" clip-rule="evenodd" d="M36.6667 626.656C36.9486 626.656 37.1771 626.885 37.1771 627.167V627.823H40.8229V627.167C40.8229 626.885 41.0514 626.656 41.3333 626.656C41.6152 626.656 41.8438 626.885 41.8438 627.167V627.823H43.0833C44.0096 627.823 44.7604 628.574 44.7604 629.5V637.667C44.7604 638.593 44.0096 639.344 43.0833 639.344H34.9167C33.9904 639.344 33.2396 638.593 33.2396 637.667V629.5C33.2396 628.574 33.9904 627.823 34.9167 627.823H36.1563V627.167C36.1563 626.885 36.3848 626.656 36.6667 626.656ZM36.1563 628.844H34.9167C34.5542 628.844 34.2604 629.138 34.2604 629.5V631.323H43.7396V629.5C43.7396 629.138 43.4458 628.844 43.0833 628.844H41.8438V629.5C41.8438 629.782 41.6152 630.01 41.3333 630.01C41.0514 630.01 40.8229 629.782 40.8229 629.5V628.844H37.1771V629.5C37.1771 629.782 36.9486 630.01 36.6667 630.01C36.3848 630.01 36.1563 629.782 36.1563 629.5V628.844ZM43.7396 632.344H34.2604V637.667C34.2604 638.029 34.5542 638.323 34.9167 638.323H43.0833C43.4458 638.323 43.7396 638.029 43.7396 637.667V632.344Z" fill="#0B49C2"/>
<text fill="#0B49C2" xml:space="preserve" style="white-space: pre" font-family="Ubuntu" font-size="13" letter-spacing="0em"><tspan x="53" y="638.33">lundi 2 septembre</tspan></text>
<text fill="#0F295C" xml:space="preserve" style="white-space: pre" font-family="Ubuntu" font-size="15" font-weight="500" letter-spacing="-0.04em"><tspan x="29" y="609.073">D&#xe9;placement du prochain cours</tspan></text>
<text fill="#0B49C2" xml:space="preserve" style="white-space: pre" font-family="Ubuntu" font-size="13" letter-spacing="-0.04em"><tspan x="29" y="587.33">Pauline Martinez</tspan></text>
<rect y="48.3577" width="375" height="56.7676" fill="#F3F8FF"/>
<path fill-rule="evenodd" clip-rule="evenodd" d="M345 68.2327C343.641 68.2327 342.337 68.7726 341.376 69.7337C340.415 70.6949 339.875 71.9984 339.875 73.3577C339.875 76.9866 339.096 79.3836 338.268 80.9017C338.153 81.1126 338.037 81.306 337.923 81.4827H352.077C351.963 81.306 351.847 81.1126 351.732 80.9017C350.904 79.3836 350.125 76.9866 350.125 73.3577C350.125 71.9984 349.585 70.6949 348.624 69.7337C347.663 68.7726 346.359 68.2327 345 68.2327ZM354.486 81.6304L354.488 81.6311L354.489 81.6323L354.492 81.6344L354.494 81.6355C354.493 81.6347 354.491 81.6334 354.489 81.6316C354.479 81.6246 354.46 81.6095 354.431 81.5859C354.374 81.5385 354.282 81.4565 354.166 81.334C353.935 81.0896 353.605 80.6819 353.268 80.0637C352.596 78.8317 351.875 76.7287 351.875 73.3577C351.875 71.5343 351.151 69.7856 349.861 68.4963C348.572 67.207 346.823 66.4827 345 66.4827C343.177 66.4827 341.428 67.207 340.139 68.4963C338.849 69.7856 338.125 71.5343 338.125 73.3577C338.125 76.7287 337.404 78.8317 336.732 80.0637C336.395 80.6819 336.065 81.0896 335.834 81.334C335.718 81.4565 335.626 81.5385 335.569 81.5859C335.54 81.6095 335.521 81.6246 335.511 81.6316C335.509 81.6335 335.507 81.6348 335.506 81.6356C335.191 81.8509 335.052 82.2456 335.163 82.6112C335.274 82.9803 335.614 83.2327 336 83.2327H354C354.386 83.2327 354.726 82.9803 354.837 82.6112C354.948 82.2456 354.809 81.8509 354.494 81.6356C354.492 81.6339 354.489 81.6321 354.486 81.6304ZM342.878 85.5909C343.302 85.3581 343.834 85.5126 344.067 85.9361C344.159 86.1032 344.294 86.2426 344.458 86.3397C344.622 86.4368 344.809 86.488 345 86.488C345.191 86.488 345.378 86.4368 345.542 86.3397C345.706 86.2426 345.841 86.1032 345.933 85.9361C346.166 85.5126 346.698 85.3581 347.122 85.5909C347.545 85.8237 347.7 86.3558 347.467 86.7792C347.224 87.221 346.867 87.5894 346.433 87.846C345.999 88.1026 345.504 88.238 345 88.238C344.496 88.238 344.001 88.1026 343.567 87.846C343.133 87.5894 342.776 87.221 342.533 86.7792C342.3 86.3558 342.455 85.8237 342.878 85.5909Z" fill="#87A6DD"/>
<text fill="#0F295C" xml:space="preserve" style="white-space: pre" font-family="Ubuntu" font-size="17" font-weight="500" letter-spacing="0em"><tspan x="166.19" y="83.5958">Mails</tspan></text>
<path fill-rule="evenodd" clip-rule="evenodd" d="M33.7471 65.3247C34.2862 64.7856 35.0175 64.4827 35.78 64.4827H36.22C36.9825 64.4827 37.7138 64.7856 38.2529 65.3247C38.7921 65.8639 39.095 66.5952 39.095 67.3577V67.5368C39.0952 67.7341 39.1473 67.9278 39.246 68.0986C39.3447 68.2694 39.4867 68.4113 39.6575 68.5099L39.6598 68.5112L40.0875 68.7599C40.0878 68.7601 40.0882 68.7603 40.0885 68.7605C40.2593 68.8588 40.4529 68.9106 40.65 68.9106C40.8475 68.9106 41.0415 68.8586 41.2125 68.7599C41.221 68.755 41.2296 68.7502 41.2382 68.7456L41.3765 68.6718C42.0334 68.2978 42.8114 68.1973 43.542 68.3927C44.2778 68.5894 44.9054 69.0701 45.2872 69.7291L45.5079 70.1104C45.8885 70.7702 45.9917 71.5539 45.795 72.2897C45.5989 73.0231 45.1207 73.649 44.465 74.0311L44.3202 74.118L44.3075 74.1254C44.1358 74.2246 43.9934 74.3673 43.8946 74.5392C43.7958 74.711 43.7442 74.906 43.745 75.1042L43.745 75.1077L43.745 75.6077L43.745 75.6111C43.7442 75.8094 43.7958 76.0043 43.8946 76.1762C43.9913 76.3444 44.1298 76.4847 44.2966 76.5835L44.4318 76.6556C44.4408 76.6604 44.4497 76.6654 44.4586 76.6705C45.1176 77.0522 45.5983 77.6799 45.795 78.4156C45.9913 79.1499 45.8889 79.932 45.5102 80.5909L45.2921 80.9776L45.2872 80.9862C44.9054 81.6453 44.2778 82.1259 43.542 82.3227C42.8114 82.518 42.0334 82.4176 41.3765 82.0435L41.2382 81.9697C41.2296 81.9651 41.221 81.9603 41.2125 81.9554C41.0415 81.8567 40.8475 81.8047 40.65 81.8047C40.4529 81.8047 40.2592 81.8565 40.0884 81.9549C40.0881 81.9551 40.0878 81.9553 40.0875 81.9554L39.6598 82.2041L39.6575 82.2054C39.4867 82.3041 39.3447 82.4459 39.246 82.6167C39.1473 82.7875 39.0952 82.9813 39.095 83.1786V83.3577C39.095 84.1202 38.7921 84.8514 38.2529 85.3906C37.7138 85.9298 36.9825 86.2327 36.22 86.2327H35.78C35.0175 86.2327 34.2862 85.9298 33.7471 85.3906C33.2079 84.8514 32.905 84.1202 32.905 83.3577L32.905 83.1786C32.905 83.1784 32.905 83.1787 32.905 83.1786C32.9047 82.9814 32.8527 82.7874 32.754 82.6167C32.6553 82.4459 32.5134 82.3041 32.3425 82.2054L32.3402 82.2041L31.9125 81.9554C31.9122 81.9553 31.9119 81.9551 31.9116 81.9549C31.7408 81.8565 31.5471 81.8047 31.35 81.8047C31.1525 81.8047 30.9585 81.8567 30.7875 81.9554C30.779 81.9603 30.7704 81.9651 30.7618 81.9697L30.6235 82.0435C29.9666 82.4176 29.1886 82.518 28.458 82.3227C27.7222 82.1259 27.0946 81.6453 26.7128 80.9862L26.4921 80.6049C26.1115 79.9452 26.0083 79.1614 26.205 78.4256C26.4011 77.6923 26.8793 77.0663 27.5351 76.6842L27.6798 76.5974L27.6925 76.5899C27.8642 76.4908 28.0066 76.3481 28.1054 76.1762C28.2042 76.0043 28.2558 75.8094 28.255 75.6111L28.255 75.6077V75.1007C28.2534 74.9051 28.2009 74.7134 28.1026 74.5443C28.0039 74.3746 27.8626 74.2336 27.6925 74.1354C27.6762 74.1261 27.6603 74.1161 27.6446 74.1057L27.5155 74.0196C26.8698 73.6365 26.3992 73.0158 26.205 72.2897C26.0083 71.5539 26.1115 70.7702 26.4921 70.1104L26.7128 69.7293C27.0945 69.0702 27.7222 68.5894 28.458 68.3927C29.1886 68.1973 29.9666 68.2977 30.6235 68.6718L30.7618 68.7456C30.7704 68.7502 30.779 68.755 30.7875 68.7599C30.9585 68.8586 31.1525 68.9106 31.35 68.9106C31.5471 68.9106 31.7407 68.8588 31.9115 68.7605C31.9118 68.7603 31.9122 68.7601 31.9125 68.7599L32.3425 68.5099C32.5134 68.4112 32.6553 68.2694 32.754 68.0986C32.8527 67.9279 32.9047 67.7343 32.905 67.5372C32.905 67.537 32.905 67.5373 32.905 67.5372V67.3577C32.905 66.5952 33.2079 65.8639 33.7471 65.3247ZM35.78 66.2327C35.4816 66.2327 35.1955 66.3512 34.9845 66.5622C34.7735 66.7731 34.655 67.0593 34.655 67.3577V67.5386C34.6545 68.0427 34.5214 68.5379 34.2691 68.9744C34.017 69.4105 33.6548 69.7726 33.2188 70.0247C33.2184 70.0249 33.2179 70.0252 33.2175 70.0254L32.7875 70.2754C32.3505 70.5278 31.8547 70.6606 31.35 70.6606C30.8507 70.6606 30.3601 70.5306 29.9264 70.2834L29.7882 70.2097C29.7797 70.2052 29.7712 70.2005 29.7628 70.1956C29.5046 70.0467 29.1979 70.0063 28.91 70.0833C28.6222 70.1602 28.3766 70.3483 28.2273 70.6061C28.2272 70.6061 28.2273 70.606 28.2273 70.6061L28.0079 70.9849C28.0079 70.985 28.0078 70.9852 28.0077 70.9853C27.859 71.2434 27.8187 71.5499 27.8956 71.8376C27.9726 72.1255 28.1607 72.3711 28.4186 72.5205C28.4345 72.5297 28.4501 72.5394 28.4654 72.5496L28.594 72.6354C29.0167 72.8855 29.3685 73.2398 29.6155 73.6647C29.8677 74.0985 30.002 74.5907 30.005 75.0924L30.005 75.0977L30.005 75.6061C30.0067 76.112 29.8748 76.6095 29.6227 77.0482C29.3716 77.4851 29.0101 77.8483 28.5744 78.1014L28.4302 78.188L28.4186 78.1948C28.1607 78.3442 27.9726 78.5898 27.8956 78.8777C27.8187 79.1654 27.859 79.472 28.0077 79.73C28.0076 79.7299 28.0078 79.7302 28.0077 79.73L28.2272 80.1091C28.2271 80.1091 28.2272 80.1092 28.2272 80.1091C28.3765 80.3669 28.6222 80.5551 28.91 80.6321C29.1979 80.709 29.5046 80.6686 29.7628 80.5197C29.7712 80.5149 29.7797 80.5102 29.7882 80.5056L29.9264 80.4319C30.3601 80.1848 30.8507 80.0547 31.35 80.0547C31.8547 80.0547 32.3505 80.1876 32.7875 80.4399L32.7898 80.4412L33.2175 80.6899C33.2179 80.6901 33.2183 80.6903 33.2187 80.6906C33.6548 80.9426 34.017 81.3048 34.2691 81.7409C34.5214 82.1774 34.6545 82.6726 34.655 83.1768L34.655 83.1777L34.655 83.3577C34.655 83.656 34.7735 83.9422 34.9845 84.1532C35.1955 84.3641 35.4816 84.4827 35.78 84.4827H36.22C36.5184 84.4827 36.8045 84.3641 37.0155 84.1532C37.2265 83.9422 37.345 83.656 37.345 83.3577V83.1768C37.3455 82.6726 37.4786 82.1774 37.7309 81.7409C37.983 81.3048 38.3453 80.9426 38.7814 80.6905C38.7818 80.6903 38.7821 80.6901 38.7825 80.6899L39.2102 80.4412L39.2125 80.4399C39.6496 80.1876 40.1453 80.0547 40.65 80.0547C41.1493 80.0547 41.6399 80.1848 42.0736 80.4319L42.2118 80.5056C42.2203 80.5102 42.2288 80.5149 42.2372 80.5197C42.4954 80.6686 42.8021 80.709 43.09 80.6321C43.3765 80.5554 43.6211 80.3688 43.7707 80.1129L43.9879 79.7278L43.9921 79.7204C44.141 79.4623 44.1814 79.1556 44.1044 78.8677C44.0285 78.584 43.8448 78.3414 43.5928 78.1915L43.4582 78.1197C43.4496 78.1151 43.441 78.1103 43.4325 78.1054C42.9938 77.8521 42.6298 77.4874 42.3773 77.0482C42.1252 76.6095 41.9933 76.112 41.995 75.606V75.1093C41.9933 74.6033 42.1252 74.1059 42.3773 73.6672C42.6284 73.2303 42.9899 72.8671 43.4255 72.6139L43.5698 72.5274L43.5814 72.5205C43.8393 72.3711 44.0274 72.1255 44.1044 71.8376C44.1814 71.5497 44.141 71.243 43.9921 70.9849L43.7728 70.6062C43.6235 70.3483 43.3779 70.1603 43.09 70.0833C42.8021 70.0063 42.4954 70.0467 42.2372 70.1956C42.2288 70.2005 42.2203 70.2052 42.2118 70.2097L42.0736 70.2834C41.6399 70.5306 41.1493 70.6606 40.65 70.6606C40.1453 70.6606 39.6496 70.5278 39.2125 70.2754L39.2102 70.2741L38.7825 70.0254C38.7821 70.0252 38.7817 70.025 38.7813 70.0247C38.3452 69.7727 37.983 69.4105 37.7309 68.9744C37.4786 68.5379 37.3455 68.0427 37.345 67.5386V67.3577C37.345 67.0593 37.2265 66.7731 37.0155 66.5622C36.8045 66.3512 36.5184 66.2327 36.22 66.2327H35.78ZM36 73.2327C34.8264 73.2327 33.875 74.1841 33.875 75.3577C33.875 76.5313 34.8264 77.4827 36 77.4827C37.1736 77.4827 38.125 76.5313 38.125 75.3577C38.125 74.1841 37.1736 73.2327 36 73.2327ZM32.125 75.3577C32.125 73.2176 33.8599 71.4827 36 71.4827C38.1401 71.4827 39.875 73.2176 39.875 75.3577C39.875 77.4978 38.1401 79.2327 36 79.2327C33.8599 79.2327 32.125 77.4978 32.125 75.3577Z" fill="#87A6DD"/>
<text fill="#0B49C2" xml:space="preserve" style="white-space: pre" font-family="Ubuntu" font-size="14" letter-spacing="0em" text-decoration="underline"><tspan x="285.105" y="128.201">Zimbra</tspan></text>
<text fill="#0B49C2" xml:space="preserve" style="white-space: pre" font-family="Ubuntu" font-size="14" letter-spacing="0em"><tspan x="47.3105" y="128.201">Acc&#xe8;s &#xe0; toutes les fonctionnalit&#xe9;s sur </tspan></text>
<g filter="url(#filter0_d_307_3671)">
<path d="M0 722H375V785H0V722Z" fill="white"/>
<path d="M54.3041 750.802L48.2993 745.112C47.5562 744.41 46.5495 744.016 45.5 744.016C44.4505 744.016 43.4439 744.41 42.7007 745.112L36.6959 750.802C36.4746 751.01 36.2991 751.258 36.1796 751.531C36.0602 751.804 35.9991 752.097 36 752.393V759.755C36 760.352 36.2502 760.924 36.6956 761.346C37.141 761.768 37.7451 762.005 38.375 762.005H52.625C53.2549 762.005 53.859 761.768 54.3044 761.346C54.7498 760.924 55 760.352 55 759.755V752.393C55.0009 752.097 54.9398 751.804 54.8204 751.531C54.7009 751.258 54.5255 751.01 54.3041 750.802ZM47.875 760.505H43.125V757.555C43.125 756.958 43.3752 756.386 43.8206 755.964C44.266 755.542 44.8701 755.305 45.5 755.305C46.1299 755.305 46.734 755.542 47.1794 755.964C47.6248 756.386 47.875 756.958 47.875 757.555V760.505ZM53.4167 759.755C53.4167 759.954 53.3333 760.145 53.1848 760.286C53.0363 760.426 52.835 760.505 52.625 760.505H49.4583V757.555C49.4583 756.56 49.0413 755.606 48.299 754.903C47.5566 754.2 46.5498 753.805 45.5 753.805C44.4502 753.805 43.4434 754.2 42.701 754.903C41.9587 755.606 41.5417 756.56 41.5417 757.555V760.505H38.375C38.165 760.505 37.9637 760.426 37.8152 760.286C37.6668 760.145 37.5833 759.954 37.5833 759.755V752.393C37.5841 752.194 37.6674 752.003 37.8153 751.862L43.8201 746.175C44.2664 745.754 44.8704 745.518 45.5 745.518C46.1297 745.518 46.7337 745.754 47.1799 746.175L53.1847 751.865C53.332 752.005 53.4153 752.195 53.4167 752.393V759.755Z" fill="#87A6DD"/>
<path d="M193.419 750.203C193.726 750.514 193.721 751.016 193.408 751.322L189.904 754.762C189.285 755.37 188.487 755.673 187.688 755.673C186.898 755.673 186.108 755.375 185.49 754.779L183.987 753.301C183.675 752.995 183.671 752.494 183.977 752.182C184.283 751.869 184.786 751.865 185.097 752.172L186.595 753.646C187.21 754.239 188.179 754.236 188.797 753.631L192.3 750.192C192.611 749.885 193.111 749.891 193.419 750.203ZM198 752.5C198 757.738 193.738 762 188.5 762C183.262 762 179 757.738 179 752.5C179 747.262 183.262 743 188.5 743C193.738 743 198 747.262 198 752.5ZM196.417 752.5C196.417 748.135 192.865 744.583 188.5 744.583C184.135 744.583 180.583 748.135 180.583 752.5C180.583 756.865 184.135 760.417 188.5 760.417C192.865 760.417 196.417 756.865 196.417 752.5Z" fill="#87A6DD"/>
<path d="M121.042 744.583H120.25V743.792C120.25 743.355 119.896 743 119.458 743C119.021 743 118.667 743.355 118.667 743.792V744.583H112.333V743.792C112.333 743.355 111.979 743 111.542 743C111.104 743 110.75 743.355 110.75 743.792V744.583H109.958C107.776 744.583 106 746.359 106 748.542V758.042C106 760.224 107.776 762 109.958 762H121.042C123.224 762 125 760.224 125 758.042V748.542C125 746.359 123.224 744.583 121.042 744.583ZM109.958 746.167H121.042C122.351 746.167 123.417 747.232 123.417 748.542V749.333H107.583V748.542C107.583 747.232 108.649 746.167 109.958 746.167ZM121.042 760.417H109.958C108.649 760.417 107.583 759.351 107.583 758.042V750.917H123.417V758.042C123.417 759.351 122.351 760.417 121.042 760.417ZM121.042 754.083C121.042 754.52 120.688 754.875 120.25 754.875H110.75C110.312 754.875 109.958 754.52 109.958 754.083C109.958 753.646 110.312 753.292 110.75 753.292H120.25C120.688 753.292 121.042 753.646 121.042 754.083ZM115.5 757.25C115.5 757.687 115.146 758.042 114.708 758.042H110.75C110.312 758.042 109.958 757.687 109.958 757.25C109.958 756.813 110.312 756.458 110.75 756.458H114.708C115.146 756.458 115.5 756.813 115.5 757.25Z" fill="#87A6DD"/>
<path d="M329.5 753.5C330.439 753.5 331.358 753.221 332.139 752.699C332.92 752.178 333.529 751.436 333.888 750.568C334.248 749.7 334.342 748.745 334.159 747.823C333.975 746.902 333.523 746.056 332.859 745.391C332.194 744.727 331.348 744.275 330.427 744.091C329.505 743.908 328.55 744.002 327.682 744.362C326.814 744.721 326.072 745.33 325.551 746.111C325.029 746.892 324.75 747.811 324.75 748.75C324.751 750.009 325.252 751.217 326.143 752.107C327.033 752.998 328.241 753.499 329.5 753.5ZM329.5 745.583C330.126 745.583 330.739 745.769 331.259 746.117C331.78 746.465 332.186 746.96 332.426 747.538C332.665 748.117 332.728 748.754 332.606 749.368C332.484 749.982 332.182 750.546 331.739 750.989C331.296 751.432 330.732 751.734 330.118 751.856C329.504 751.978 328.867 751.915 328.288 751.676C327.71 751.436 327.215 751.03 326.867 750.509C326.519 749.989 326.333 749.376 326.333 748.75C326.333 747.91 326.667 747.105 327.261 746.511C327.855 745.917 328.66 745.583 329.5 745.583Z" fill="#87A6DD"/>
<path d="M329.5 755.083C327.611 755.086 325.8 755.837 324.464 757.173C323.128 758.508 322.377 760.319 322.375 762.208C322.375 762.418 322.458 762.62 322.607 762.768C322.755 762.917 322.957 763 323.167 763C323.377 763 323.578 762.917 323.726 762.768C323.875 762.62 323.958 762.418 323.958 762.208C323.958 760.739 324.542 759.329 325.581 758.29C326.621 757.251 328.03 756.667 329.5 756.667C330.97 756.667 332.379 757.251 333.419 758.29C334.458 759.329 335.042 760.739 335.042 762.208C335.042 762.418 335.125 762.62 335.274 762.768C335.422 762.917 335.623 763 335.833 763C336.043 763 336.245 762.917 336.393 762.768C336.542 762.62 336.625 762.418 336.625 762.208C336.623 760.319 335.872 758.508 334.536 757.173C333.2 755.837 331.389 755.086 329.5 755.083Z" fill="#87A6DD"/>
<g clip-path="url(#clip1_307_3671)">
<path d="M266.967 741.926L261.005 747.889C260.34 748.552 259.439 748.924 258.5 748.924C257.561 748.924 256.66 748.552 255.995 747.889L250.033 741.926C250.023 742.038 250 742.139 250 742.25V750.75C250.001 751.689 250.375 752.589 251.039 753.253C251.703 753.917 252.603 754.291 253.542 754.292H263.458C264.397 754.291 265.297 753.917 265.961 753.253C266.625 752.589 266.999 751.689 267 750.75V742.25C267 742.139 266.977 742.038 266.967 741.926Z" fill="#0760FB"/>
<path d="M260.003 746.887L266.473 740.416C266.16 739.897 265.718 739.466 265.189 739.167C264.661 738.868 264.065 738.71 263.458 738.708H253.542C252.935 738.71 252.339 738.868 251.81 739.167C251.282 739.466 250.84 739.897 250.527 740.416L256.997 746.887C257.396 747.285 257.937 747.508 258.5 747.508C259.063 747.508 259.604 747.285 260.003 746.887Z" fill="#0760FB"/>
</g>
<circle cx="258.5" cy="763.5" r="2.5" fill="#0760FB"/>
<path d="M0 790H375V812H0V790Z" fill="white"/>
<rect width="139" height="5" rx="2.5" transform="matrix(-1 0 0 1 257 799)" fill="#0F295C"/>
</g>
<rect width="375" height="105" transform="translate(0 707)" fill="white"/>
<g clip-path="url(#clip2_307_3671)">
<path d="M59.125 748.875V740.542C59.125 740.265 59.0153 740 58.8199 739.805C58.6246 739.61 58.3596 739.5 58.0833 739.5H53.9167C53.6404 739.5 53.3754 739.61 53.1801 739.805C52.9847 740 52.875 740.265 52.875 740.542V748.875" stroke="#87A6DD" stroke-width="1.5" stroke-linecap="round" stroke-linejoin="round"/>
<path d="M46.625 737.417C46.6249 737.114 46.691 736.814 46.8185 736.539C46.9461 736.264 47.1321 736.021 47.3635 735.825L54.6552 729.576C55.0312 729.258 55.5077 729.084 56 729.084C56.4923 729.084 56.9688 729.258 57.3448 729.576L64.6365 735.825C64.8679 736.021 65.0539 736.264 65.1815 736.539C65.309 736.814 65.3751 737.114 65.375 737.417V746.792C65.375 747.344 65.1555 747.874 64.7648 748.265C64.3741 748.656 63.8442 748.875 63.2917 748.875H48.7083C48.1558 748.875 47.6259 748.656 47.2352 748.265C46.8445 747.874 46.625 747.344 46.625 746.792V737.417Z" stroke="#87A6DD" stroke-width="1.5" stroke-linecap="round" stroke-linejoin="round"/>
<text fill="#87A6DD" xml:space="preserve" style="white-space: pre" font-family="Ubuntu" font-size="12" font-weight="500" letter-spacing="-0.04em"><tspan x="37.3951" y="767.458">Accueil</tspan></text>
</g>
<path d="M138.333 729.083V733.25" stroke="#87A6DD" stroke-width="1.5" stroke-linecap="round" stroke-linejoin="round"/>
<path d="M146.667 729.083V733.25" stroke="#87A6DD" stroke-width="1.5" stroke-linecap="round" stroke-linejoin="round"/>
<path d="M149.792 731.167H135.208C134.058 731.167 133.125 732.099 133.125 733.25V747.833C133.125 748.984 134.058 749.917 135.208 749.917H149.792C150.942 749.917 151.875 748.984 151.875 747.833V733.25C151.875 732.099 150.942 731.167 149.792 731.167Z" stroke="#87A6DD" stroke-width="1.5" stroke-linecap="round" stroke-linejoin="round"/>
<path d="M133.125 737.417H151.875" stroke="#87A6DD" stroke-width="1.5" stroke-linecap="round" stroke-linejoin="round"/>
<text fill="#87A6DD" xml:space="preserve" style="white-space: pre" font-family="Ubuntu" font-size="12" font-weight="500" letter-spacing="-0.04em"><tspan x="131.783" y="767.458">EDT</tspan></text>
<g clip-path="url(#clip3_307_3671)">
<path d="M230 749.917C235.753 749.917 240.417 745.253 240.417 739.5C240.417 733.747 235.753 729.083 230 729.083C224.247 729.083 219.583 733.747 219.583 739.5C219.583 745.253 224.247 749.917 230 749.917Z" stroke="#87A6DD" stroke-width="1.5" stroke-linecap="round" stroke-linejoin="round"/>
<path d="M226.875 739.5L228.958 741.583L233.125 737.417" stroke="#87A6DD" stroke-width="1.5" stroke-linecap="round" stroke-linejoin="round"/>
<text fill="#87A6DD" xml:space="preserve" style="white-space: pre" font-family="Ubuntu" font-size="12" font-weight="500" letter-spacing="-0.04em"><tspan x="210.165" y="767.458">Devoirs</tspan></text>
</g>
<path d="M328.333 731.167H311.667C310.516 731.167 309.583 732.099 309.583 733.25V745.75C309.583 746.9 310.516 747.833 311.667 747.833H328.333C329.484 747.833 330.417 746.9 330.417 745.75V733.25C330.417 732.099 329.484 731.167 328.333 731.167Z" stroke="#0760FB" stroke-width="1.5" stroke-linecap="round" stroke-linejoin="round"/>
<path d="M330.417 734.292L321.073 740.229C320.751 740.43 320.379 740.537 320 740.537C319.62 740.537 319.249 740.43 318.927 740.229L309.583 734.292" stroke="#0760FB" stroke-width="1.5" stroke-linecap="round" stroke-linejoin="round"/>
<text fill="#0760FB" xml:space="preserve" style="white-space: pre" font-family="Ubuntu" font-size="12" font-weight="500" letter-spacing="-0.04em"><tspan x="306.271" y="767.458">Mails</tspan></text>
<path d="M0 790H375V812H0V790Z" fill="white"/>
<rect width="139" height="5" rx="2.5" transform="matrix(-1 0 0 1 257 799)" fill="#0F295C"/>
<text fill="#0F295C" xml:space="preserve" style="white-space: pre" font-family="Ubuntu" font-size="15.0682" font-weight="500" letter-spacing="-0.04em"><tspan x="28" y="28.2797">14:16</tspan></text>
<g clip-path="url(#clip4_307_3671)">
<rect x="309.083" y="16.9773" width="2.83636" height="10.6364" rx="0.886364" fill="#0F295C"/>
<rect x="304.385" y="19.1045" width="2.83636" height="8.50909" rx="0.886364" fill="#0F295C"/>
<rect x="299.688" y="21.4089" width="2.83636" height="6.20455" rx="0.886364" fill="#0F295C"/>
<rect x="294.99" y="23.5364" width="2.83636" height="4.07727" rx="0.886364" fill="#0F295C"/>
</g>
<g clip-path="url(#clip5_307_3671)">
<path d="M323.848 24.073C324.472 24.073 325.078 24.2368 325.612 24.5493L325.828 24.6758C325.992 24.7718 326.021 24.9964 325.886 25.1305L324.039 26.9721C323.926 27.0852 323.742 27.0852 323.629 26.9721L321.794 25.1423C321.66 25.0088 321.688 24.7854 321.85 24.6887L322.064 24.5615C322.603 24.2412 323.217 24.073 323.848 24.073Z" fill="#0F295C"/>
<path d="M323.848 20.6899C325.399 20.6899 326.889 21.2045 328.102 22.1574L328.273 22.292C328.41 22.3994 328.422 22.6017 328.299 22.7244L327.196 23.8239C327.094 23.9256 326.933 23.9372 326.817 23.8513L326.683 23.7514C325.864 23.1424 324.876 22.8158 323.848 22.8158C322.815 22.8158 321.821 23.1465 320.999 23.7625L320.864 23.8633C320.749 23.9499 320.587 23.9385 320.484 23.8365L319.382 22.7375C319.259 22.615 319.271 22.4132 319.407 22.3057L319.578 22.1709C320.794 21.2095 322.29 20.6899 323.848 20.6899Z" fill="#0F295C"/>
<path d="M323.848 17.3069C326.31 17.3069 328.664 18.1752 330.527 19.7668L330.686 19.9026C330.815 20.0124 330.822 20.2081 330.703 20.3274L329.604 21.4233C329.497 21.5295 329.327 21.5369 329.212 21.4404L329.076 21.3266C327.609 20.1 325.77 19.4327 323.848 19.4327C321.92 19.4327 320.076 20.1046 318.606 21.3389L318.47 21.4533C318.355 21.5502 318.184 21.5429 318.078 21.4366L316.979 20.3409C316.86 20.2217 316.867 20.0263 316.995 19.9164L317.153 19.7805C319.019 18.1804 321.38 17.3069 323.848 17.3069Z" fill="#0F295C"/>
</g>
<rect x="337" y="18.5112" width="18.6136" height="7.97727" rx="1.17886" fill="#0F295C"/>
<path opacity="0.4" fill-rule="evenodd" clip-rule="evenodd" d="M340.191 17.6249H352.423C353.306 17.6249 353.915 17.6256 354.388 17.6642C354.851 17.702 355.104 17.7716 355.29 17.8664C355.707 18.0789 356.046 18.4178 356.259 18.8348C356.353 19.0208 356.423 19.2743 356.461 19.7368C356.499 20.2096 356.5 20.8188 356.5 21.7022V23.2976C356.5 24.181 356.499 24.7902 356.461 25.263C356.423 25.7255 356.353 25.979 356.259 26.165C356.046 26.5819 355.707 26.9209 355.29 27.1334C355.104 27.2282 354.851 27.2978 354.388 27.3356C353.915 27.3742 353.306 27.3749 352.423 27.3749H340.191C339.308 27.3749 338.698 27.3742 338.226 27.3356C337.763 27.2978 337.51 27.2282 337.324 27.1334C336.907 26.9209 336.568 26.5819 336.355 26.165C336.26 25.979 336.191 25.7255 336.153 25.263C336.114 24.7902 336.114 24.181 336.114 23.2976V21.7022C336.114 20.8188 336.114 20.2096 336.153 19.7368C336.191 19.2743 336.26 19.0208 336.355 18.8348C336.568 18.4178 336.907 18.0789 337.324 17.8664C337.51 17.7716 337.763 17.702 338.226 17.6642C338.698 17.6256 339.308 17.6249 340.191 17.6249ZM335.227 21.7022C335.227 19.9647 335.227 19.096 335.565 18.4324C335.863 17.8487 336.337 17.3741 336.921 17.0767C337.585 16.7385 338.453 16.7385 340.191 16.7385H352.423C354.16 16.7385 355.029 16.7385 355.693 17.0767C356.276 17.3741 356.751 17.8487 357.048 18.4324C357.386 19.096 357.386 19.9647 357.386 21.7022V23.2976C357.386 25.0351 357.386 25.9038 357.048 26.5674C356.751 27.1511 356.276 27.6257 355.693 27.9231C355.029 28.2613 354.16 28.2613 352.423 28.2613H340.191C338.453 28.2613 337.585 28.2613 336.921 27.9231C336.337 27.6257 335.863 27.1511 335.565 26.5674C335.227 25.9038 335.227 25.0351 335.227 23.2976V21.7022ZM358.273 24.2726C359.007 24.0953 359.602 23.4789 359.602 22.4999C359.602 21.5208 359.007 20.9044 358.273 20.7272L358.273 22.4999L358.273 24.2726Z" fill="#0F295C"/>
</g>
<defs>
<filter id="filter0_d_307_3671" x="-52.9" y="691.1" width="479.8" height="193.8" filterUnits="userSpaceOnUse" color-interpolation-filters="sRGB">
<feFlood flood-opacity="0" result="BackgroundImageFix"/>
<feColorMatrix in="SourceAlpha" type="matrix" values="0 0 0 0 0 0 0 0 0 0 0 0 0 0 0 0 0 0 127 0" result="hardAlpha"/>
<feOffset dy="21"/>
<feGaussianBlur stdDeviation="25.95"/>
<feComposite in2="hardAlpha" operator="out"/>
<feColorMatrix type="matrix" values="0 0 0 0 0 0 0 0 0 0 0 0 0 0 0 0 0 0 0.25 0"/>
<feBlend mode="normal" in2="BackgroundImageFix" result="effect1_dropShadow_307_3671"/>
<feBlend mode="normal" in="SourceGraphic" in2="effect1_dropShadow_307_3671" result="shape"/>
</filter>
<clipPath id="clip0_307_3671">
<rect width="375" height="812" fill="white"/>
</clipPath>
<clipPath id="clip1_307_3671">
<rect width="17" height="17" fill="white" transform="translate(250 738)"/>
</clipPath>
<clipPath id="clip2_307_3671">
<rect width="38" height="43" fill="white" transform="translate(37 727)"/>
</clipPath>
<clipPath id="clip3_307_3671">
<rect width="40" height="43" fill="white" transform="translate(210 727)"/>
</clipPath>
<clipPath id="clip4_307_3671">
<rect width="17.7273" height="12.4091" fill="white" transform="translate(294.455 16.2954)"/>
</clipPath>
<clipPath id="clip5_307_3671">
<rect width="17.7273" height="10.6364" fill="white" transform="translate(314.841 17.1819)"/>
</clipPath>
</defs>
</svg>
