<svg width="375" height="812" viewBox="0 0 375 812" fill="none" xmlns="http://www.w3.org/2000/svg">
<rect width="375" height="812" fill="#F3F8FF"/>
<g clip-path="url(#clip0_307_4651)">
<path fill-rule="evenodd" clip-rule="evenodd" d="M30.1107 568.012C30.8956 567.254 31.9468 566.835 33.0379 566.844C34.129 566.854 35.1728 567.291 35.9443 568.063C36.7159 568.834 37.1536 569.878 37.163 570.969C37.1725 572.06 36.7531 573.112 35.995 573.896L35.9875 573.904L33.8626 576.029C33.4407 576.451 32.933 576.777 32.3739 576.986C31.8148 577.195 31.2174 577.28 30.6222 577.238C30.027 577.195 29.4479 577.025 28.9242 576.739C28.4005 576.453 27.9445 576.057 27.5871 575.58C27.3821 575.306 27.438 574.917 27.7122 574.712C27.9863 574.507 28.3747 574.563 28.5797 574.837C28.8307 575.173 29.1508 575.45 29.5185 575.651C29.8862 575.852 30.2928 575.971 30.7107 576.001C31.1286 576.031 31.5481 575.971 31.9406 575.825C32.3332 575.678 32.6897 575.449 32.9859 575.153L32.986 575.153L35.107 573.032C35.637 572.481 35.9302 571.744 35.9235 570.98C35.9169 570.214 35.6096 569.481 35.0678 568.939C34.5261 568.398 33.7932 568.09 33.0271 568.084C32.2625 568.077 31.5257 568.37 30.975 568.901L29.76 570.109C29.5172 570.35 29.1248 570.349 28.8834 570.106C28.6421 569.863 28.6432 569.471 28.886 569.23L30.1043 568.018L30.1107 568.012ZM26.6262 572.014C27.1853 571.806 27.7827 571.72 28.378 571.762C28.9732 571.805 29.5522 571.975 30.0759 572.261C30.5996 572.547 31.0556 572.943 31.413 573.42C31.6181 573.695 31.5621 574.083 31.288 574.288C31.0139 574.493 30.6255 574.437 30.4204 574.163C30.1695 573.827 29.8493 573.55 29.4816 573.349C29.1139 573.148 28.7073 573.029 28.2894 572.999C27.8715 572.969 27.452 573.029 27.0595 573.175C26.6669 573.322 26.3104 573.551 26.0142 573.847L26.0142 573.847L23.8932 575.968C23.3631 576.519 23.07 577.256 23.0766 578.02C23.0833 578.786 23.3906 579.519 23.9323 580.061C24.474 580.602 25.2069 580.91 25.973 580.916C26.7374 580.923 27.4739 580.63 28.0245 580.1L29.2318 578.893C29.4738 578.651 29.8663 578.651 30.1083 578.893C30.3504 579.135 30.3504 579.527 30.1083 579.769L28.8971 580.98L28.8894 580.988C28.1045 581.746 27.0533 582.165 25.9622 582.156C24.8711 582.146 23.8273 581.709 23.0558 580.937C22.2842 580.166 21.8466 579.122 21.8371 578.031C21.8276 576.94 22.247 575.889 23.0051 575.104L23.0126 575.096L25.1376 572.971C25.1376 572.971 25.1376 572.971 25.1376 572.971C25.5595 572.549 26.0672 572.223 26.6262 572.014Z" fill="#0760FB"/>
</g>
<text fill="#0760FB" xml:space="preserve" style="white-space: pre" font-family="Ubuntu" font-size="15" letter-spacing="-0.04em" text-decoration="underline"><tspan x="44" y="580.073">exemple-rapport-de-stage.pdf</tspan></text>
<rect x="22" y="124" width="331" height="358" rx="10" fill="white"/>
<text fill="#0F295C" xml:space="preserve" style="white-space: pre" font-family="Ubuntu" font-size="15" letter-spacing="0em"><tspan x="44" y="195.073">Bonjour,&#10;</tspan><tspan x="44" y="212.073">La majorit&#xe9; d&#39;entre vous ont &#xe0; pr&#xe9;sent 2 </tspan><tspan x="44" y="229.073">semaines de stage. Il est&#10;</tspan><tspan x="44" y="246.073">important de faire un point pr&#xe9;cis &#xe0; votre </tspan><tspan x="44" y="263.073">tuteur IUT le plus rapidement&#10;</tspan><tspan x="44" y="280.073">possible. Certains l&#39;ont d&#xe9;j&#xe0; fait, mais pas </tspan><tspan x="44" y="297.073">tous. Attention, un malus&#10;</tspan><tspan x="44" y="314.073">est pr&#xe9;vu &#xe0; cet effet.&#10;</tspan><tspan x="44" y="331.073">Dans votre mail, il faudra faire un point sur </tspan><tspan x="44" y="348.073">le d&#xe9;roulement du stage,&#10;</tspan><tspan x="44" y="365.073">vos missions, le contexte de l&#39;entreprise et </tspan><tspan x="44" y="382.073">de votre stage, votre&#10;</tspan><tspan x="44" y="399.073">encadrement, ...&#10;</tspan><tspan x="44" y="416.073">&#10;</tspan><tspan x="44" y="433.073">Bien cordialement et tr&#xe8;s bonne </tspan><tspan x="44" y="450.073">continuation.</tspan></text>
<rect x="22" y="503" width="331" height="54" rx="10" fill="white"/>
<text fill="#0F295C" xml:space="preserve" style="white-space: pre" font-family="Ubuntu" font-size="15" letter-spacing="-0.04em"><tspan x="70" y="535.073">Nicolas Roussel</tspan></text>
<path fill-rule="evenodd" clip-rule="evenodd" d="M51 523.229C49.1015 523.229 47.5625 524.768 47.5625 526.667C47.5625 528.565 49.1015 530.104 51 530.104C52.8984 530.104 54.4375 528.565 54.4375 526.667C54.4375 524.768 52.8984 523.229 51 523.229ZM53.8256 530.665C55.0782 529.778 55.8958 528.318 55.8958 526.667C55.8958 523.963 53.7039 521.771 51 521.771C48.2961 521.771 46.1041 523.963 46.1041 526.667C46.1041 528.318 46.9218 529.778 48.1743 530.665C47.2837 531.033 46.465 531.576 45.7703 532.27C44.3833 533.657 43.6041 535.538 43.6041 537.5C43.6041 537.903 43.9306 538.229 44.3333 538.229C44.736 538.229 45.0625 537.903 45.0625 537.5C45.0625 535.925 45.688 534.415 46.8015 533.301C47.915 532.188 49.4252 531.562 51 531.562C52.5747 531.562 54.0849 532.188 55.1984 533.301C56.3119 534.415 56.9375 535.925 56.9375 537.5C56.9375 537.903 57.2639 538.229 57.6666 538.229C58.0693 538.229 58.3958 537.903 58.3958 537.5C58.3958 535.538 57.6166 533.657 56.2296 532.27C55.5349 531.576 54.7163 531.033 53.8256 530.665Z" fill="#0F295C"/>
<text fill="#0F295C" xml:space="preserve" style="white-space: pre" font-family="Ubuntu" font-size="15" font-weight="500" letter-spacing="0em"><tspan x="44" y="162.073">Compte rendu &#xe0; votre tuteur IUT</tspan></text>
<text fill="#0F295C" xml:space="preserve" style="white-space: pre" font-family="Ubuntu" font-size="15" letter-spacing="0em"><tspan x="38" y="79.4302">Retour</tspan></text>
<g clip-path="url(#clip1_307_4651)">
<path d="M29.9605 69.1102C29.9603 69.309 29.8812 69.4997 29.7405 69.6402L25.9045 73.4762C25.7884 73.5923 25.6963 73.7301 25.6334 73.8818C25.5706 74.0335 25.5382 74.196 25.5382 74.3602C25.5382 74.5244 25.5706 74.687 25.6334 74.8386C25.6963 74.9903 25.7884 75.1281 25.9045 75.2442L29.7355 79.0752C29.8721 79.2167 29.9477 79.4061 29.946 79.6028C29.9443 79.7994 29.8654 79.9875 29.7263 80.1266C29.5873 80.2656 29.3992 80.3445 29.2025 80.3462C29.0059 80.3479 28.8164 80.2723 28.675 80.1357L24.844 76.3077C24.3289 75.7916 24.0396 75.0922 24.0396 74.363C24.0396 73.6338 24.3289 72.9343 24.844 72.4182L28.68 68.5797C28.7849 68.4747 28.9185 68.4033 29.0641 68.3743C29.2096 68.3453 29.3604 68.3602 29.4975 68.417C29.6346 68.4738 29.7518 68.5699 29.8342 68.6933C29.9166 68.8167 29.9605 68.9618 29.9605 69.1102Z" fill="#0F295C"/>
</g>
<text fill="#0F295C" xml:space="preserve" style="white-space: pre" font-family="Ubuntu" font-size="17" font-weight="500" letter-spacing="0em"><tspan x="106.258" y="80.6732">D&#xe9;tails d&#x2019;un mail</tspan></text>
<text fill="#0F295C" xml:space="preserve" style="white-space: pre" font-family="Ubuntu" font-size="15.0682" font-weight="500" letter-spacing="-0.04em"><tspan x="28" y="28.2797">14:16</tspan></text>
<g clip-path="url(#clip2_307_4651)">
<rect x="309.083" y="16.9773" width="2.83636" height="10.6364" rx="0.886364" fill="#0F295C"/>
<rect x="304.385" y="19.1045" width="2.83636" height="8.50909" rx="0.886364" fill="#0F295C"/>
<rect x="299.688" y="21.4089" width="2.83636" height="6.20455" rx="0.886364" fill="#0F295C"/>
<rect x="294.99" y="23.5364" width="2.83636" height="4.07727" rx="0.886364" fill="#0F295C"/>
</g>
<g clip-path="url(#clip3_307_4651)">
<path d="M323.848 24.073C324.472 24.073 325.078 24.2368 325.612 24.5493L325.828 24.6758C325.992 24.7718 326.021 24.9964 325.886 25.1305L324.04 26.9721C323.926 27.0852 323.742 27.0852 323.629 26.9721L321.794 25.1423C321.66 25.0088 321.688 24.7854 321.851 24.6887L322.064 24.5615C322.603 24.2412 323.217 24.073 323.848 24.073Z" fill="#0F295C"/>
<path d="M323.848 20.6899C325.399 20.6899 326.889 21.2045 328.102 22.1574L328.273 22.292C328.41 22.3994 328.422 22.6017 328.299 22.7244L327.196 23.8239C327.094 23.9256 326.933 23.9372 326.818 23.8513L326.683 23.7514C325.864 23.1424 324.876 22.8158 323.848 22.8158C322.815 22.8158 321.821 23.1465 320.999 23.7625L320.864 23.8633C320.749 23.9499 320.587 23.9385 320.484 23.8365L319.382 22.7375C319.26 22.615 319.271 22.4132 319.407 22.3057L319.578 22.1709C320.794 21.2095 322.29 20.6899 323.848 20.6899Z" fill="#0F295C"/>
<path d="M323.848 17.3069C326.31 17.3069 328.664 18.1752 330.527 19.7668L330.686 19.9026C330.815 20.0124 330.822 20.2081 330.703 20.3274L329.604 21.4233C329.497 21.5295 329.327 21.5369 329.212 21.4404L329.076 21.3266C327.609 20.1 325.77 19.4327 323.848 19.4327C321.92 19.4327 320.076 20.1046 318.607 21.3389L318.47 21.4533C318.355 21.5502 318.185 21.5429 318.078 21.4366L316.979 20.3409C316.86 20.2217 316.867 20.0263 316.995 19.9164L317.154 19.7805C319.019 18.1804 321.38 17.3069 323.848 17.3069Z" fill="#0F295C"/>
</g>
<rect x="337" y="18.5112" width="18.6136" height="7.97727" rx="1.17886" fill="#0F295C"/>
<path opacity="0.4" fill-rule="evenodd" clip-rule="evenodd" d="M340.191 17.6249H352.423C353.306 17.6249 353.915 17.6256 354.388 17.6642C354.851 17.702 355.104 17.7716 355.29 17.8664C355.707 18.0789 356.046 18.4178 356.259 18.8348C356.353 19.0208 356.423 19.2743 356.461 19.7368C356.499 20.2096 356.5 20.8188 356.5 21.7022V23.2976C356.5 24.181 356.499 24.7902 356.461 25.263C356.423 25.7255 356.353 25.979 356.259 26.165C356.046 26.5819 355.707 26.9209 355.29 27.1334C355.104 27.2282 354.851 27.2978 354.388 27.3356C353.915 27.3742 353.306 27.3749 352.423 27.3749H340.191C339.308 27.3749 338.698 27.3742 338.226 27.3356C337.763 27.2978 337.51 27.2282 337.324 27.1334C336.907 26.9209 336.568 26.5819 336.355 26.165C336.26 25.979 336.191 25.7255 336.153 25.263C336.114 24.7902 336.114 24.181 336.114 23.2976V21.7022C336.114 20.8188 336.114 20.2096 336.153 19.7368C336.191 19.2743 336.26 19.0208 336.355 18.8348C336.568 18.4178 336.907 18.0789 337.324 17.8664C337.51 17.7716 337.763 17.702 338.226 17.6642C338.698 17.6256 339.308 17.6249 340.191 17.6249ZM335.227 21.7022C335.227 19.9647 335.227 19.096 335.565 18.4324C335.863 17.8487 336.337 17.3741 336.921 17.0767C337.585 16.7385 338.453 16.7385 340.191 16.7385H352.423C354.16 16.7385 355.029 16.7385 355.693 17.0767C356.276 17.3741 356.751 17.8487 357.048 18.4324C357.386 19.096 357.386 19.9647 357.386 21.7022V23.2976C357.386 25.0351 357.386 25.9038 357.048 26.5674C356.751 27.1511 356.276 27.6257 355.693 27.9231C355.029 28.2613 354.16 28.2613 352.423 28.2613H340.191C338.453 28.2613 337.585 28.2613 336.921 27.9231C336.337 27.6257 335.863 27.1511 335.565 26.5674C335.227 25.9038 335.227 25.0351 335.227 23.2976V21.7022ZM358.273 24.2726C359.007 24.0953 359.602 23.4789 359.602 22.4999C359.602 21.5208 359.007 20.9044 358.273 20.7272L358.273 22.4999L358.273 24.2726Z" fill="#0F295C"/>
<defs>
<clipPath id="clip0_307_4651">
<rect width="17" height="17" fill="white" transform="translate(21 566)"/>
</clipPath>
<clipPath id="clip1_307_4651">
<rect width="12" height="12" fill="white" transform="translate(21 68.3577)"/>
</clipPath>
<clipPath id="clip2_307_4651">
<rect width="17.7273" height="12.4091" fill="white" transform="translate(294.455 16.2954)"/>
</clipPath>
<clipPath id="clip3_307_4651">
<rect width="17.7273" height="10.6364" fill="white" transform="translate(314.841 17.1819)"/>
</clipPath>
</defs>
</svg>
