<svg width="375" height="812" viewBox="0 0 375 812" fill="none" xmlns="http://www.w3.org/2000/svg">
<rect width="375" height="812" fill="#F3F8FF"/>
<rect x="17" y="113" width="341" height="50" rx="10" fill="white"/>
<rect x="29.0002" y="123" width="30" height="30" rx="8" fill="#0F4199"/>
<path d="M46.2502 139.5C46.4002 138.75 46.7752 138.225 47.3752 137.625C48.1252 136.95 48.5002 135.975 48.5002 135C48.5002 133.807 48.0261 132.662 47.1822 131.818C46.3383 130.974 45.1937 130.5 44.0002 130.5C42.8068 130.5 41.6622 130.974 40.8183 131.818C39.9744 132.662 39.5002 133.807 39.5002 135C39.5002 135.75 39.6502 136.65 40.6252 137.625C41.1502 138.15 41.6002 138.75 41.7502 139.5M41.7502 142.5H46.2502M42.5002 145.5H45.5002" stroke="#D6EDFF" stroke-width="1.16667" stroke-linecap="round" stroke-linejoin="round"/>
<text fill="#0F4199" xml:space="preserve" style="white-space: pre" font-family="Ubuntu" font-size="15" letter-spacing="-0.04em"><tspan x="69.0002" y="143.573">Th&#xe8;me sombre</tspan></text>
<rect x="313" y="129" width="33" height="18" rx="9" fill="#0760FB"/>
<ellipse cx="336.27" cy="138" rx="6.34615" ry="6.42857" fill="white"/>
<rect x="17" y="183" width="341" height="110" rx="10" fill="white"/>
<rect x="29.0002" y="193" width="30" height="30" rx="8" fill="#0F4199"/>
<g clip-path="url(#clip0_4258_5336)">
<path d="M45.1252 204.25C45.3324 204.25 45.5002 204.082 45.5002 203.875C45.5002 203.668 45.3324 203.5 45.1252 203.5C44.9181 203.5 44.7502 203.668 44.7502 203.875C44.7502 204.082 44.9181 204.25 45.1252 204.25Z" stroke="#D6EDFF" stroke-width="1.16667" stroke-linecap="round" stroke-linejoin="round"/>
<path d="M48.1252 207.25C48.3324 207.25 48.5002 207.082 48.5002 206.875C48.5002 206.668 48.3324 206.5 48.1252 206.5C47.9181 206.5 47.7502 206.668 47.7502 206.875C47.7502 207.082 47.9181 207.25 48.1252 207.25Z" stroke="#D6EDFF" stroke-width="1.16667" stroke-linecap="round" stroke-linejoin="round"/>
<path d="M41.3752 205C41.5824 205 41.7502 204.832 41.7502 204.625C41.7502 204.418 41.5824 204.25 41.3752 204.25C41.1681 204.25 41.0002 204.418 41.0002 204.625C41.0002 204.832 41.1681 205 41.3752 205Z" stroke="#D6EDFF" stroke-width="1.16667" stroke-linecap="round" stroke-linejoin="round"/>
<path d="M39.8752 208.75C40.0824 208.75 40.2502 208.582 40.2502 208.375C40.2502 208.168 40.0824 208 39.8752 208C39.6681 208 39.5002 208.168 39.5002 208.375C39.5002 208.582 39.6681 208.75 39.8752 208.75Z" stroke="#D6EDFF" stroke-width="1.16667" stroke-linecap="round" stroke-linejoin="round"/>
<path d="M44.0002 200.5C39.8752 200.5 36.5002 203.875 36.5002 208C36.5002 212.125 39.8752 215.5 44.0002 215.5C44.6947 215.5 45.2362 214.941 45.2362 214.234C45.2362 213.906 45.1012 213.608 44.9085 213.39C44.691 213.174 44.58 212.901 44.58 212.547C44.5772 212.381 44.6076 212.217 44.6694 212.064C44.7313 211.911 44.8233 211.772 44.9401 211.656C45.0568 211.539 45.1959 211.447 45.3489 211.385C45.502 211.323 45.6659 211.293 45.831 211.295H47.328C49.6162 211.295 51.4942 209.418 51.4942 207.13C51.474 203.509 48.096 200.5 44.0002 200.5Z" stroke="#D6EDFF" stroke-width="1.16667" stroke-linecap="round" stroke-linejoin="round"/>
</g>
<text fill="#0F4199" xml:space="preserve" style="white-space: pre" font-family="Ubuntu" font-size="15" letter-spacing="-0.04em"><tspan x="69.0002" y="213.573">Th&#xe8;me de couleur</tspan></text>
<rect x="29" y="233" width="58" height="26" rx="5" fill="#0F4199"/>
<text fill="#0F4199" xml:space="preserve" style="white-space: pre" font-family="Ubuntu" font-size="11" letter-spacing="-0.04em"><tspan x="44" y="272.587">Azure</tspan></text>
<g opacity="0.25">
<rect x="93.75" y="233" width="58" height="26" rx="5" fill="#D500AE"/>
<text fill="#D400AE" xml:space="preserve" style="white-space: pre" font-family="Ubuntu" font-size="11" letter-spacing="-0.04em"><tspan x="110.75" y="272.587">Petal</tspan></text>
</g>
<g opacity="0.25">
<rect x="158.5" y="233" width="58" height="26" rx="5" fill="#8700D5"/>
<text fill="#8700D4" xml:space="preserve" style="white-space: pre" font-family="Ubuntu" font-size="11" letter-spacing="-0.04em"><tspan x="164.5" y="272.587">Am&#xe9;thyst</tspan></text>
</g>
<g opacity="0.25">
<rect x="223.25" y="233" width="58" height="26" rx="5" fill="#D5BC00"/>
<text fill="#D4BC00" xml:space="preserve" style="white-space: pre" font-family="Ubuntu" font-size="11" letter-spacing="-0.04em"><tspan x="238.75" y="272.587">Corail</tspan></text>
</g>
<g opacity="0.25">
<rect x="288" y="233" width="58" height="26" rx="5" fill="#19D500"/>
<text fill="#19D400" xml:space="preserve" style="white-space: pre" font-family="Ubuntu" font-size="11" letter-spacing="-0.04em"><tspan x="297.5" y="272.587">Emerald</tspan></text>
</g>
<text fill="#0F295C" xml:space="preserve" style="white-space: pre" font-family="Ubuntu" font-size="15" letter-spacing="0em"><tspan x="38" y="79.0725">Retour</tspan></text>
<path d="M29.9605 68.7523C29.9603 68.9511 29.8812 69.1418 29.7405 69.2823L25.9045 73.1183C25.7884 73.2344 25.6963 73.3722 25.6334 73.5239C25.5706 73.6755 25.5382 73.8381 25.5382 74.0023C25.5382 74.1665 25.5706 74.329 25.6334 74.4807C25.6963 74.6324 25.7884 74.7702 25.9045 74.8863L29.7355 78.7173C29.8721 78.8587 29.9477 79.0482 29.946 79.2448C29.9443 79.4415 29.8654 79.6296 29.7263 79.7687C29.5873 79.9077 29.3992 79.9866 29.2025 79.9883C29.0059 79.99 28.8164 79.9144 28.675 79.7778L24.844 75.9498C24.3289 75.4337 24.0396 74.7342 24.0396 74.005C24.0396 73.2758 24.3289 72.5764 24.844 72.0603L28.68 68.2218C28.7849 68.1168 28.9185 68.0454 29.0641 68.0164C29.2096 67.9874 29.3604 68.0023 29.4975 68.0591C29.6346 68.1159 29.7518 68.212 29.8342 68.3354C29.9166 68.4588 29.9605 68.6039 29.9605 68.7523Z" fill="#0F295C"/>
<text fill="#0F295C" xml:space="preserve" style="white-space: pre" font-family="Ubuntu" font-size="17" font-weight="500" letter-spacing="0em"><tspan x="106.004" y="80.3155">Couleurs</tspan></text>
<text fill="#0F295C" xml:space="preserve" style="white-space: pre" font-family="Ubuntu" font-size="15.0682" font-weight="500" letter-spacing="-0.04em"><tspan x="28" y="28.2795">14:16</tspan></text>
<g clip-path="url(#clip1_4258_5336)">
<rect x="309.083" y="16.9771" width="2.83636" height="10.6364" rx="0.886364" fill="#0F295C"/>
<rect x="304.385" y="19.1045" width="2.83636" height="8.50909" rx="0.886364" fill="#0F295C"/>
<rect x="299.688" y="21.4092" width="2.83636" height="6.20455" rx="0.886364" fill="#0F295C"/>
<rect x="294.99" y="23.5361" width="2.83636" height="4.07727" rx="0.886364" fill="#0F295C"/>
</g>
<g clip-path="url(#clip2_4258_5336)">
<path d="M323.848 24.0728C324.472 24.0728 325.078 24.2366 325.612 24.549L325.828 24.6756C325.992 24.7716 326.021 24.9961 325.886 25.1302L324.04 26.9718C323.926 27.0849 323.742 27.0849 323.629 26.9718L321.794 25.1421C321.66 25.0086 321.688 24.7851 321.851 24.6884L322.064 24.5613C322.603 24.241 323.217 24.0728 323.848 24.0728Z" fill="#0F295C"/>
<path d="M323.848 20.6899C325.399 20.6899 326.889 21.2045 328.102 22.1574L328.273 22.292C328.41 22.3994 328.422 22.6017 328.299 22.7244L327.196 23.8239C327.094 23.9256 326.933 23.9372 326.818 23.8513L326.683 23.7514C325.864 23.1424 324.876 22.8158 323.848 22.8158C322.815 22.8158 321.821 23.1465 320.999 23.7625L320.864 23.8633C320.749 23.9499 320.587 23.9385 320.484 23.8365L319.382 22.7375C319.26 22.615 319.271 22.4132 319.407 22.3057L319.578 22.1709C320.794 21.2095 322.29 20.6899 323.848 20.6899Z" fill="#0F295C"/>
<path d="M323.848 17.3066C326.31 17.3066 328.664 18.1749 330.527 19.7665L330.686 19.9024C330.815 20.0122 330.822 20.2078 330.703 20.3272L329.604 21.423C329.497 21.5292 329.327 21.5367 329.212 21.4402L329.076 21.3264C327.609 20.0997 325.77 19.4325 323.848 19.4325C321.92 19.4325 320.076 20.1043 318.607 21.3387L318.47 21.453C318.355 21.5499 318.185 21.5427 318.078 21.4363L316.979 20.3406C316.86 20.2214 316.867 20.0261 316.995 19.9162L317.154 19.7803C319.019 18.1801 321.38 17.3066 323.848 17.3066Z" fill="#0F295C"/>
</g>
<rect x="337" y="18.5112" width="18.6136" height="7.97727" rx="1.17886" fill="#0F295C"/>
<path opacity="0.4" fill-rule="evenodd" clip-rule="evenodd" d="M340.191 17.6251H352.423C353.306 17.6251 353.915 17.6258 354.388 17.6645C354.851 17.7022 355.104 17.7719 355.29 17.8667C355.707 18.0791 356.046 18.4181 356.259 18.835C356.353 19.0211 356.423 19.2745 356.461 19.737C356.499 20.2099 356.5 20.8191 356.5 21.7024V23.2979C356.5 24.1812 356.499 24.7904 356.461 25.2632C356.423 25.7257 356.353 25.9792 356.259 26.1652C356.046 26.5822 355.707 26.9212 355.29 27.1336C355.104 27.2284 354.851 27.298 354.388 27.3358C353.915 27.3744 353.306 27.3751 352.423 27.3751H340.191C339.308 27.3751 338.698 27.3744 338.226 27.3358C337.763 27.298 337.51 27.2284 337.324 27.1336C336.907 26.9212 336.568 26.5822 336.355 26.1652C336.26 25.9792 336.191 25.7257 336.153 25.2632C336.114 24.7904 336.114 24.1812 336.114 23.2979V21.7024C336.114 20.8191 336.114 20.2099 336.153 19.737C336.191 19.2745 336.26 19.0211 336.355 18.835C336.568 18.4181 336.907 18.0791 337.324 17.8667C337.51 17.7719 337.763 17.7022 338.226 17.6645C338.698 17.6258 339.308 17.6251 340.191 17.6251ZM335.227 21.7024C335.227 19.965 335.227 19.0963 335.565 18.4326C335.863 17.8489 336.337 17.3743 336.921 17.0769C337.585 16.7388 338.453 16.7388 340.191 16.7388H352.423C354.16 16.7388 355.029 16.7388 355.693 17.0769C356.276 17.3743 356.751 17.8489 357.048 18.4326C357.386 19.0963 357.386 19.965 357.386 21.7024V23.2979C357.386 25.0353 357.386 25.904 357.048 26.5676C356.751 27.1514 356.276 27.6259 355.693 27.9234C355.029 28.2615 354.16 28.2615 352.423 28.2615H340.191C338.453 28.2615 337.585 28.2615 336.921 27.9234C336.337 27.6259 335.863 27.1514 335.565 26.5676C335.227 25.904 335.227 25.0353 335.227 23.2979V21.7024ZM358.273 24.2729C359.007 24.0956 359.602 23.4792 359.602 22.5001C359.602 21.5211 359.007 20.9047 358.273 20.7274L358.273 22.5001L358.273 24.2729Z" fill="#0F295C"/>
<defs>
<clipPath id="clip0_4258_5336">
<rect width="18" height="18" fill="white" transform="translate(35.0002 199)"/>
</clipPath>
<clipPath id="clip1_4258_5336">
<rect width="17.7273" height="12.4091" fill="white" transform="translate(294.455 16.2954)"/>
</clipPath>
<clipPath id="clip2_4258_5336">
<rect width="17.7273" height="10.6364" fill="white" transform="translate(314.841 17.1816)"/>
</clipPath>
</defs>
</svg>
