<svg width="375" height="812" viewBox="0 0 375 812" fill="none" xmlns="http://www.w3.org/2000/svg">
<rect width="375" height="812" fill="#F3F8FF"/>
<text fill="#87A6DD" xml:space="preserve" style="white-space: pre" font-family="Ubuntu" font-size="13" letter-spacing="-0.04em"><tspan x="27.0006" y="787.33">Cette modification sera visible pour tous les &#xe9;tudiants du TP</tspan></text>
<rect x="16" y="721" width="344" height="40" rx="10" fill="#0760FB"/>
<text fill="white" xml:space="preserve" style="white-space: pre" font-family="Ubuntu" font-size="17" letter-spacing="-0.04em"><tspan x="157.101" y="747.316">Modifier</tspan></text>
<text fill="#0F295C" xml:space="preserve" style="white-space: pre" font-family="Ubuntu" font-size="15" letter-spacing="0em"><tspan x="38" y="79.4302">Retour</tspan></text>
<g clip-path="url(#clip0_4224_10018)">
<path d="M29.9605 69.1102C29.9603 69.309 29.8812 69.4997 29.7405 69.6402L25.9045 73.4762C25.7884 73.5923 25.6963 73.7301 25.6334 73.8818C25.5706 74.0335 25.5382 74.196 25.5382 74.3602C25.5382 74.5244 25.5706 74.687 25.6334 74.8386C25.6963 74.9903 25.7884 75.1281 25.9045 75.2442L29.7355 79.0752C29.8721 79.2167 29.9477 79.4061 29.946 79.6028C29.9443 79.7994 29.8654 79.9875 29.7263 80.1266C29.5873 80.2656 29.3992 80.3445 29.2025 80.3462C29.0059 80.3479 28.8164 80.2723 28.675 80.1357L24.844 76.3077C24.3289 75.7916 24.0396 75.0922 24.0396 74.363C24.0396 73.6338 24.3289 72.9343 24.844 72.4182L28.68 68.5797C28.7849 68.4747 28.9185 68.4033 29.0641 68.3743C29.2096 68.3453 29.3604 68.3602 29.4975 68.417C29.6346 68.4738 29.7518 68.5699 29.8342 68.6933C29.9166 68.8167 29.9605 68.9618 29.9605 69.1102Z" fill="#0F295C"/>
</g>
<text fill="#0F295C" xml:space="preserve" style="white-space: pre" font-family="Ubuntu" font-size="17" font-weight="500" letter-spacing="0em"><tspan x="106.394" y="80.6732">Ajouter une t&#xe2;che</tspan></text>
<rect x="15" y="112" width="165" height="30" rx="15" fill="#B7E1FF"/>
<text fill="#0F4199" xml:space="preserve" style="white-space: pre" font-family="Ubuntu" font-size="15" letter-spacing="0em"><tspan x="77.4816" y="132.073">T&#xe2;che</tspan></text>
<rect x="195.5" y="112.5" width="164" height="29" rx="14.5" stroke="#B7E1FF"/>
<text fill="#4BB5FF" xml:space="preserve" style="white-space: pre" font-family="Ubuntu" font-size="15" letter-spacing="0em"><tspan x="241.962" y="132.073">&#xc9;valuation</tspan></text>
<rect x="51" y="156" width="309" height="45" rx="10" fill="white"/>
<text fill="#0F4199" xml:space="preserve" style="white-space: pre" font-family="Ubuntu" font-size="15" letter-spacing="0em"><tspan x="69.8087" y="184.073">Finir de lire le livre</tspan></text>
<path fill-rule="evenodd" clip-rule="evenodd" d="M21.25 174.104C21.5261 174.104 21.7786 174.26 21.9021 174.507L24.3956 179.494C24.4003 179.503 24.4048 179.512 24.4092 179.521L25.6521 182.007C25.8322 182.368 25.6862 182.806 25.326 182.986C24.9659 183.166 24.5279 183.02 24.3478 182.66L23.2993 180.563H19.2006L18.1521 182.66C17.972 183.02 17.5341 183.166 17.1739 182.986C16.8137 182.806 16.6677 182.368 16.8478 182.007L18.0907 179.521C18.0951 179.512 18.0996 179.503 18.1043 179.494L20.5978 174.507C20.7213 174.26 20.9738 174.104 21.25 174.104ZM19.9298 179.104H22.5701L21.25 176.464L19.9298 179.104ZM30.4166 178.063C30.0575 178.063 29.713 178.205 29.4591 178.459C29.2051 178.713 29.0625 179.058 29.0625 179.417V179.938H31.7708V179.417C31.7708 179.058 31.6281 178.713 31.3742 178.459C31.1202 178.205 30.7758 178.063 30.4166 178.063ZM33.2291 179.417C33.2291 178.671 32.9328 177.955 32.4054 177.428C31.8779 176.901 31.1625 176.604 30.4166 176.604C29.6707 176.604 28.9553 176.901 28.4279 177.428C27.9004 177.955 27.6041 178.671 27.6041 179.417V182.333C27.6041 182.736 27.9306 183.063 28.3333 183.063C28.736 183.063 29.0625 182.736 29.0625 182.333V181.396H31.7708V182.333C31.7708 182.736 32.0972 183.063 32.5 183.063C32.9027 183.063 33.2291 182.736 33.2291 182.333V179.417Z" fill="#0F4199"/>
<path fill-rule="evenodd" clip-rule="evenodd" d="M23.6667 226.938C24.0694 226.938 24.3959 227.264 24.3959 227.667V228.604H29.6042V227.667C29.6042 227.264 29.9307 226.938 30.3334 226.938C30.7361 226.938 31.0625 227.264 31.0625 227.667V228.604H32.8334C34.1566 228.604 35.2292 229.677 35.2292 231V242.667C35.2292 243.99 34.1566 245.062 32.8334 245.062H21.1667C19.8435 245.062 18.7709 243.99 18.7709 242.667V231C18.7709 229.677 19.8435 228.604 21.1667 228.604H22.9375V227.667C22.9375 227.264 23.264 226.938 23.6667 226.938ZM22.9375 230.062H21.1667C20.6489 230.062 20.2292 230.482 20.2292 231V233.604H33.7709V231C33.7709 230.482 33.3511 230.062 32.8334 230.062H31.0625V231C31.0625 231.403 30.7361 231.729 30.3334 231.729C29.9307 231.729 29.6042 231.403 29.6042 231V230.062H24.3959V231C24.3959 231.403 24.0694 231.729 23.6667 231.729C23.264 231.729 22.9375 231.403 22.9375 231V230.062ZM33.7709 235.062H20.2292V242.667C20.2292 243.184 20.6489 243.604 21.1667 243.604H32.8334C33.3511 243.604 33.7709 243.184 33.7709 242.667V235.062Z" fill="#0F4199"/>
<rect x="51" y="215" width="309" height="45" rx="10" fill="white"/>
<text fill="#0F4199" xml:space="preserve" style="white-space: pre" font-family="Ubuntu" font-size="15" letter-spacing="0em"><tspan x="72" y="242.073">02/09/2024</tspan></text>
<rect x="51" y="274" width="309" height="45" rx="10" fill="white"/>
<text fill="#0F4199" xml:space="preserve" style="white-space: pre" font-family="Ubuntu" font-size="15" letter-spacing="0em"><tspan x="69.8087" y="302.073">Anglais</tspan></text>
<path fill-rule="evenodd" clip-rule="evenodd" d="M26.0063 288.653C26.3183 288.511 26.6571 288.437 27 288.437C27.3429 288.437 27.6819 288.511 27.9939 288.653L35.1273 291.902C35.404 292.021 35.6409 292.216 35.8092 292.466C35.9801 292.719 36.0729 293.017 36.0761 293.323C36.0768 293.398 36.0723 293.472 36.0625 293.545V298.333C36.0625 298.736 35.736 299.063 35.3333 299.063C34.9306 299.063 34.6042 298.736 34.6042 298.333V295.014L32.7292 295.865V298.333C32.7292 299.412 31.8897 300.239 30.8616 300.753C29.7995 301.284 28.4101 301.563 27 301.563C25.5899 301.563 24.2005 301.284 23.1384 300.753C22.1103 300.239 21.2708 299.412 21.2708 298.333V295.854L18.8683 294.759C18.5927 294.637 18.3582 294.437 18.1931 294.185C18.027 293.931 17.9385 293.634 17.9385 293.33C17.9385 293.026 18.027 292.729 18.1931 292.475C18.3582 292.223 18.5928 292.023 18.8686 291.901L26.0057 288.653C26.0059 288.653 26.0062 288.653 26.0063 288.653C26.0064 288.653 26.0062 288.653 26.0063 288.653ZM22.7292 296.519V298.333C22.7292 298.58 22.9432 299.025 23.7906 299.449C24.6038 299.856 25.7579 300.104 27 300.104C28.2421 300.104 29.3962 299.856 30.2094 299.449C31.0568 299.025 31.2708 298.58 31.2708 298.333V296.527L27.9943 298.013C27.994 298.014 27.9937 298.014 27.9935 298.014C27.6816 298.156 27.3428 298.23 27 298.23C26.6569 298.23 26.3179 298.156 26.0058 298.013C26.0058 298.013 26.0058 298.014 26.0058 298.013L22.7292 296.519ZM34.6054 293.29C34.6046 293.304 34.6042 293.319 34.6042 293.333V293.391C34.6032 293.392 34.6022 293.394 34.6012 293.396C34.5902 293.413 34.5743 293.426 34.5557 293.435L34.5487 293.438L27.3903 296.686L27.3891 296.687C27.2669 296.742 27.1342 296.771 27 296.771C26.8658 296.771 26.7331 296.742 26.6109 296.687L19.4692 293.43L19.4592 293.425C19.4406 293.417 19.4249 293.404 19.4138 293.387C19.4027 293.37 19.3968 293.35 19.3968 293.33C19.3968 293.31 19.4027 293.29 19.4138 293.273C19.4249 293.256 19.4406 293.243 19.4592 293.235L19.4687 293.23L26.6109 289.98C26.7331 289.924 26.8658 289.896 27 289.896C27.1342 289.896 27.2669 289.924 27.3891 289.98L34.5319 293.234C34.5391 293.237 34.5464 293.24 34.5537 293.243C34.5725 293.251 34.5886 293.264 34.6 293.281C34.602 293.284 34.6038 293.287 34.6054 293.29Z" fill="#0F4199"/>
<path d="M51 343C51 337.477 55.01 333 59.9565 333H351.043C355.99 333 360 337.477 360 343V459C360 464.523 355.99 469 351.043 469H59.9565C55.01 469 51 464.523 51 459V343Z" fill="white"/>
<text fill="#87A6DD" xml:space="preserve" style="white-space: pre" font-family="Ubuntu" font-size="15" letter-spacing="0em"><tspan x="69.8086" y="361.573">Entrer une description de la t&#xe2;che&#10;</tspan><tspan x="69.8086" y="383.573">(ex : consignes, lieu du rendu, mail de </tspan><tspan x="69.8086" y="405.573">l&#x2019;enseignant.e...)</tspan></text>
<path fill-rule="evenodd" clip-rule="evenodd" d="M20.7709 350C20.7709 349.597 21.0973 349.271 21.5 349.271H36.5C36.9028 349.271 37.2292 349.597 37.2292 350C37.2292 350.403 36.9028 350.729 36.5 350.729H21.5C21.0973 350.729 20.7709 350.403 20.7709 350ZM20.7709 355C20.7709 354.597 21.0973 354.271 21.5 354.271H31.5C31.9027 354.271 32.2292 354.597 32.2292 355C32.2292 355.403 31.9027 355.729 31.5 355.729H21.5C21.0973 355.729 20.7709 355.403 20.7709 355ZM20.7709 360C20.7709 359.597 21.0973 359.271 21.5 359.271H33.1667C33.5694 359.271 33.8959 359.597 33.8959 360C33.8959 360.403 33.5694 360.729 33.1667 360.729H21.5C21.0973 360.729 20.7709 360.403 20.7709 360Z" fill="#0F4199"/>
<text fill="#0F295C" xml:space="preserve" style="white-space: pre" font-family="Ubuntu" font-size="15.0682" font-weight="500" letter-spacing="-0.04em"><tspan x="28" y="28.2797">14:16</tspan></text>
<g clip-path="url(#clip1_4224_10018)">
<rect x="309.083" y="16.9773" width="2.83636" height="10.6364" rx="0.886364" fill="#0F295C"/>
<rect x="304.385" y="19.1045" width="2.83636" height="8.50909" rx="0.886364" fill="#0F295C"/>
<rect x="299.688" y="21.4089" width="2.83636" height="6.20455" rx="0.886364" fill="#0F295C"/>
<rect x="294.99" y="23.5364" width="2.83636" height="4.07727" rx="0.886364" fill="#0F295C"/>
</g>
<g clip-path="url(#clip2_4224_10018)">
<path d="M323.848 24.073C324.472 24.073 325.078 24.2368 325.612 24.5493L325.828 24.6758C325.992 24.7718 326.021 24.9964 325.886 25.1305L324.04 26.9721C323.926 27.0852 323.742 27.0852 323.629 26.9721L321.794 25.1423C321.66 25.0088 321.688 24.7854 321.851 24.6887L322.064 24.5615C322.603 24.2412 323.217 24.073 323.848 24.073Z" fill="#0F295C"/>
<path d="M323.848 20.6899C325.399 20.6899 326.889 21.2045 328.102 22.1574L328.273 22.292C328.41 22.3994 328.422 22.6017 328.299 22.7244L327.196 23.8239C327.094 23.9256 326.933 23.9372 326.818 23.8513L326.683 23.7514C325.864 23.1424 324.876 22.8158 323.848 22.8158C322.815 22.8158 321.821 23.1465 320.999 23.7625L320.864 23.8633C320.749 23.9499 320.587 23.9385 320.484 23.8365L319.382 22.7375C319.26 22.615 319.271 22.4132 319.407 22.3057L319.578 22.1709C320.794 21.2095 322.29 20.6899 323.848 20.6899Z" fill="#0F295C"/>
<path d="M323.848 17.3069C326.31 17.3069 328.664 18.1752 330.527 19.7668L330.686 19.9026C330.815 20.0124 330.822 20.2081 330.703 20.3274L329.604 21.4233C329.497 21.5295 329.327 21.5369 329.212 21.4404L329.076 21.3266C327.609 20.1 325.77 19.4327 323.848 19.4327C321.92 19.4327 320.076 20.1046 318.607 21.3389L318.47 21.4533C318.355 21.5502 318.185 21.5429 318.078 21.4366L316.979 20.3409C316.86 20.2217 316.867 20.0263 316.995 19.9164L317.154 19.7805C319.019 18.1804 321.38 17.3069 323.848 17.3069Z" fill="#0F295C"/>
</g>
<rect x="337" y="18.5112" width="18.6136" height="7.97727" rx="1.17886" fill="#0F295C"/>
<path opacity="0.4" fill-rule="evenodd" clip-rule="evenodd" d="M340.191 17.6249H352.423C353.306 17.6249 353.915 17.6256 354.388 17.6642C354.851 17.702 355.104 17.7716 355.29 17.8664C355.707 18.0789 356.046 18.4178 356.259 18.8348C356.353 19.0208 356.423 19.2743 356.461 19.7368C356.499 20.2096 356.5 20.8188 356.5 21.7022V23.2976C356.5 24.181 356.499 24.7902 356.461 25.263C356.423 25.7255 356.353 25.979 356.259 26.165C356.046 26.5819 355.707 26.9209 355.29 27.1334C355.104 27.2282 354.851 27.2978 354.388 27.3356C353.915 27.3742 353.306 27.3749 352.423 27.3749H340.191C339.308 27.3749 338.698 27.3742 338.226 27.3356C337.763 27.2978 337.51 27.2282 337.324 27.1334C336.907 26.9209 336.568 26.5819 336.355 26.165C336.26 25.979 336.191 25.7255 336.153 25.263C336.114 24.7902 336.114 24.181 336.114 23.2976V21.7022C336.114 20.8188 336.114 20.2096 336.153 19.7368C336.191 19.2743 336.26 19.0208 336.355 18.8348C336.568 18.4178 336.907 18.0789 337.324 17.8664C337.51 17.7716 337.763 17.702 338.226 17.6642C338.698 17.6256 339.308 17.6249 340.191 17.6249ZM335.227 21.7022C335.227 19.9647 335.227 19.096 335.565 18.4324C335.863 17.8487 336.337 17.3741 336.921 17.0767C337.585 16.7385 338.453 16.7385 340.191 16.7385H352.423C354.16 16.7385 355.029 16.7385 355.693 17.0767C356.276 17.3741 356.751 17.8487 357.048 18.4324C357.386 19.096 357.386 19.9647 357.386 21.7022V23.2976C357.386 25.0351 357.386 25.9038 357.048 26.5674C356.751 27.1511 356.276 27.6257 355.693 27.9231C355.029 28.2613 354.16 28.2613 352.423 28.2613H340.191C338.453 28.2613 337.585 28.2613 336.921 27.9231C336.337 27.6257 335.863 27.1511 335.565 26.5674C335.227 25.9038 335.227 25.0351 335.227 23.2976V21.7022ZM358.273 24.2726C359.007 24.0953 359.602 23.4789 359.602 22.4999C359.602 21.5208 359.007 20.9044 358.273 20.7272L358.273 22.4999L358.273 24.2726Z" fill="#0F295C"/>
<defs>
<clipPath id="clip0_4224_10018">
<rect width="12" height="12" fill="white" transform="translate(21 68.3577)"/>
</clipPath>
<clipPath id="clip1_4224_10018">
<rect width="17.7273" height="12.4091" fill="white" transform="translate(294.455 16.2954)"/>
</clipPath>
<clipPath id="clip2_4224_10018">
<rect width="17.7273" height="10.6364" fill="white" transform="translate(314.841 17.1819)"/>
</clipPath>
</defs>
</svg>
