<svg width="375" height="812" viewBox="0 0 375 812" fill="none" xmlns="http://www.w3.org/2000/svg">
<g clip-path="url(#clip0_4060_24165)">
<rect width="375" height="812" fill="#F1EEFF"/>
<g clip-path="url(#clip1_4060_24165)">
<path fill-rule="evenodd" clip-rule="evenodd" d="M23 111.917C19.6403 111.917 16.9167 114.64 16.9167 118C16.9167 121.36 19.6403 124.083 23 124.083C26.3597 124.083 29.0833 121.36 29.0833 118C29.0833 114.64 26.3597 111.917 23 111.917ZM15.75 118C15.75 113.996 18.9959 110.75 23 110.75C27.0041 110.75 30.25 113.996 30.25 118C30.25 122.004 27.0041 125.25 23 125.25C18.9959 125.25 15.75 122.004 15.75 118ZM25.4125 116.254C25.6403 116.482 25.6403 116.851 25.4125 117.079L22.7458 119.746C22.518 119.974 22.1487 119.974 21.9209 119.746L20.5875 118.412C20.3597 118.185 20.3597 117.815 20.5875 117.588C20.8153 117.36 21.1847 117.36 21.4125 117.588L22.3333 118.508L24.5875 116.254C24.8153 116.026 25.1847 116.026 25.4125 116.254Z" fill="#5B21B6"/>
</g>
<text fill="#5B21B6" xml:space="preserve" style="white-space: pre" font-family="Ubuntu" font-size="13" letter-spacing="0em"><tspan x="37" y="122.33">Responsable des devoirs : </tspan></text>
<text fill="#5B21B6" xml:space="preserve" style="white-space: pre" font-family="Ubuntu" font-size="13" font-weight="500" letter-spacing="0em"><tspan x="191.083" y="122.33">Amitou Lucas</tspan></text>
<rect y="48.3577" width="375" height="56.7676" fill="#F1EEFF"/>
<path fill-rule="evenodd" clip-rule="evenodd" d="M345 68.2327C343.641 68.2327 342.337 68.7726 341.376 69.7337C340.415 70.6949 339.875 71.9984 339.875 73.3577C339.875 76.9866 339.096 79.3836 338.268 80.9017C338.153 81.1126 338.037 81.306 337.923 81.4827H352.077C351.963 81.306 351.847 81.1126 351.732 80.9017C350.904 79.3836 350.125 76.9866 350.125 73.3577C350.125 71.9984 349.585 70.6949 348.624 69.7337C347.663 68.7726 346.359 68.2327 345 68.2327ZM354.486 81.6304L354.488 81.6311L354.489 81.6323L354.492 81.6344L354.494 81.6355C354.493 81.6347 354.491 81.6334 354.489 81.6316C354.479 81.6246 354.46 81.6095 354.431 81.5859C354.374 81.5385 354.282 81.4565 354.166 81.334C353.935 81.0896 353.605 80.6819 353.268 80.0637C352.596 78.8317 351.875 76.7287 351.875 73.3577C351.875 71.5343 351.151 69.7856 349.861 68.4963C348.572 67.207 346.823 66.4827 345 66.4827C343.177 66.4827 341.428 67.207 340.139 68.4963C338.849 69.7856 338.125 71.5343 338.125 73.3577C338.125 76.7287 337.404 78.8317 336.732 80.0637C336.395 80.6819 336.065 81.0896 335.834 81.334C335.718 81.4565 335.626 81.5385 335.569 81.5859C335.54 81.6095 335.521 81.6246 335.511 81.6316C335.509 81.6335 335.507 81.6348 335.506 81.6356C335.191 81.8509 335.052 82.2456 335.163 82.6112C335.274 82.9803 335.614 83.2327 336 83.2327H354C354.386 83.2327 354.726 82.9803 354.837 82.6112C354.948 82.2456 354.809 81.8509 354.494 81.6356C354.492 81.6339 354.489 81.6321 354.486 81.6304ZM342.878 85.5909C343.302 85.3581 343.834 85.5126 344.067 85.9361C344.159 86.1032 344.294 86.2426 344.458 86.3397C344.622 86.4368 344.809 86.488 345 86.488C345.191 86.488 345.378 86.4368 345.542 86.3397C345.706 86.2426 345.841 86.1032 345.933 85.9361C346.166 85.5126 346.698 85.3581 347.122 85.5909C347.545 85.8237 347.7 86.3558 347.467 86.7792C347.224 87.221 346.867 87.5894 346.433 87.846C345.999 88.1026 345.504 88.238 345 88.238C344.496 88.238 344.001 88.1026 343.567 87.846C343.133 87.5894 342.776 87.221 342.533 86.7792C342.3 86.3558 342.455 85.8237 342.878 85.5909Z" fill="#9587DD"/>
<text fill="#2E1065" xml:space="preserve" style="white-space: pre" font-family="Ubuntu" font-size="17" font-weight="500" letter-spacing="0em"><tspan x="157.36" y="83.5958">Devoirs</tspan></text>
<path fill-rule="evenodd" clip-rule="evenodd" d="M33.7471 65.3247C34.2862 64.7856 35.0175 64.4827 35.78 64.4827H36.22C36.9825 64.4827 37.7138 64.7856 38.2529 65.3247C38.7921 65.8639 39.095 66.5952 39.095 67.3577V67.5368C39.0952 67.7341 39.1473 67.9278 39.246 68.0986C39.3447 68.2694 39.4867 68.4113 39.6575 68.5099L39.6598 68.5112L40.0875 68.7599C40.0878 68.7601 40.0882 68.7603 40.0885 68.7605C40.2593 68.8588 40.4529 68.9106 40.65 68.9106C40.8475 68.9106 41.0415 68.8586 41.2125 68.7599C41.221 68.755 41.2296 68.7502 41.2382 68.7456L41.3765 68.6718C42.0334 68.2978 42.8114 68.1973 43.542 68.3927C44.2778 68.5894 44.9054 69.0701 45.2872 69.7291L45.5079 70.1104C45.8885 70.7702 45.9917 71.5539 45.795 72.2897C45.5989 73.0231 45.1207 73.649 44.465 74.0311L44.3202 74.118L44.3075 74.1254C44.1358 74.2246 43.9934 74.3673 43.8946 74.5392C43.7958 74.711 43.7442 74.906 43.745 75.1042L43.745 75.1077L43.745 75.6077L43.745 75.6111C43.7442 75.8094 43.7958 76.0043 43.8946 76.1762C43.9913 76.3444 44.1298 76.4847 44.2966 76.5835L44.4318 76.6556C44.4408 76.6604 44.4497 76.6654 44.4586 76.6705C45.1176 77.0522 45.5983 77.6799 45.795 78.4156C45.9913 79.1499 45.8889 79.932 45.5102 80.5909L45.2921 80.9776L45.2872 80.9862C44.9054 81.6453 44.2778 82.1259 43.542 82.3227C42.8114 82.518 42.0334 82.4176 41.3765 82.0435L41.2382 81.9697C41.2296 81.9651 41.221 81.9603 41.2125 81.9554C41.0415 81.8567 40.8475 81.8047 40.65 81.8047C40.4529 81.8047 40.2592 81.8565 40.0884 81.9549C40.0881 81.9551 40.0878 81.9553 40.0875 81.9554L39.6598 82.2041L39.6575 82.2054C39.4867 82.3041 39.3447 82.4459 39.246 82.6167C39.1473 82.7875 39.0952 82.9813 39.095 83.1786V83.3577C39.095 84.1202 38.7921 84.8514 38.2529 85.3906C37.7138 85.9298 36.9825 86.2327 36.22 86.2327H35.78C35.0175 86.2327 34.2862 85.9298 33.7471 85.3906C33.2079 84.8514 32.905 84.1202 32.905 83.3577L32.905 83.1786C32.905 83.1784 32.905 83.1787 32.905 83.1786C32.9047 82.9814 32.8527 82.7874 32.754 82.6167C32.6553 82.4459 32.5134 82.3041 32.3425 82.2054L32.3402 82.2041L31.9125 81.9554C31.9122 81.9553 31.9119 81.9551 31.9116 81.9549C31.7408 81.8565 31.5471 81.8047 31.35 81.8047C31.1525 81.8047 30.9585 81.8567 30.7875 81.9554C30.779 81.9603 30.7704 81.9651 30.7618 81.9697L30.6235 82.0435C29.9666 82.4176 29.1886 82.518 28.458 82.3227C27.7222 82.1259 27.0946 81.6453 26.7128 80.9862L26.4921 80.6049C26.1115 79.9452 26.0083 79.1614 26.205 78.4256C26.4011 77.6923 26.8793 77.0663 27.5351 76.6842L27.6798 76.5974L27.6925 76.5899C27.8642 76.4908 28.0066 76.3481 28.1054 76.1762C28.2042 76.0043 28.2558 75.8094 28.255 75.6111L28.255 75.6077V75.1007C28.2534 74.9051 28.2009 74.7134 28.1026 74.5443C28.0039 74.3746 27.8626 74.2336 27.6925 74.1354C27.6762 74.1261 27.6603 74.1161 27.6446 74.1057L27.5155 74.0196C26.8698 73.6365 26.3992 73.0158 26.205 72.2897C26.0083 71.5539 26.1115 70.7702 26.4921 70.1104L26.7128 69.7293C27.0945 69.0702 27.7222 68.5894 28.458 68.3927C29.1886 68.1973 29.9666 68.2977 30.6235 68.6718L30.7618 68.7456C30.7704 68.7502 30.779 68.755 30.7875 68.7599C30.9585 68.8586 31.1525 68.9106 31.35 68.9106C31.5471 68.9106 31.7407 68.8588 31.9115 68.7605C31.9118 68.7603 31.9122 68.7601 31.9125 68.7599L32.3425 68.5099C32.5134 68.4112 32.6553 68.2694 32.754 68.0986C32.8527 67.9279 32.9047 67.7343 32.905 67.5372C32.905 67.537 32.905 67.5373 32.905 67.5372V67.3577C32.905 66.5952 33.2079 65.8639 33.7471 65.3247ZM35.78 66.2327C35.4816 66.2327 35.1955 66.3512 34.9845 66.5622C34.7735 66.7731 34.655 67.0593 34.655 67.3577V67.5386C34.6545 68.0427 34.5214 68.5379 34.2691 68.9744C34.017 69.4105 33.6548 69.7726 33.2188 70.0247C33.2184 70.0249 33.2179 70.0252 33.2175 70.0254L32.7875 70.2754C32.3505 70.5278 31.8547 70.6606 31.35 70.6606C30.8507 70.6606 30.3601 70.5306 29.9264 70.2834L29.7882 70.2097C29.7797 70.2052 29.7712 70.2005 29.7628 70.1956C29.5046 70.0467 29.1979 70.0063 28.91 70.0833C28.6222 70.1602 28.3766 70.3483 28.2273 70.6061C28.2272 70.6061 28.2273 70.606 28.2273 70.6061L28.0079 70.9849C28.0079 70.985 28.0078 70.9852 28.0077 70.9853C27.859 71.2434 27.8187 71.5499 27.8956 71.8376C27.9726 72.1255 28.1607 72.3711 28.4186 72.5205C28.4345 72.5297 28.4501 72.5394 28.4654 72.5496L28.594 72.6354C29.0167 72.8855 29.3685 73.2398 29.6155 73.6647C29.8677 74.0985 30.002 74.5907 30.005 75.0924L30.005 75.0977L30.005 75.6061C30.0067 76.112 29.8748 76.6095 29.6227 77.0482C29.3716 77.4851 29.0101 77.8483 28.5744 78.1014L28.4302 78.188L28.4186 78.1948C28.1607 78.3442 27.9726 78.5898 27.8956 78.8777C27.8187 79.1654 27.859 79.472 28.0077 79.73C28.0076 79.7299 28.0078 79.7302 28.0077 79.73L28.2272 80.1091C28.2271 80.1091 28.2272 80.1092 28.2272 80.1091C28.3765 80.3669 28.6222 80.5551 28.91 80.6321C29.1979 80.709 29.5046 80.6686 29.7628 80.5197C29.7712 80.5149 29.7797 80.5102 29.7882 80.5056L29.9264 80.4319C30.3601 80.1848 30.8507 80.0547 31.35 80.0547C31.8547 80.0547 32.3505 80.1876 32.7875 80.4399L32.7898 80.4412L33.2175 80.6899C33.2179 80.6901 33.2183 80.6903 33.2187 80.6906C33.6548 80.9426 34.017 81.3048 34.2691 81.7409C34.5214 82.1774 34.6545 82.6726 34.655 83.1768L34.655 83.1777L34.655 83.3577C34.655 83.656 34.7735 83.9422 34.9845 84.1532C35.1955 84.3641 35.4816 84.4827 35.78 84.4827H36.22C36.5184 84.4827 36.8045 84.3641 37.0155 84.1532C37.2265 83.9422 37.345 83.656 37.345 83.3577V83.1768C37.3455 82.6726 37.4786 82.1774 37.7309 81.7409C37.983 81.3048 38.3453 80.9426 38.7814 80.6905C38.7818 80.6903 38.7821 80.6901 38.7825 80.6899L39.2102 80.4412L39.2125 80.4399C39.6496 80.1876 40.1453 80.0547 40.65 80.0547C41.1493 80.0547 41.6399 80.1848 42.0736 80.4319L42.2118 80.5056C42.2203 80.5102 42.2288 80.5149 42.2372 80.5197C42.4954 80.6686 42.8021 80.709 43.09 80.6321C43.3765 80.5554 43.6211 80.3688 43.7707 80.1129L43.9879 79.7278L43.9921 79.7204C44.141 79.4623 44.1814 79.1556 44.1044 78.8677C44.0285 78.584 43.8448 78.3414 43.5928 78.1915L43.4582 78.1197C43.4496 78.1151 43.441 78.1103 43.4325 78.1054C42.9938 77.8521 42.6298 77.4874 42.3773 77.0482C42.1252 76.6095 41.9933 76.112 41.995 75.606V75.1093C41.9933 74.6033 42.1252 74.1059 42.3773 73.6672C42.6284 73.2303 42.9899 72.8671 43.4255 72.6139L43.5698 72.5274L43.5814 72.5205C43.8393 72.3711 44.0274 72.1255 44.1044 71.8376C44.1814 71.5497 44.141 71.243 43.9921 70.9849L43.7728 70.6062C43.6235 70.3483 43.3779 70.1603 43.09 70.0833C42.8021 70.0063 42.4954 70.0467 42.2372 70.1956C42.2288 70.2005 42.2203 70.2052 42.2118 70.2097L42.0736 70.2834C41.6399 70.5306 41.1493 70.6606 40.65 70.6606C40.1453 70.6606 39.6496 70.5278 39.2125 70.2754L39.2102 70.2741L38.7825 70.0254C38.7821 70.0252 38.7817 70.025 38.7813 70.0247C38.3452 69.7727 37.983 69.4105 37.7309 68.9744C37.4786 68.5379 37.3455 68.0427 37.345 67.5386V67.3577C37.345 67.0593 37.2265 66.7731 37.0155 66.5622C36.8045 66.3512 36.5184 66.2327 36.22 66.2327H35.78ZM36 73.2327C34.8264 73.2327 33.875 74.1841 33.875 75.3577C33.875 76.5313 34.8264 77.4827 36 77.4827C37.1736 77.4827 38.125 76.5313 38.125 75.3577C38.125 74.1841 37.1736 73.2327 36 73.2327ZM32.125 75.3577C32.125 73.2176 33.8599 71.4827 36 71.4827C38.1401 71.4827 39.875 73.2176 39.875 75.3577C39.875 77.4978 38.1401 79.2327 36 79.2327C33.8599 79.2327 32.125 77.4978 32.125 75.3577Z" fill="#9587DD"/>
<text fill="#5B21B6" xml:space="preserve" style="white-space: pre" font-family="Ubuntu" font-size="14" font-weight="500" letter-spacing="0em"><tspan x="15" y="293.201">Mercredi 06 Novembre</tspan></text>
<rect x="15.25" y="307.25" width="344.5" height="43.5" rx="9.75" fill="#F5F3FF" stroke="#C4B5FD" stroke-width="0.5"/>
<path fill-rule="evenodd" clip-rule="evenodd" d="M340.881 323.812C341.124 323.57 341.518 323.57 341.76 323.812L346.023 328.062C346.266 328.304 346.266 328.696 346.023 328.938L341.76 333.188C341.518 333.43 341.124 333.43 340.881 333.188C340.639 332.946 340.639 332.554 340.881 332.312L344.704 328.5L340.881 324.688C340.639 324.446 340.639 324.054 340.881 323.812Z" fill="#8B5CF6"/>
<g clip-path="url(#clip2_4060_24165)">
<path fill-rule="evenodd" clip-rule="evenodd" d="M38.5 323.036C34.9303 323.036 32.0365 325.93 32.0365 329.5C32.0365 333.07 34.9303 335.964 38.5 335.964C42.0697 335.964 44.9635 333.07 44.9635 329.5C44.9635 325.93 42.0697 323.036 38.5 323.036ZM30.7969 329.5C30.7969 325.246 34.2457 321.797 38.5 321.797C42.7543 321.797 46.2031 325.246 46.2031 329.5C46.2031 333.754 42.7543 337.203 38.5 337.203C34.2457 337.203 30.7969 333.754 30.7969 329.5ZM38.5 326.047C38.8423 326.047 39.1198 326.324 39.1198 326.667V329.5C39.1198 329.842 38.8423 330.12 38.5 330.12C38.1577 330.12 37.8802 329.842 37.8802 329.5V326.667C37.8802 326.324 38.1577 326.047 38.5 326.047ZM37.8802 332.333C37.8802 331.991 38.1577 331.714 38.5 331.714H38.5071C38.8494 331.714 39.1269 331.991 39.1269 332.333C39.1269 332.676 38.8494 332.953 38.5071 332.953H38.5C38.1577 332.953 37.8802 332.676 37.8802 332.333Z" fill="#8B5CF6"/>
</g>
<text fill="#8B5CF6" xml:space="preserve" style="white-space: pre" font-family="Ubuntu" font-size="14" letter-spacing="0em"><tspan x="137.494" y="334.201">Cr&#xe9;a Gest Contenu</tspan></text>
<text fill="#8B5CF6" xml:space="preserve" style="white-space: pre" font-family="Ubuntu" font-size="14" font-weight="500" letter-spacing="0em"><tspan x="56.1192" y="334.201">[&#xc9;valuation] </tspan></text>
<rect x="15" y="365" width="345" height="44" rx="10" fill="white"/>
<circle cx="36" cy="387" r="10.5" stroke="#6D28D9"/>
<text fill="#2E1065" xml:space="preserve" style="white-space: pre" font-family="Ubuntu" font-size="15" font-weight="500" letter-spacing="0em"><tspan x="57" y="392.573">Anglais</tspan></text>
<text fill="#5B21B6" xml:space="preserve" style="white-space: pre" font-family="Ubuntu" font-size="13" letter-spacing="0em"><tspan x="116" y="391.83">Finir de lire le livre</tspan></text>
<path fill-rule="evenodd" clip-rule="evenodd" d="M338.937 382.312C339.179 382.07 339.571 382.07 339.813 382.312L344.063 386.562C344.305 386.804 344.305 387.196 344.063 387.438L339.813 391.688C339.571 391.93 339.179 391.93 338.937 391.688C338.695 391.446 338.695 391.054 338.937 390.812L342.748 387L338.937 383.188C338.695 382.946 338.695 382.554 338.937 382.312Z" fill="#6D28D9"/>
<rect x="15" y="423" width="345" height="44" rx="10" fill="white"/>
<circle cx="36" cy="445" r="10.5" stroke="#6D28D9"/>
<text fill="#2E1065" xml:space="preserve" style="white-space: pre" font-family="Ubuntu" font-size="15" font-weight="500" letter-spacing="0em"><tspan x="57" y="450.573">Cr&#xe9;a 3D</tspan></text>
<text fill="#5B21B6" xml:space="preserve" style="white-space: pre" font-family="Ubuntu" font-size="13" letter-spacing="0em"><tspan x="120" y="449.83">Finir le mod&#xe8;le 3D</tspan></text>
<path fill-rule="evenodd" clip-rule="evenodd" d="M338.937 440.312C339.179 440.07 339.571 440.07 339.813 440.312L344.063 444.562C344.305 444.804 344.305 445.196 344.063 445.438L339.813 449.688C339.571 449.93 339.179 449.93 338.937 449.688C338.695 449.446 338.695 449.054 338.937 448.812L342.748 445L338.937 441.188C338.695 440.946 338.695 440.554 338.937 440.312Z" fill="#6D28D9"/>
<rect x="15" y="481" width="345" height="56" rx="10" fill="white"/>
<circle cx="36" cy="509" r="11" fill="#6D28D9"/>
<g clip-path="url(#clip3_4060_24165)">
<path d="M42.0895 504.887L34.6042 512.073C34.5539 512.121 34.4941 512.16 34.4282 512.186C34.3624 512.212 34.2917 512.226 34.2204 512.226C34.1491 512.226 34.0785 512.212 34.0127 512.186C33.9468 512.16 33.887 512.121 33.8367 512.073L30.942 509.291C30.8917 509.243 30.8319 509.204 30.766 509.178C30.7001 509.152 30.6295 509.138 30.5582 509.138C30.4869 509.138 30.4163 509.152 30.3504 509.178C30.2846 509.204 30.2248 509.243 30.1745 509.291C30.1239 509.34 30.0838 509.397 30.0565 509.46C30.0291 509.523 30.015 509.591 30.015 509.66C30.015 509.728 30.0291 509.796 30.0565 509.859C30.0838 509.922 30.1239 509.98 30.1745 510.028L33.0702 512.808C33.3757 513.1 33.7896 513.265 34.2212 513.265C34.6528 513.265 35.0668 513.1 35.3723 512.808L42.857 505.624C42.9075 505.575 42.9475 505.518 42.9748 505.455C43.0021 505.392 43.0162 505.324 43.0162 505.256C43.0162 505.187 43.0021 505.119 42.9748 505.056C42.9475 504.993 42.9075 504.936 42.857 504.887C42.8067 504.839 42.7469 504.8 42.681 504.774C42.6152 504.748 42.5446 504.734 42.4733 504.734C42.402 504.734 42.3313 504.748 42.2655 504.774C42.1996 504.8 42.1398 504.839 42.0895 504.887Z" fill="white"/>
</g>
<text fill="#2E1065" xml:space="preserve" style="white-space: pre" font-family="Ubuntu" font-size="15" font-weight="500" letter-spacing="0em" text-decoration="line-through"><tspan x="57" y="506.073">Design </tspan><tspan x="57" y="523.073">d&#x2019;exp&#xe9;rience</tspan></text>
<text fill="#5B21B6" xml:space="preserve" style="white-space: pre" font-family="Ubuntu" font-size="13" letter-spacing="0em" text-decoration="line-through"><tspan x="164" y="506.33">Faire des recherches sur </tspan><tspan x="164" y="521.33">l&#x2019;UX Design</tspan></text>
<path fill-rule="evenodd" clip-rule="evenodd" d="M338.937 504.312C339.179 504.07 339.571 504.07 339.813 504.312L344.063 508.562C344.305 508.804 344.305 509.196 344.063 509.438L339.813 513.688C339.571 513.93 339.179 513.93 338.937 513.688C338.695 513.446 338.695 513.054 338.937 512.812L342.748 509L338.937 505.188C338.695 504.946 338.695 504.554 338.937 504.312Z" fill="#6D28D9"/>
<text fill="#5B21B6" xml:space="preserve" style="white-space: pre" font-family="Ubuntu" font-size="14" font-weight="500" letter-spacing="0em"><tspan x="15" y="570.201">Jeudi 07 Novembre</tspan></text>
<rect x="15" y="584" width="345" height="44" rx="10" fill="white"/>
<circle cx="36" cy="606" r="10.5" stroke="#6D28D9"/>
<text fill="#2E1065" xml:space="preserve" style="white-space: pre" font-family="Ubuntu" font-size="15" font-weight="500" letter-spacing="0em"><tspan x="57" y="611.573">Ergonomie</tspan></text>
<text fill="#5B21B6" xml:space="preserve" style="white-space: pre" font-family="Ubuntu" font-size="13" letter-spacing="0em"><tspan x="141" y="610.83">Finir les personas</tspan></text>
<path fill-rule="evenodd" clip-rule="evenodd" d="M338.937 601.312C339.179 601.07 339.571 601.07 339.813 601.312L344.063 605.562C344.305 605.804 344.305 606.196 344.063 606.438L339.813 610.688C339.571 610.93 339.179 610.93 338.937 610.688C338.695 610.446 338.695 610.054 338.937 609.812L342.748 606L338.937 602.188C338.695 601.946 338.695 601.554 338.937 601.312Z" fill="#6D28D9"/>
<rect x="15" y="642" width="345" height="52" rx="10" fill="white"/>
<circle cx="36" cy="668" r="11" fill="#6D28D9"/>
<g clip-path="url(#clip4_4060_24165)">
<path d="M42.0895 663.887L34.6042 671.073C34.5539 671.121 34.4941 671.16 34.4282 671.186C34.3624 671.212 34.2917 671.226 34.2204 671.226C34.1491 671.226 34.0785 671.212 34.0127 671.186C33.9468 671.16 33.887 671.121 33.8367 671.073L30.942 668.291C30.8917 668.243 30.8319 668.204 30.766 668.178C30.7001 668.152 30.6295 668.138 30.5582 668.138C30.4869 668.138 30.4163 668.152 30.3504 668.178C30.2846 668.204 30.2248 668.243 30.1745 668.291C30.1239 668.34 30.0838 668.397 30.0565 668.46C30.0291 668.523 30.015 668.591 30.015 668.66C30.015 668.728 30.0291 668.796 30.0565 668.859C30.0838 668.922 30.1239 668.98 30.1745 669.028L33.0702 671.808C33.3757 672.1 33.7896 672.265 34.2212 672.265C34.6528 672.265 35.0668 672.1 35.3723 671.808L42.857 664.624C42.9075 664.575 42.9475 664.518 42.9748 664.455C43.0021 664.392 43.0162 664.324 43.0162 664.256C43.0162 664.187 43.0021 664.119 42.9748 664.056C42.9475 663.993 42.9075 663.936 42.857 663.887C42.8067 663.839 42.7469 663.8 42.681 663.774C42.6152 663.748 42.5446 663.734 42.4733 663.734C42.402 663.734 42.3313 663.748 42.2655 663.774C42.1996 663.8 42.1398 663.839 42.0895 663.887Z" fill="white"/>
</g>
<text fill="#2E1065" xml:space="preserve" style="white-space: pre" font-family="Ubuntu" font-size="15" font-weight="500" letter-spacing="0em" text-decoration="line-through"><tspan x="57" y="673.573">Accessibilit&#xe9;</tspan></text>
<text fill="#5B21B6" xml:space="preserve" style="white-space: pre" font-family="Ubuntu" font-size="13" letter-spacing="0em" text-decoration="line-through"><tspan x="152" y="665.33">Commencer le sous-titrage </tspan><tspan x="152" y="680.33">en anglais</tspan></text>
<path fill-rule="evenodd" clip-rule="evenodd" d="M338.937 663.312C339.179 663.07 339.571 663.07 339.813 663.312L344.063 667.562C344.305 667.804 344.305 668.196 344.063 668.438L339.813 672.688C339.571 672.93 339.179 672.93 338.937 672.688C338.695 672.446 338.695 672.054 338.937 671.812L342.748 668L338.937 664.188C338.695 663.946 338.695 663.554 338.937 663.312Z" fill="#6D28D9"/>
<path d="M16 260L358 260" stroke="#DDD6FE" stroke-width="3" stroke-linecap="round"/>
<path d="M16 260H129" stroke="#6D28D9" stroke-width="3" stroke-linecap="round"/>
<text fill="#6D28D9" xml:space="preserve" style="white-space: pre" font-family="Ubuntu" font-size="14" font-weight="500" letter-spacing="0em"><tspan x="15" y="249.201">2/5 t&#xe2;ches</tspan></text>
<text fill="#5B21B6" xml:space="preserve" style="white-space: pre" font-family="Ubuntu" font-size="14" letter-spacing="0em"><tspan x="140.101" y="218.201">04/11 au 08/11</tspan></text>
<text fill="#2E1065" xml:space="preserve" style="white-space: pre" font-family="Ubuntu" font-size="16" font-weight="500" letter-spacing="0em"><tspan x="145.492" y="199.944">Semaine 45</tspan></text>
<path d="M338.272 200.035L347.901 200.035L344.733 203.165C344.643 203.253 344.571 203.359 344.522 203.474C344.473 203.59 344.448 203.715 344.448 203.84C344.448 203.966 344.473 204.09 344.522 204.206C344.571 204.322 344.643 204.427 344.733 204.516C344.913 204.693 345.157 204.792 345.412 204.792C345.666 204.792 345.91 204.693 346.09 204.516L350.221 200.425C350.583 200.07 350.787 199.587 350.789 199.083C350.784 198.583 350.58 198.104 350.221 197.751L346.09 193.66C346.001 193.572 345.894 193.503 345.777 193.455C345.66 193.408 345.535 193.384 345.408 193.384C345.282 193.384 345.157 193.41 345.04 193.458C344.923 193.506 344.817 193.577 344.728 193.665C344.639 193.754 344.568 193.859 344.52 193.975C344.472 194.09 344.448 194.214 344.448 194.339C344.449 194.464 344.474 194.588 344.523 194.703C344.572 194.819 344.643 194.923 344.733 195.011L347.901 198.132L338.272 198.132C338.017 198.132 337.772 198.232 337.591 198.411C337.411 198.589 337.309 198.831 337.309 199.083C337.309 199.336 337.411 199.578 337.591 199.756C337.772 199.935 338.017 200.035 338.272 200.035Z" fill="#2E1065"/>
<path d="M36.7279 198.965H27.0994L30.2672 195.835C30.3574 195.747 30.429 195.641 30.4779 195.526C30.5268 195.41 30.552 195.285 30.552 195.16C30.552 195.034 30.5268 194.91 30.4779 194.794C30.429 194.678 30.3574 194.573 30.2672 194.484C30.0867 194.307 29.8427 194.208 29.5883 194.208C29.334 194.208 29.0899 194.307 28.9095 194.484L24.7789 198.575C24.4173 198.93 24.213 199.413 24.2108 199.917C24.2155 200.417 24.4196 200.896 24.7789 201.249L28.9095 205.34C28.9993 205.428 29.1058 205.497 29.2228 205.545C29.3399 205.592 29.4652 205.616 29.5917 205.616C29.7183 205.616 29.8434 205.59 29.9602 205.542C30.0769 205.494 30.1828 205.423 30.272 205.335C30.3611 205.246 30.4317 205.141 30.4797 205.025C30.5277 204.91 30.5522 204.786 30.5517 204.661C30.5513 204.536 30.5259 204.412 30.4771 204.297C30.4283 204.181 30.3569 204.077 30.2672 203.989L27.0994 200.868H36.7279C36.9832 200.868 37.2282 200.768 37.4087 200.589C37.5893 200.411 37.6907 200.169 37.6907 199.917C37.6907 199.664 37.5893 199.422 37.4087 199.244C37.2282 199.065 36.9832 198.965 36.7279 198.965Z" fill="#2E1065"/>
<text fill="#6D28D9" xml:space="preserve" style="white-space: pre" font-family="Ubuntu" font-size="13" font-weight="500" letter-spacing="-0.04em"><tspan x="29.1903" y="155.83">Vue semaine</tspan></text>
<path fill-rule="evenodd" clip-rule="evenodd" d="M117.43 149.16C117.643 149.373 117.643 149.719 117.43 149.933L113.682 153.68C113.468 153.893 113.122 153.893 112.908 153.68L109.16 149.933C108.947 149.719 108.947 149.373 109.16 149.16C109.374 148.947 109.72 148.947 109.933 149.16L113.295 152.521L116.657 149.16C116.87 148.947 117.216 148.947 117.43 149.16Z" fill="#6D28D9"/>
<rect x="15.25" y="136.25" width="119.5" height="29.5" rx="14.75" stroke="#6D28D9" stroke-width="0.5"/>
<rect width="375" height="105" transform="translate(0 707)" fill="white"/>
<g clip-path="url(#clip5_4060_24165)">
<path d="M59.125 748.875V740.542C59.125 740.265 59.0153 740 58.8199 739.805C58.6246 739.61 58.3596 739.5 58.0833 739.5H53.9167C53.6404 739.5 53.3754 739.61 53.1801 739.805C52.9847 740 52.875 740.265 52.875 740.542V748.875" stroke="#9587DD" stroke-width="1.5" stroke-linecap="round" stroke-linejoin="round"/>
<path d="M46.625 737.417C46.6249 737.114 46.691 736.814 46.8185 736.539C46.9461 736.264 47.1321 736.021 47.3635 735.825L54.6552 729.576C55.0312 729.258 55.5077 729.084 56 729.084C56.4923 729.084 56.9688 729.258 57.3448 729.576L64.6365 735.825C64.8679 736.021 65.0539 736.264 65.1815 736.539C65.309 736.814 65.3751 737.114 65.375 737.417V746.792C65.375 747.344 65.1555 747.874 64.7648 748.265C64.3741 748.656 63.8442 748.875 63.2917 748.875H48.7083C48.1558 748.875 47.6259 748.656 47.2352 748.265C46.8445 747.874 46.625 747.344 46.625 746.792V737.417Z" stroke="#9587DD" stroke-width="1.5" stroke-linecap="round" stroke-linejoin="round"/>
<text fill="#9587DD" xml:space="preserve" style="white-space: pre" font-family="Ubuntu" font-size="12" font-weight="500" letter-spacing="-0.04em"><tspan x="37.3951" y="767.458">Accueil</tspan></text>
</g>
<path d="M138.333 729.083V733.25" stroke="#9587DD" stroke-width="1.5" stroke-linecap="round" stroke-linejoin="round"/>
<path d="M146.667 729.083V733.25" stroke="#9587DD" stroke-width="1.5" stroke-linecap="round" stroke-linejoin="round"/>
<path d="M149.792 731.167H135.208C134.058 731.167 133.125 732.099 133.125 733.25V747.833C133.125 748.984 134.058 749.917 135.208 749.917H149.792C150.942 749.917 151.875 748.984 151.875 747.833V733.25C151.875 732.099 150.942 731.167 149.792 731.167Z" stroke="#9587DD" stroke-width="1.5" stroke-linecap="round" stroke-linejoin="round"/>
<path d="M133.125 737.417H151.875" stroke="#9587DD" stroke-width="1.5" stroke-linecap="round" stroke-linejoin="round"/>
<text fill="#9587DD" xml:space="preserve" style="white-space: pre" font-family="Ubuntu" font-size="12" font-weight="500" letter-spacing="-0.04em"><tspan x="131.783" y="767.458">EDT</tspan></text>
<g clip-path="url(#clip6_4060_24165)">
<path d="M230 749.917C235.753 749.917 240.417 745.253 240.417 739.5C240.417 733.747 235.753 729.083 230 729.083C224.247 729.083 219.583 733.747 219.583 739.5C219.583 745.253 224.247 749.917 230 749.917Z" stroke="#6D28D9" stroke-width="1.5" stroke-linecap="round" stroke-linejoin="round"/>
<path d="M226.875 739.5L228.958 741.583L233.125 737.417" stroke="#6D28D9" stroke-width="1.5" stroke-linecap="round" stroke-linejoin="round"/>
<text fill="#6D28D9" xml:space="preserve" style="white-space: pre" font-family="Ubuntu" font-size="12" font-weight="500" letter-spacing="-0.04em"><tspan x="210.165" y="767.458">Devoirs</tspan></text>
</g>
<path d="M328.333 731.167H311.667C310.516 731.167 309.583 732.099 309.583 733.25V745.75C309.583 746.901 310.516 747.833 311.667 747.833H328.333C329.484 747.833 330.417 746.901 330.417 745.75V733.25C330.417 732.099 329.484 731.167 328.333 731.167Z" stroke="#9587DD" stroke-width="1.5" stroke-linecap="round" stroke-linejoin="round"/>
<path d="M330.417 734.292L321.073 740.229C320.751 740.431 320.379 740.538 320 740.538C319.62 740.538 319.249 740.431 318.927 740.229L309.583 734.292" stroke="#9587DD" stroke-width="1.5" stroke-linecap="round" stroke-linejoin="round"/>
<text fill="#9587DD" xml:space="preserve" style="white-space: pre" font-family="Ubuntu" font-size="12" font-weight="500" letter-spacing="-0.04em"><tspan x="306.271" y="767.458">Mails</tspan></text>
<path d="M0 790H375V812H0V790Z" fill="white"/>
<rect width="139" height="5" rx="2.5" transform="matrix(-1 0 0 1 257 799)" fill="#2E1065"/>
<text fill="#2E1065" xml:space="preserve" style="white-space: pre" font-family="Ubuntu" font-size="15.0682" font-weight="500" letter-spacing="-0.04em"><tspan x="28" y="28.2797">14:16</tspan></text>
<g clip-path="url(#clip7_4060_24165)">
<rect x="309.083" y="16.9773" width="2.83636" height="10.6364" rx="0.886364" fill="#2E1065"/>
<rect x="304.385" y="19.1045" width="2.83636" height="8.50909" rx="0.886364" fill="#2E1065"/>
<rect x="299.688" y="21.4089" width="2.83636" height="6.20455" rx="0.886364" fill="#2E1065"/>
<rect x="294.99" y="23.5364" width="2.83636" height="4.07727" rx="0.886364" fill="#2E1065"/>
</g>
<g clip-path="url(#clip8_4060_24165)">
<path d="M323.848 24.073C324.472 24.073 325.078 24.2368 325.612 24.5493L325.828 24.6758C325.992 24.7718 326.021 24.9964 325.886 25.1305L324.039 26.9721C323.926 27.0852 323.742 27.0852 323.629 26.9721L321.794 25.1423C321.66 25.0088 321.688 24.7854 321.85 24.6887L322.064 24.5615C322.603 24.2412 323.217 24.073 323.848 24.073Z" fill="#2E1065"/>
<path d="M323.848 20.6899C325.399 20.6899 326.889 21.2045 328.102 22.1574L328.273 22.292C328.41 22.3994 328.422 22.6017 328.299 22.7244L327.196 23.8239C327.094 23.9256 326.933 23.9372 326.817 23.8513L326.683 23.7514C325.864 23.1424 324.876 22.8158 323.848 22.8158C322.815 22.8158 321.821 23.1465 320.999 23.7625L320.864 23.8633C320.749 23.9499 320.587 23.9385 320.484 23.8365L319.382 22.7375C319.259 22.615 319.271 22.4132 319.407 22.3057L319.578 22.1709C320.794 21.2095 322.29 20.6899 323.848 20.6899Z" fill="#2E1065"/>
<path d="M323.848 17.3069C326.31 17.3069 328.664 18.1752 330.527 19.7668L330.686 19.9026C330.815 20.0124 330.822 20.2081 330.703 20.3274L329.604 21.4233C329.497 21.5295 329.327 21.5369 329.212 21.4404L329.076 21.3266C327.609 20.1 325.77 19.4327 323.848 19.4327C321.92 19.4327 320.076 20.1046 318.606 21.3389L318.47 21.4533C318.355 21.5502 318.184 21.5429 318.078 21.4366L316.979 20.3409C316.86 20.2217 316.867 20.0263 316.995 19.9164L317.153 19.7805C319.019 18.1804 321.38 17.3069 323.848 17.3069Z" fill="#2E1065"/>
</g>
<rect x="337" y="18.5112" width="18.6136" height="7.97727" rx="1.17886" fill="#2E1065"/>
<path opacity="0.4" fill-rule="evenodd" clip-rule="evenodd" d="M340.191 17.6249H352.423C353.306 17.6249 353.915 17.6256 354.388 17.6642C354.851 17.702 355.104 17.7716 355.29 17.8664C355.707 18.0789 356.046 18.4178 356.259 18.8348C356.353 19.0208 356.423 19.2743 356.461 19.7368C356.499 20.2096 356.5 20.8188 356.5 21.7022V23.2976C356.5 24.181 356.499 24.7902 356.461 25.263C356.423 25.7255 356.353 25.979 356.259 26.165C356.046 26.5819 355.707 26.9209 355.29 27.1334C355.104 27.2282 354.851 27.2978 354.388 27.3356C353.915 27.3742 353.306 27.3749 352.423 27.3749H340.191C339.308 27.3749 338.698 27.3742 338.226 27.3356C337.763 27.2978 337.51 27.2282 337.324 27.1334C336.907 26.9209 336.568 26.5819 336.355 26.165C336.26 25.979 336.191 25.7255 336.153 25.263C336.114 24.7902 336.114 24.181 336.114 23.2976V21.7022C336.114 20.8188 336.114 20.2096 336.153 19.7368C336.191 19.2743 336.26 19.0208 336.355 18.8348C336.568 18.4178 336.907 18.0789 337.324 17.8664C337.51 17.7716 337.763 17.702 338.226 17.6642C338.698 17.6256 339.308 17.6249 340.191 17.6249ZM335.227 21.7022C335.227 19.9647 335.227 19.096 335.565 18.4324C335.863 17.8487 336.337 17.3741 336.921 17.0767C337.585 16.7385 338.453 16.7385 340.191 16.7385H352.423C354.16 16.7385 355.029 16.7385 355.693 17.0767C356.276 17.3741 356.751 17.8487 357.048 18.4324C357.386 19.096 357.386 19.9647 357.386 21.7022V23.2976C357.386 25.0351 357.386 25.9038 357.048 26.5674C356.751 27.1511 356.276 27.6257 355.693 27.9231C355.029 28.2613 354.16 28.2613 352.423 28.2613H340.191C338.453 28.2613 337.585 28.2613 336.921 27.9231C336.337 27.6257 335.863 27.1511 335.565 26.5674C335.227 25.9038 335.227 25.0351 335.227 23.2976V21.7022ZM358.273 24.2726C359.007 24.0953 359.602 23.4789 359.602 22.4999C359.602 21.5208 359.007 20.9044 358.273 20.7272L358.273 22.4999L358.273 24.2726Z" fill="#2E1065"/>
</g>
<defs>
<clipPath id="clip0_4060_24165">
<rect width="375" height="812" fill="white"/>
</clipPath>
<clipPath id="clip1_4060_24165">
<rect width="16" height="16" fill="white" transform="translate(15 110)"/>
</clipPath>
<clipPath id="clip2_4060_24165">
<rect width="17" height="17" fill="white" transform="translate(30 321)"/>
</clipPath>
<clipPath id="clip3_4060_24165">
<rect width="13" height="12.48" fill="white" transform="translate(30 502.583)"/>
</clipPath>
<clipPath id="clip4_4060_24165">
<rect width="13" height="12.48" fill="white" transform="translate(30 661.583)"/>
</clipPath>
<clipPath id="clip5_4060_24165">
<rect width="38" height="43" fill="white" transform="translate(37 727)"/>
</clipPath>
<clipPath id="clip6_4060_24165">
<rect width="40" height="43" fill="white" transform="translate(210 727)"/>
</clipPath>
<clipPath id="clip7_4060_24165">
<rect width="17.7273" height="12.4091" fill="white" transform="translate(294.455 16.2954)"/>
</clipPath>
<clipPath id="clip8_4060_24165">
<rect width="17.7273" height="10.6364" fill="white" transform="translate(314.841 17.1819)"/>
</clipPath>
</defs>
</svg>
